<svg width="1029" height="1029" viewBox="0 0 1029 1029" fill="none" xmlns="http://www.w3.org/2000/svg">
<path d="M777.133 779.539C776.373 765.409 775.673 751.28 774.843 737.15C774.463 730.63 773.813 724.12 773.353 717.609C773.243 715.99 773.173 714.309 773.463 712.729C774.123 709.219 776.843 706.859 780.183 706.589C783.773 706.299 786.993 708.359 788.013 712.009C788.543 713.889 788.533 715.949 788.593 717.939C789.313 738.999 789.993 760.049 790.693 781.109C790.723 781.959 790.893 782.809 791.073 784.329C792.673 783.249 793.853 782.559 794.903 781.719C799.723 777.869 804.473 773.909 809.333 770.109C811.033 768.779 812.903 767.57 814.863 766.67C818.453 765.02 821.953 765.79 824.333 768.41C826.863 771.2 827.213 775.019 824.873 778.459C823.563 780.389 821.883 782.129 820.133 783.679C814.423 788.729 808.613 793.68 802.793 798.609C801.853 799.409 800.653 799.889 799.573 800.519C799.863 800.969 800.143 801.43 800.433 801.88C802.913 802.18 805.393 802.519 807.883 802.769C822.333 804.229 836.783 805.64 851.233 807.17C853.743 807.44 856.243 808.049 858.663 808.769C860.833 809.419 862.683 810.699 862.603 813.339C862.523 815.959 860.623 817.269 858.443 817.759C855.453 818.429 852.333 819.099 849.313 818.929C837.723 818.259 826.143 817.25 814.563 816.38C813.203 816.28 811.833 816.209 809.343 816.059C820.553 828.069 831.033 839.289 841.583 850.599C847.023 848.969 852.263 847.999 857.773 849.509C868.843 852.549 875.853 862.699 874.593 874.249C873.363 885.509 863.873 894.94 852.713 894.67C834.043 894.23 823.513 878.179 830.483 861.999C830.913 861.009 831.413 860.059 832.043 858.749C821.023 847.289 810.003 835.84 798.053 823.4C797.763 826.87 797.553 828.979 797.423 831.079C796.653 843.399 795.943 855.729 795.113 868.049C794.983 870.009 794.643 872.059 793.873 873.839C792.713 876.529 790.453 878.019 787.393 877.969C784.483 877.919 781.783 876.019 780.943 872.999C780.423 871.119 780.313 869.059 780.383 867.089C780.933 850.939 781.573 834.789 782.173 818.63C782.203 817.94 782.113 817.25 782.033 815.859C780.363 817.07 779.093 817.96 777.863 818.89C770.903 824.13 764.013 829.479 756.943 834.569C754.773 836.129 752.233 837.44 749.673 838.13C744.943 839.4 741.353 835.349 742.993 830.719C743.643 828.899 744.833 827.129 746.163 825.709C749.633 821.999 753.313 818.49 756.933 814.92C758.183 813.69 759.483 812.51 761.753 810.38C756.383 810.01 752.313 809.739 748.243 809.449C724.523 807.729 700.803 805.999 677.083 804.269C674.733 804.099 672.373 803.999 670.013 803.819C667.673 803.639 665.513 802.89 665.423 800.17C665.333 797.5 667.383 796.359 669.693 796.079C673.283 795.639 676.923 795.159 680.523 795.239C699.953 795.629 719.373 796.169 738.803 796.699C747.513 796.939 756.233 797.25 764.943 797.599C767.753 797.709 770.543 798.079 774.493 798.429C772.593 796.189 771.493 794.829 770.333 793.539C734.983 754.009 699.623 714.479 664.283 674.929C661.383 671.679 658.663 668.27 655.923 664.88C654.573 663.21 653.223 661.859 650.343 663.429C650.253 665.039 650.033 666.98 650.043 668.92C650.173 693.07 650.333 717.229 650.483 741.38C650.493 743.919 650.483 746.459 650.353 748.999C650.243 751.179 649.233 752.959 646.963 753.349C644.403 753.789 642.713 752.199 642.043 749.979C641.203 747.219 640.613 744.349 640.273 741.479C637.673 719.619 636.933 697.67 637.153 675.67C637.173 673.33 637.153 671 637.153 668.16C618.463 676.51 600.453 684.98 582.113 692.65C563.733 700.33 545.033 707.219 526.033 714.62C527.023 715.74 527.883 716.799 528.823 717.769C544.473 733.959 560.133 750.139 575.793 766.309C577.813 768.399 579.943 770.379 581.863 772.559C584.193 775.189 585.133 778.229 583.563 781.62C581.553 785.969 575.993 787.239 572.013 784.029C569.923 782.339 568.203 780.149 566.483 778.049C552.243 760.789 536.433 744.999 520.573 729.269C520.113 728.809 519.483 728.509 518.723 727.989C516.363 781.219 514.013 834.079 511.623 888.079C513.403 886.549 514.503 885.81 515.353 884.849C528.353 870.169 541.313 855.439 554.323 840.769C555.513 839.429 556.883 838.139 558.413 837.259C561.213 835.649 564.793 836.239 567.013 838.329C569.333 840.519 570.143 843.829 568.623 846.819C567.653 848.709 566.193 850.409 564.723 851.989C550.593 867.119 536.403 882.209 522.253 897.319C521.403 898.229 520.633 899.209 519.143 900.959C521.753 901.319 523.593 901.619 525.443 901.829C531.933 902.589 538.433 903.24 544.913 904.109C546.673 904.339 548.483 904.929 550.033 905.779C552.973 907.399 554.433 910.049 554.133 913.479C553.853 916.749 551.493 919.63 548.063 920.37C545.783 920.859 543.363 920.959 541.033 920.849C535.053 920.569 529.073 920.07 523.103 919.67C520.223 919.47 517.343 919.269 513.093 918.979C514.863 921.369 515.913 922.909 517.093 924.339C525.313 934.279 533.593 944.16 541.763 954.14C544.173 957.09 546.343 960.24 548.493 963.39C549.403 964.72 550.223 966.219 550.613 967.769C551.403 970.859 549.233 973.499 546.153 972.819C543.793 972.289 541.293 971.069 539.523 969.429C535.133 965.369 530.953 961.049 527.013 956.549C521.523 950.289 516.323 943.779 510.913 937.259C509.403 940.509 507.993 969.859 508.593 983.439C509.983 984.289 511.533 985.189 513.023 986.179C523.073 992.859 526.553 1006.21 520.953 1016.47C515.333 1026.75 502.243 1031.26 491.283 1026.65C481.673 1022.61 478.203 1014.39 477.403 1004.94C476.673 996.349 482.593 987.799 490.743 984.209C492.223 983.559 493.763 983.029 495.813 982.239C496.093 966.459 496.363 950.6 496.663 933.66C494.673 935.22 493.553 936.01 492.533 936.91C483.003 945.33 473.513 953.779 463.973 962.189C462.613 963.389 461.193 964.559 459.633 965.449C456.463 967.249 452.773 966.759 450.593 964.469C448.163 961.919 447.973 958.229 450.293 954.969C451.223 953.649 452.453 952.52 453.643 951.42C465.363 940.56 477.113 929.719 488.843 918.87C489.353 918.4 489.783 917.84 490.843 916.67C486.373 916.1 482.523 915.659 478.683 915.089C471.683 914.049 464.683 913.029 457.723 911.769C455.633 911.389 453.473 910.549 451.733 909.349C447.893 906.699 448.353 901.79 452.543 899.66C453.803 899.02 455.293 898.609 456.703 898.539C461.413 898.309 466.123 898.219 470.843 898.209C473.533 898.209 476.223 898.46 479.833 898.65C478.563 896.85 477.873 895.67 477.003 894.67C458.443 873.26 439.863 851.879 421.293 830.479C420.463 829.519 419.413 828.569 419.073 827.429C418.713 826.189 418.583 824.349 419.253 823.499C419.943 822.629 421.873 822.09 423.023 822.38C424.693 822.789 426.353 823.849 427.673 825.019C431.063 828.029 434.383 831.14 437.523 834.42C453.333 850.97 469.103 867.549 484.813 884.199C489.023 888.659 492.933 893.399 497.663 898.799C497.933 896.339 498.183 894.819 498.263 893.299C500.623 847.959 502.903 802.609 505.363 757.279C505.993 745.679 507.233 734.109 508.163 722.529C508.363 720.089 509.383 717.349 505.583 715.709C504.313 716.819 502.763 718 501.393 719.37C489.443 731.31 477.503 743.249 465.623 755.249C459.623 761.319 453.783 767.55 447.833 773.67C446.703 774.84 445.553 776.199 444.133 776.809C442.813 777.369 440.923 777.529 439.633 777.009C437.783 776.259 437.133 774.149 437.903 772.359C438.973 769.89 440.273 767.409 441.983 765.359C449.763 756.01 457.493 746.599 465.673 737.609C473.123 729.419 481.123 721.729 488.873 713.809C490.113 712.539 491.313 711.229 493.093 709.349C454.523 696.729 417.913 681.019 381.323 663.749C381.193 665.689 381.043 667.05 381.023 668.4C380.643 690.73 380.283 713.06 379.923 735.39C379.883 737.93 379.903 740.469 379.853 743.019C379.743 749.009 376.553 752.83 371.843 752.64C367.293 752.45 364.333 748.739 364.633 742.959C365.033 735.169 366.033 727.399 366.253 719.599C366.703 703.63 366.803 687.64 367.023 671.66C367.033 670.65 366.813 669.64 366.663 668.37C327.333 704.38 288.353 740.08 248.443 776.62C250.913 776.76 252.083 776.94 253.243 776.87C272.453 775.74 291.663 774.569 310.883 773.429C312.693 773.319 314.533 773.189 316.313 773.429C319.793 773.909 322.323 776.58 322.783 779.87C323.233 783.12 321.453 786.44 318.063 787.609C315.893 788.359 313.463 788.519 311.133 788.609C289.893 789.37 268.663 790.049 247.423 790.759C246.883 790.779 246.353 790.919 245.273 791.089C245.923 792.269 246.343 793.339 247.033 794.209C251.103 799.319 255.293 804.339 259.333 809.489C260.663 811.189 261.883 813.059 262.743 815.039C264.253 818.519 263.303 822.269 260.693 824.479C258.023 826.739 254.293 827.089 251.073 824.979C249.123 823.699 247.353 822.049 245.803 820.309C241.083 815.029 236.513 809.619 231.873 804.269C230.713 802.929 229.543 801.62 227.533 799.339C227.033 803.899 226.633 807.38 226.273 810.859C224.813 824.76 223.393 838.659 221.893 852.559C221.683 854.529 221.203 856.5 220.643 858.41C220.003 860.59 218.803 862.539 216.243 862.63C213.363 862.729 212.163 860.539 211.433 858.219C210.943 856.679 210.603 855.01 210.633 853.41C210.803 845.61 210.993 837.809 211.433 830.029C211.733 824.779 212.473 819.549 212.973 814.309C213.083 813.109 212.993 811.879 212.993 809.589C201.223 820.569 190.143 830.909 178.833 841.459C179.273 843.269 179.783 844.969 180.083 846.719C181.723 856.319 179.013 864.419 171.173 870.349C163.403 876.24 154.933 876.289 146.583 871.799C138.363 867.379 133.673 860.129 134.683 850.809C136.843 830.839 154.073 824.169 167.513 830.569C168.333 830.959 169.143 831.369 170.523 832.039C181.933 821.079 193.473 809.979 205.923 798.009C202.993 797.759 201.443 797.599 199.883 797.509C187.013 796.729 174.143 796.01 161.273 795.17C159.313 795.04 157.263 794.67 155.473 793.9C152.773 792.75 151.203 790.429 151.283 787.439C151.363 784.469 152.933 782.129 155.743 781.179C157.753 780.499 160.003 780.219 162.123 780.289C176.823 780.769 191.523 781.399 206.223 781.959C208.333 782.039 210.443 781.969 213.253 781.969C212.053 780.249 211.203 778.949 210.283 777.709C204.953 770.589 199.513 763.539 194.323 756.319C192.883 754.309 191.693 751.879 191.193 749.469C190.173 744.559 194.183 741.2 198.813 743.12C201.253 744.13 203.373 746.029 205.433 747.779C209.983 751.649 214.393 755.689 218.793 759.589C218.833 759.409 219.263 758.319 219.343 757.209C221.323 728.949 223.263 700.689 225.213 672.429C225.293 671.339 225.343 670.249 225.563 669.179C225.943 667.319 226.673 665.609 228.903 665.449C231.353 665.269 232.543 666.869 233.053 668.969C233.473 670.719 233.813 672.539 233.823 674.329C233.863 681.589 233.843 688.859 233.693 696.12C233.353 713.01 233.003 729.899 232.493 746.779C232.253 754.579 231.633 762.37 231.203 770.17C231.143 771.21 231.203 772.259 231.203 774.179C233.033 772.639 234.383 771.56 235.673 770.41C275.063 735.18 314.453 699.929 353.863 664.709C357.243 661.689 360.793 658.839 364.343 655.999C366.033 654.659 367.343 653.319 366.053 650.309C360.653 650.079 354.903 649.57 349.163 649.62C328.273 649.799 307.393 650.169 286.503 650.439C284.323 650.469 282.143 650.439 279.973 650.279C278.003 650.129 276.483 649.149 276.083 647.079C275.643 644.799 276.693 642.999 278.753 642.279C281.293 641.389 283.973 640.75 286.653 640.41C309.043 637.54 331.533 636.89 354.073 637.17C356.243 637.2 358.413 637.17 361.553 637.17C358.233 629.35 354.453 622.419 351.223 615.259C347.933 607.979 344.563 600.74 341.403 593.4C338.163 585.9 335.063 578.339 332.013 570.759C329.033 563.349 326.133 555.909 323.303 548.439C320.503 541.049 317.823 533.599 314.903 525.659C313.313 527.159 312.143 528.229 311.003 529.329C295.073 544.729 279.153 560.129 263.233 575.529C261.533 577.169 259.893 578.87 258.163 580.469C257.103 581.449 256.023 582.48 254.773 583.17C251.493 584.98 247.583 584.31 245.313 581.719C243.013 579.099 242.723 575.089 245.123 572.189C246.953 569.979 249.263 568.129 251.483 566.279C268.683 551.969 284.533 536.229 300.213 520.319C300.563 519.969 300.753 519.449 301.233 518.649C248.033 516.299 195.123 513.959 142.213 511.629C142.103 511.979 141.993 512.329 141.893 512.679C142.713 513.539 143.483 514.459 144.373 515.239C159.063 528.229 173.783 541.189 188.473 554.189C189.683 555.259 190.913 556.419 191.783 557.759C193.693 560.719 193.323 564.43 191.113 566.859C188.873 569.32 185.303 570.059 182.153 568.429C180.573 567.609 179.163 566.389 177.843 565.159C162.993 551.259 148.183 537.309 133.343 523.399C131.943 522.079 130.403 520.909 128.313 519.139C127.493 526.639 126.803 533.259 126.043 539.869C125.813 541.849 125.533 543.839 125.093 545.779C123.823 551.449 120.413 554.549 116.033 554.149C111.373 553.719 108.473 549.979 108.473 543.879C108.473 539.159 108.783 534.439 109.093 529.739C109.443 524.509 109.943 519.279 110.483 512.869C108.063 514.719 106.353 515.929 104.753 517.259C95.1027 525.249 85.5027 533.309 75.8027 541.249C72.7127 543.779 69.4127 546.049 66.1427 548.339C64.9627 549.159 63.6227 549.76 62.3027 550.359C60.4327 551.2 58.4527 550.939 57.4227 549.289C56.6627 548.079 56.2027 545.949 56.7627 544.789C58.0827 542.059 59.7427 539.299 61.9027 537.209C67.3627 531.899 73.1128 526.879 78.8628 521.869C83.2228 518.079 87.7528 514.489 93.3328 509.889C76.7728 509.309 61.5027 508.77 46.1427 508.23C45.0427 510 44.1527 511.529 43.1627 513.009C36.4327 523.089 23.1827 526.529 12.8827 520.879C2.5927 515.239 -1.89721 502.19 2.72279 491.22C6.76279 481.63 15.0127 478.159 24.4327 477.309C32.9627 476.539 41.5727 482.549 45.1427 490.679C45.7927 492.159 46.3027 493.709 47.0327 495.619C62.8527 495.979 78.7328 496.34 95.7228 496.72C94.2228 494.75 93.4628 493.62 92.5628 492.6C84.0328 482.93 75.4528 473.3 66.9428 463.61C65.6328 462.12 64.3927 460.499 63.5127 458.739C62.0727 455.849 62.6828 452.759 64.7328 450.679C66.9228 448.459 70.3027 447.88 73.2527 449.6C74.9427 450.58 76.4427 451.989 77.7827 453.429C88.9027 465.409 99.9727 477.439 111.063 489.439C111.293 489.689 111.643 489.84 112.403 490.34C112.713 489.079 113.073 488.009 113.233 486.899C114.583 477.559 115.823 468.199 117.293 458.879C117.653 456.599 118.583 454.339 119.593 452.239C120.593 450.149 122.483 448.909 124.883 449.039C127.523 449.179 129.413 450.77 130.043 453.21C130.763 455.99 131.173 458.919 131.263 461.789C131.443 467.399 131.313 473.009 131.313 479.159C132.413 478.469 133.453 477.989 134.283 477.269C155.693 458.709 177.073 440.119 198.463 421.559C199.553 420.609 200.633 419.449 201.933 418.999C203.123 418.579 205.163 418.449 205.813 419.149C206.713 420.109 207.143 422.059 206.883 423.409C206.593 424.899 205.453 426.339 204.383 427.529C201.343 430.899 198.273 434.249 194.993 437.389C178.973 452.699 162.913 467.959 146.783 483.159C141.793 487.859 136.563 492.309 130.813 497.429C132.773 497.689 134.093 497.969 135.413 498.039C163.893 499.459 192.373 500.689 220.843 502.319C248.393 503.889 275.923 505.869 303.463 507.689C305.273 507.809 307.083 508.389 308.863 508.279C310.453 508.179 312.003 507.409 314.363 506.689C312.763 504.669 311.903 503.339 310.803 502.239C298.363 489.769 285.923 477.299 273.403 464.899C267.593 459.149 261.623 453.57 255.773 447.86C254.483 446.6 253.103 445.27 252.333 443.699C251.783 442.59 251.653 440.589 252.313 439.749C253.153 438.669 255.163 437.589 256.323 437.879C258.693 438.479 261.133 439.65 263.023 441.199C272.553 449.049 282.123 456.869 291.273 465.149C299.613 472.699 307.433 480.829 315.493 488.699C316.763 489.939 318.073 491.13 320.023 492.97C332.723 454.37 348.333 417.739 365.663 381.249C363.563 381.149 362.183 381.039 360.793 381.009C338.643 380.639 316.493 380.279 294.343 379.919C291.803 379.879 289.253 379.919 286.713 379.809C285.273 379.749 283.793 379.659 282.423 379.249C278.723 378.139 276.493 375.009 276.733 371.569C276.993 367.879 279.873 364.839 283.903 364.669C287.333 364.519 290.803 364.799 294.213 365.22C305.303 366.57 350.313 367.619 360.563 366.649C360.643 366.489 360.763 366.339 360.803 366.159C360.833 366.009 360.843 365.779 360.753 365.689C324.943 326.879 289.123 288.079 252.673 248.59C252.533 250.49 252.323 251.639 252.393 252.769C253.563 272.349 254.773 291.919 255.933 311.499C256.043 313.289 256.113 315.159 255.753 316.899C255.063 320.199 252.473 322.329 249.303 322.629C245.923 322.949 242.653 321.149 241.633 317.789C240.913 315.409 240.763 312.799 240.683 310.279C240.063 291.039 239.523 271.789 238.933 252.549C238.863 250.209 238.603 247.88 238.383 244.829C236.713 245.96 235.543 246.64 234.483 247.48C229.513 251.45 224.633 255.519 219.613 259.419C217.913 260.739 216.003 261.909 214.023 262.739C210.683 264.139 207.293 263.249 205.053 260.779C202.743 258.229 202.263 254.339 204.273 251.169C205.523 249.209 207.153 247.41 208.893 245.86C214.163 241.13 219.573 236.549 224.923 231.919C226.273 230.749 227.633 229.569 229.953 227.559C226.283 227.069 223.593 226.649 220.873 226.369C206.613 224.899 192.333 223.499 178.073 222.009C175.913 221.779 173.763 221.329 171.663 220.769C168.313 219.859 166.423 217.999 166.703 215.809C167.083 212.789 169.393 211.569 172.003 211.129C175.033 210.619 178.153 210.059 181.183 210.239C192.053 210.899 202.903 211.86 213.763 212.72C215.373 212.85 216.983 213.029 219.973 213.309C208.913 201.149 198.503 189.979 187.783 178.679C185.923 179.149 184.043 179.7 182.123 180.09C169.083 182.78 156.083 173.339 154.613 160.139C153.163 147.129 163.463 134.539 176.373 134.559C195.163 134.599 206.203 151.449 198.803 167.409C198.423 168.229 198.013 169.029 197.333 170.429C208.323 181.869 219.403 193.4 231.353 205.85C231.803 198.72 232.183 192.989 232.533 187.259C233.023 179.099 233.453 170.939 234.013 162.789C234.163 160.629 234.433 158.42 235.053 156.36C236.043 153.09 238.943 151.099 241.963 151.179C244.973 151.269 247.803 153.439 248.633 156.689C249.073 158.409 249.103 160.29 249.043 162.079C248.443 178.049 247.773 194.01 247.133 209.98C247.103 210.84 247.133 211.709 247.133 213.319C248.913 212.099 250.223 211.27 251.463 210.35C258.583 205.02 265.623 199.579 272.833 194.369C274.853 192.909 277.283 191.949 279.643 191.079C281.883 190.249 283.993 190.989 285.533 192.799C287.093 194.619 287.363 196.819 286.223 198.909C285.193 200.799 284.023 202.699 282.553 204.259C279.323 207.699 275.873 210.929 272.513 214.239C271.263 215.469 270.033 216.72 268.023 218.73C271.093 219.02 273.163 219.269 275.243 219.399C289.013 220.239 302.803 220.939 316.563 221.909C330.503 222.889 344.433 224.139 358.363 225.279C359.083 225.339 359.823 225.349 360.523 225.519C362.433 225.979 364.213 227.02 363.863 229.11C363.633 230.45 362.353 232.109 361.113 232.649C359.183 233.489 356.893 233.74 354.743 233.829C350.393 234.009 346.023 234.029 341.673 233.919C319.343 233.359 297.013 232.78 274.683 232.11C268.523 231.92 262.383 231.389 255.073 230.939C256.653 232.839 257.663 234.159 258.773 235.389C290.693 270.929 322.653 306.429 354.523 342.009C360.823 349.039 366.763 356.39 372.863 363.6C374.253 365.24 375.373 367.379 378.813 366.119C379.003 364.169 379.423 361.88 379.423 359.6C379.443 343.26 379.443 326.909 379.323 310.569C379.263 301.49 378.963 292.409 378.813 283.329C378.793 281.889 378.653 280.249 379.263 279.059C379.933 277.759 381.313 276.179 382.563 275.999C383.813 275.809 385.853 276.85 386.563 277.97C387.673 279.73 388.343 281.98 388.543 284.09C389.733 296.56 391.073 309.029 391.693 321.529C392.263 332.949 391.973 344.41 392.083 355.85C392.103 357.43 392.223 359.009 392.323 361.029C410.903 352.709 428.903 344.229 447.243 336.559C465.603 328.879 484.313 322.019 503.303 314.629C502.283 313.449 501.443 312.369 500.493 311.389C484.733 295.059 468.953 278.739 453.183 262.419C451.923 261.109 450.733 259.709 449.353 258.549C443.443 253.559 444.613 247.929 447.473 245.319C451.123 241.969 455.973 243.059 460.543 248.309C465.673 254.199 470.563 260.3 475.913 265.98C486.253 276.95 496.823 287.689 507.333 298.509C508.293 299.499 509.443 300.309 510.733 301.389C513.063 248.089 515.373 195.229 517.723 141.439C516.183 142.549 515.273 142.989 514.663 143.679C501.533 158.489 488.443 173.339 475.323 188.169C474.253 189.379 473.113 190.619 471.793 191.519C468.933 193.479 465.113 193.219 462.673 191.139C460.213 189.039 459.253 185.279 460.853 182.199C461.833 180.309 463.363 178.66 464.833 177.079C478.853 162.089 492.913 147.139 506.943 132.159C507.903 131.139 508.683 129.959 510.073 128.169C507.083 127.819 504.813 127.549 502.533 127.289C496.763 126.619 490.993 125.969 485.223 125.289C484.503 125.209 483.783 125.099 483.073 124.929C477.843 123.659 474.923 120.299 475.263 115.949C475.613 111.559 478.973 108.469 484.373 108.449C490.713 108.429 497.063 108.939 503.403 109.309C507.363 109.539 511.323 109.92 516.673 110.34C514.403 107.52 512.903 105.609 511.353 103.739C503.703 94.5094 495.983 85.3395 488.403 76.0595C485.763 72.8295 483.393 69.3795 480.993 65.9695C480.173 64.7995 479.263 63.4694 479.083 62.1194C478.893 60.6394 478.973 58.4194 479.873 57.6595C481.013 56.6995 483.253 56.3595 484.783 56.7295C486.623 57.1795 488.423 58.4294 489.863 59.7494C493.213 62.8094 496.513 65.9395 499.493 69.3495C504.873 75.4995 510.003 81.8694 515.243 88.1394C516.273 89.3794 517.343 90.5794 518.463 91.8794C519.993 88.2994 521.463 58.3394 520.793 45.9994C507.233 36.4994 503.053 27.1795 507.213 15.6595C510.643 6.15945 521.163 -0.490569 531.433 0.889431C544.863 2.69943 549.563 10.3494 551.813 21.7394C553.983 32.6794 547.493 41.2595 533.723 47.0895C533.383 62.7995 533.053 78.6594 532.683 95.7594C534.973 93.8894 536.333 92.8395 537.623 91.6995C547.013 83.4095 556.383 75.0795 565.793 66.7995C567.143 65.6095 568.593 64.4495 570.173 63.6095C573.193 62.0095 576.613 62.5495 578.733 64.6995C580.983 66.9695 581.403 70.7594 579.463 73.7494C578.493 75.2494 577.153 76.5394 575.843 77.7694C563.673 89.1994 551.483 100.59 538.903 112.36C540.163 112.64 541.243 112.959 542.333 113.119C551.673 114.479 561.013 115.789 570.353 117.169C571.773 117.379 573.193 117.799 574.553 118.289C578.683 119.779 580.673 122.229 580.293 125.199C579.933 128.009 577.703 130.029 573.633 130.569C570.043 131.039 566.403 131.139 562.783 131.239C558.683 131.349 554.583 131.259 549.973 131.259C550.913 132.529 551.653 133.689 552.543 134.71C571.103 156.109 589.693 177.499 608.253 198.899C611.193 202.289 611.693 204.329 610.193 206.019C608.543 207.879 605.803 207.649 602.463 204.779C598.613 201.469 594.913 197.959 591.403 194.289C576.083 178.279 560.823 162.21 545.613 146.1C542.003 142.27 538.633 138.22 535.203 134.22C534.293 133.16 533.583 131.939 532.773 130.799C532.393 131.019 532.013 131.239 531.633 131.449C531.523 132.27 531.353 133.079 531.313 133.899C528.723 182.679 526.193 231.469 523.533 280.249C523.033 289.489 522.053 298.709 521.213 307.939C521.003 310.209 520.703 312.35 524.033 313.59C527.513 310.38 531.363 307.099 534.883 303.509C549.763 288.339 564.533 273.07 579.373 257.85C581.143 256.03 582.973 254.259 584.923 252.629C586.403 251.389 588.443 250.689 589.833 252.289C590.863 253.469 591.673 255.619 591.333 257.029C590.803 259.219 589.483 261.389 588.013 263.159C580.253 272.519 572.563 281.97 564.403 290.98C556.723 299.45 548.463 307.4 540.473 315.579C539.343 316.74 538.243 317.93 536.783 319.47C555.833 326.73 574.673 333.49 593.163 341.079C611.573 348.629 629.643 357.009 648.343 365.239C648.343 363.249 648.373 361.659 648.343 360.069C647.873 337.539 648.033 315.029 649.563 292.539C649.723 290.189 649.523 287.82 649.633 285.47C649.873 280.17 653.003 276.61 657.323 276.6C661.903 276.59 665.173 280.449 664.873 286.019C664.273 297.259 663.203 308.48 662.813 319.73C662.373 332.61 662.453 345.519 662.333 358.409C662.333 359.099 662.483 359.79 662.543 360.35C662.893 360.55 663.033 360.69 663.203 360.72C663.363 360.75 663.603 360.719 663.713 360.619C702.183 325.199 740.653 289.77 779.103 254.329C779.463 253.999 779.633 253.479 780.073 252.769C775.543 252.769 771.293 252.599 767.063 252.799C754.733 253.379 742.403 254.079 730.073 254.799C726.453 255.009 722.843 255.449 719.223 255.759C717.773 255.879 716.323 256.02 714.873 255.98C710.063 255.82 706.953 253.079 706.723 248.919C706.493 244.799 709.273 241.599 713.943 240.819C715.363 240.579 716.843 240.65 718.293 240.6C738.623 239.94 758.953 239.29 779.283 238.61C780.833 238.56 782.373 238.31 784.593 238.09C783.233 236.25 782.333 234.969 781.353 233.749C777.823 229.359 774.243 225.02 770.743 220.61C769.513 219.05 768.333 217.399 767.383 215.659C765.113 211.459 765.723 207.379 768.813 204.779C771.883 202.199 776.293 202.129 779.773 205.269C783.393 208.549 786.623 212.269 789.883 215.929C793.713 220.239 797.383 224.679 801.953 230.049C802.333 226.949 802.593 225.059 802.793 223.159C804.543 206.919 806.243 190.669 808.053 174.439C808.253 172.669 808.753 170.819 809.583 169.259C811.503 165.659 815.443 165.569 817.153 169.279C818.333 171.829 819.043 174.869 818.973 177.669C818.703 187.099 818.033 196.519 817.433 205.929C817.163 210.189 816.673 214.429 816.153 220.049C828.353 208.669 839.563 198.209 850.593 187.909C847.263 172.189 851.013 162.059 861.863 156.679C870.893 152.199 882.973 154.859 889.593 162.789C896.633 171.219 896.753 182.259 889.903 192.009C883.433 201.219 873.083 203.11 858.723 197.48C847.413 208.37 835.973 219.369 823.753 231.129C826.293 231.429 827.653 231.659 829.013 231.739C841.883 232.519 854.753 233.249 867.623 234.069C869.593 234.199 871.623 234.509 873.473 235.159C876.543 236.259 878.183 238.85 878.133 241.829C878.083 244.82 876.393 247.339 873.253 248.319C871.393 248.899 869.333 249.089 867.373 249.019C852.493 248.499 837.613 247.869 822.733 247.299C820.783 247.229 818.833 247.289 816.283 247.289C817.283 248.789 817.983 249.969 818.803 251.059C823.943 257.869 829.193 264.609 834.223 271.489C835.813 273.659 837.023 276.159 838.123 278.629C839.163 280.959 838.823 283.319 836.923 285.169C834.803 287.219 832.243 287.099 829.843 285.869C828.093 284.969 826.433 283.739 825.013 282.379C821.483 278.979 818.123 275.409 814.683 271.909C813.583 270.799 812.453 269.709 810.613 267.899C810.193 273.989 809.863 279.149 809.483 284.309C807.683 308.939 805.873 333.569 804.063 358.199C803.993 359.099 804.123 360.18 803.673 360.86C802.943 361.98 801.833 363.619 800.873 363.629C799.553 363.649 797.943 362.589 796.973 361.529C796.223 360.709 796.043 359.179 795.983 357.939C795.723 352.509 795.363 347.059 795.483 341.629C795.923 321.659 796.513 301.69 797.123 281.72C797.383 273.21 797.853 264.699 798.273 255.039C796.443 256.619 795.173 257.669 793.943 258.769C755.383 293.299 716.843 327.85 678.253 362.36C674.063 366.11 669.623 369.59 665.323 373.22C663.343 374.89 663.373 374.919 663.263 378.949C668.593 379.21 673.963 379.719 679.323 379.669C700.023 379.489 720.733 379.12 741.433 378.829C743.433 378.799 745.433 378.759 747.423 378.829C751.423 378.97 753.453 380.27 753.623 382.73C753.793 385.1 752.023 387.099 748.243 387.869C743.803 388.769 739.293 389.309 734.783 389.799C713.803 392.099 692.733 392.259 671.663 392.049C670.763 392.049 669.873 392.129 669.103 392.169C668.893 392.489 668.773 392.609 668.713 392.759C668.643 392.919 668.563 393.119 668.593 393.279C668.713 393.809 668.813 394.359 669.053 394.829C686.693 429.879 701.143 466.279 714.413 503.179C714.903 503.469 715.403 503.769 715.893 504.059C716.893 502.539 717.653 500.789 718.933 499.549C734.683 484.229 750.503 468.99 766.303 453.72C768.003 452.079 769.633 450.369 771.383 448.789C772.583 447.699 773.823 446.549 775.243 445.84C778.353 444.29 782.073 445.119 784.203 447.569C786.433 450.129 786.823 453.709 784.683 456.619C783.203 458.629 781.243 460.349 779.293 461.949C761.443 476.62 745.113 492.909 728.893 509.309C728.643 509.559 728.473 509.9 727.993 510.6C729.103 510.85 730.023 511.209 730.963 511.239C761.083 512.459 791.203 513.64 821.323 514.859C842.013 515.69 862.693 516.579 883.383 517.429C884.613 517.479 885.853 517.429 887.993 517.429C886.893 516.029 886.393 515.169 885.693 514.549C870.873 501.419 856.033 488.329 841.203 475.21C840.253 474.37 839.253 473.549 838.473 472.569C835.903 469.349 835.863 465.4 838.273 462.579C840.833 459.59 844.973 459.099 848.623 461.509C849.973 462.399 851.123 463.6 852.313 464.72C867.293 478.75 882.253 492.799 897.233 506.829C898.263 507.799 899.433 508.619 901.043 509.919C901.373 508.029 901.683 506.69 901.833 505.34C902.593 498.669 903.233 491.979 904.093 485.319C904.343 483.369 904.893 481.37 905.763 479.61C907.243 476.6 909.883 475.039 913.283 475.129C916.543 475.219 919.573 477.489 920.403 480.919C921.033 483.519 921.213 486.319 921.083 488.999C920.783 495.349 920.173 501.679 919.693 508.019C919.513 510.359 919.363 512.689 919.183 515.309C921.943 515.119 923.283 513.25 924.853 511.949C934.393 504.099 943.833 496.139 953.383 488.309C956.473 485.779 959.753 483.49 963.023 481.199C964.343 480.279 965.813 479.43 967.343 478.949C971.203 477.729 973.973 480.299 972.823 484.22C972.233 486.24 971.053 488.259 969.633 489.819C966.333 493.429 962.903 496.959 959.213 500.169C952.103 506.359 944.783 512.309 937.483 518.409C940.583 519.849 969.193 521.239 983.623 520.689C984.433 519.369 985.323 517.829 986.303 516.349C992.883 506.459 1005.83 502.899 1016.1 508.129C1026.31 513.329 1031.12 526.009 1027.24 537.049C1023.96 546.359 1015.13 551.259 1005.12 551.999C996.493 552.639 988.013 546.819 984.403 538.649C983.753 537.169 983.223 535.629 982.483 533.719C966.603 533.339 950.723 532.959 933.883 532.559C935.233 534.409 935.943 535.569 936.833 536.579C945.363 546.249 953.943 555.869 962.463 565.559C963.773 567.049 965.063 568.649 965.943 570.399C967.463 573.439 966.723 576.869 964.473 578.909C962.193 580.959 958.763 581.319 955.873 579.519C954.363 578.579 953.023 577.279 951.803 575.959C940.923 564.249 930.093 552.509 919.233 540.769C918.753 540.249 918.223 539.789 917.103 538.729C916.683 540.57 916.313 541.829 916.133 543.099C914.993 551.37 914.023 559.669 912.723 567.919C912.253 570.929 911.253 573.909 910.093 576.739C909.143 579.059 907.103 580.479 904.463 580.249C901.853 580.019 899.973 578.389 899.433 575.909C898.773 572.929 898.423 569.829 898.333 566.769C898.163 561.379 898.283 555.989 898.283 549.939C896.953 550.849 895.913 551.409 895.043 552.159C873.633 570.719 852.253 589.299 830.853 607.859C829.763 608.81 828.663 609.9 827.373 610.42C826.343 610.83 824.593 610.919 823.893 610.309C822.983 609.509 822.213 607.77 822.443 606.64C822.783 604.96 823.803 603.259 824.973 601.949C828.233 598.289 831.583 594.699 835.123 591.319C850.083 577.009 865.093 562.739 880.153 548.529C884.903 544.049 889.893 539.809 894.763 535.449C895.913 534.419 897.013 533.329 898.863 531.579C892.853 531.219 887.863 530.889 882.863 530.629C848.593 528.829 814.313 527.139 780.053 525.229C762.473 524.25 744.913 522.889 727.343 521.679C725.173 521.529 723.003 521.289 720.853 520.949C718.613 520.589 716.943 521.169 715.773 523.889C719.053 527.429 722.333 531.289 725.933 534.819C740.973 549.579 756.103 564.229 771.193 578.929C772.883 580.579 774.573 582.229 776.163 583.969C777.733 585.689 778.563 587.67 777.153 589.9C775.983 591.75 773.363 592.389 770.803 590.799C766.963 588.429 763.303 585.7 759.773 582.87C743.733 570.01 728.953 555.769 714.563 541.119C713.183 539.719 711.773 538.349 709.993 536.569C702.703 555.659 695.983 574.339 688.453 592.689C680.893 611.119 672.543 629.22 664.333 647.92C665.893 648.04 667.243 648.229 668.583 648.249C691.093 648.639 713.613 649.01 736.123 649.39C738.303 649.43 740.483 649.329 742.653 649.489C744.443 649.619 746.313 649.77 747.963 650.38C751.323 651.63 753.063 654.75 752.673 658.14C752.283 661.49 749.843 664.309 746.263 664.499C742.303 664.709 738.293 664.289 734.323 663.979C712.753 662.299 691.153 662.06 669.533 662.38C669.253 662.38 668.973 662.71 668.673 662.91C704.513 702.04 740.343 741.169 776.173 780.289L777.233 779.62L777.133 779.539ZM515.983 327.149C514.533 327.599 513.313 327.95 512.113 328.35C485.913 337.05 460.343 347.359 435.103 358.509C419.333 365.469 403.573 372.479 387.663 379.079C384.353 380.449 382.293 382.189 380.773 385.299C368.373 410.579 357.323 436.43 347.193 462.699C340.993 478.779 334.453 494.739 328.213 510.799C327.623 512.309 327.703 514.339 328.153 515.939C329.533 520.829 331.093 525.679 332.873 530.429C342.403 555.939 352.603 581.179 363.873 605.979C369.503 618.369 374.723 630.939 379.913 643.519C380.863 645.819 382.393 646.95 384.393 647.87C402.063 655.909 419.543 664.399 437.463 671.849C459.233 680.909 481.563 688.66 503.263 697.89C510.683 701.049 516.863 701.469 524.313 698.689C552.203 688.279 579.843 677.289 606.953 664.959C618.673 659.629 630.523 654.539 642.463 649.719C645.273 648.579 646.983 647.109 648.163 644.509C655.743 627.819 663.843 611.349 670.863 594.439C679.773 572.989 687.933 551.219 696.153 529.489C698.033 524.509 702.483 520.129 701.533 514.509C700.633 509.199 698.333 504.129 696.643 498.949C696.583 498.779 696.513 498.609 696.443 498.439C686.113 470.899 674.943 443.699 662.693 416.949C658.233 407.219 654.023 397.369 650.083 387.409C648.853 384.309 647.403 382.199 644.293 380.84C622.193 371.169 600.273 361.059 578.043 351.689C558.323 343.379 538.273 335.84 518.363 327.96C517.533 327.63 516.683 327.369 515.993 327.129L515.983 327.149ZM24.3628 487.799C18.5428 487.849 13.5627 493.399 13.6327 499.759C13.7027 505.999 19.2328 511.439 25.5728 511.519C31.9228 511.599 37.4327 506.06 37.2927 499.73C37.1427 492.99 31.4528 487.739 24.3628 487.789V487.799ZM861.653 871.219C861.513 864.139 856.443 859.049 849.693 859.229C843.163 859.399 838.383 864.559 838.473 871.339C838.553 877.459 843.673 883.25 848.893 883.14C856.373 882.98 861.773 877.929 861.643 871.219H861.653ZM1004.56 541.309C1010.48 541.399 1015.53 536.139 1015.65 529.779C1015.77 523.339 1010.06 517.579 1003.6 517.609C997.343 517.64 992.223 522.729 992.143 528.999C992.053 535.909 997.393 541.199 1004.56 541.299V541.309ZM499.873 1015.51C506.173 1015.43 511.503 1010.03 511.583 1003.64C511.653 997.15 506.363 991.949 499.803 992.079C492.993 992.209 487.733 997.85 487.823 1004.9C487.903 1010.8 493.343 1015.6 499.873 1015.52V1015.51ZM883.193 180.369C883.133 173.019 877.923 167.35 871.343 167.48C864.393 167.63 859.103 172.87 859.253 179.47C859.403 185.94 864.673 190.859 871.363 190.779C877.443 190.699 883.233 185.609 883.193 180.369ZM157.753 861.63C164.643 861.62 170.213 856.35 170.153 849.9C170.093 843.48 164.863 838.44 158.193 838.39C152.003 838.35 146.273 843.209 146.223 848.549C146.143 856.009 151.113 861.64 157.753 861.63ZM179.043 169.929C185.523 170.049 190.713 165.029 190.963 158.389C191.183 152.619 186.003 146.179 181.003 145.999C173.813 145.749 167.723 150.88 167.543 157.34C167.343 164.23 172.453 169.809 179.053 169.929H179.043ZM541.373 24.5895C541.423 18.5495 536.323 13.7094 529.803 13.6194C523.233 13.5294 517.773 19.0295 517.823 25.6895C517.873 32.0595 522.843 37.0595 529.163 37.0995C536.033 37.1495 541.303 31.7495 541.363 24.5895H541.373Z" fill="white"/>
<path d="M354.023 511.9C354.893 509.38 355.563 506.93 356.573 504.64C365.613 484.23 374.823 463.89 383.773 443.44C389.233 430.97 394.463 418.399 399.483 405.749C401.443 400.799 404.543 397.72 409.503 395.84C431.903 387.37 454.263 378.79 476.573 370.08C487.723 365.73 498.823 361.199 509.773 356.369C514.813 354.149 519.353 354.01 524.373 356.28C545.873 366 567.413 375.62 589.013 385.1C600.313 390.06 611.683 394.87 623.193 399.31C628.383 401.31 631.563 404.53 633.503 409.64C641.843 431.71 650.273 453.75 658.843 475.73C663.193 486.89 667.623 498.03 672.543 508.95C675.063 514.54 675.193 519.47 672.653 525.04C663.313 545.52 654.153 566.079 645.113 586.689C639.793 598.819 634.653 611.04 629.813 623.37C627.853 628.36 624.753 631.43 619.823 633.3C597.423 641.78 575.053 650.34 552.743 659.04C541.753 663.32 530.803 667.72 520.043 672.55C514.633 674.98 509.853 675.12 504.453 672.67C482.643 662.77 460.743 653.049 438.813 643.429C427.853 638.619 416.793 634.01 405.643 629.64C400.853 627.77 397.853 624.77 396.053 620.02C387.473 597.46 378.853 574.91 370.073 552.43C365.653 541.11 360.823 529.94 356.253 518.67C355.373 516.52 354.793 514.24 354.033 511.9H354.023ZM664.023 515.76C663.623 514.73 663.323 513.87 662.963 513.04C660.373 507.04 657.753 501.06 655.183 495.06C643.543 467.88 630.603 441.22 622.313 412.71C621.593 410.25 620.053 409.23 617.943 408.41C609.493 405.12 601.053 401.78 592.623 398.44C567.663 388.55 542.373 379.44 518.753 366.46C516.273 365.1 514.333 365.75 512.113 366.73C501.643 371.32 491.133 375.8 480.663 380.39C458.393 390.14 436.213 400.14 412.803 406.94C410.003 407.75 409.193 409.62 408.323 411.82C404.263 422.12 400.193 432.41 396.153 442.71C387.133 465.68 378.503 488.829 366.523 510.499C365.143 512.99 365.843 514.94 366.813 517.14C371.323 527.45 375.763 537.78 380.273 548.09C390.073 570.54 400.233 592.859 407.043 616.469C407.753 618.949 409.333 619.929 411.453 620.739C417.213 622.949 422.953 625.21 428.673 627.509C456.253 638.629 484.463 648.319 510.633 662.709C512.863 663.939 514.663 663.58 516.763 662.64C522.553 660.04 528.393 657.54 534.233 655.05C561.423 643.45 588.083 630.53 616.563 622.17C618.753 621.53 619.893 620.34 620.653 618.32C622.923 612.39 625.273 606.49 627.643 600.6C638.813 572.83 648.583 544.469 663.053 518.119C663.483 517.339 663.753 516.48 664.053 515.76H664.023Z" fill="white"/>
<path d="M399.923 513.6C400.653 511.08 401.043 508.92 401.883 506.95C411.543 484.24 421.293 461.57 430.963 438.86C432.913 434.28 435.953 431.05 440.653 429.18C463.073 420.27 485.473 411.299 507.833 402.239C513.373 399.999 518.523 400 524.103 402.43C544.393 411.27 564.813 419.809 585.173 428.489C587.173 429.339 589.103 430.38 591.103 431.23C595.343 433.02 598.193 436.01 599.913 440.33C608.913 462.92 617.963 485.489 627.113 508.009C629.293 513.369 629.273 518.389 626.943 523.739C617.773 544.879 608.673 566.06 599.843 587.34C596.923 594.37 592.353 598.719 585.183 601.459C565.873 608.839 546.783 616.82 527.603 624.55C526.093 625.16 524.493 625.59 523.033 626.31C516.343 629.61 510.003 628.939 503.213 625.939C482.813 616.899 462.273 608.17 441.663 599.62C434.813 596.78 430.533 592.31 427.853 585.36C420.213 565.55 412.043 545.95 404.193 526.23C402.523 522.04 401.293 517.68 399.933 513.59L399.923 513.6ZM620.163 517.11C619.703 515.85 619.353 514.82 618.943 513.82C617.583 510.45 616.223 507.09 614.843 503.73C607.083 484.95 598.233 466.589 592.913 446.879C591.923 443.209 590.133 441.149 586.593 439.639C564.063 430.069 540.763 422.23 519.373 410.05C518.203 409.38 516.193 409.539 514.803 409.999C511.193 411.209 507.723 412.81 504.193 414.23C487.863 420.79 471.563 427.399 455.203 433.869C450.843 435.589 445.303 435.77 442.153 438.67C438.983 441.59 438.083 447 436.223 451.33C429.293 467.51 422.423 483.72 415.413 499.86C413.613 504 409.843 507.89 409.723 511.98C409.583 516.31 412.643 520.779 414.423 525.129C422.493 544.759 431.653 563.98 437.173 584.58C437.763 586.8 439.003 587.909 441.003 588.689C444.893 590.209 448.723 591.869 452.563 593.499C468.243 600.189 483.953 606.84 499.593 613.63C503.893 615.5 507.973 619.349 512.233 619.459C516.743 619.579 521.353 616.37 525.893 614.55C542.063 608.09 558.213 601.57 574.413 595.17C578.773 593.45 584.293 593.189 587.423 590.269C590.583 587.319 591.483 581.92 593.283 577.56C601.313 558.11 608.433 538.249 618.953 519.899C619.483 518.979 619.823 517.95 620.203 517.1L620.163 517.11Z" fill="white"/>
<path d="M516.723 442.009C517.683 442.289 518.913 442.579 520.093 443.009C535.613 448.689 550.653 455.459 565.123 463.449C566.733 464.339 568.233 466.019 569.013 467.699C576.033 482.659 581.823 498.109 586.493 513.969C587.013 515.739 586.873 517.999 586.243 519.759C580.603 535.499 573.683 550.669 565.633 565.319C564.763 566.909 562.933 568.279 561.243 569.069C546.263 576.049 530.813 581.819 514.973 586.509C513.513 586.939 511.653 586.939 510.233 586.429C494.153 580.689 478.633 573.659 463.693 565.399C462.253 564.599 461.013 562.939 460.293 561.399C453.193 546.269 447.323 530.659 442.693 514.599C442.233 513.019 442.473 510.979 443.043 509.389C448.733 493.669 455.613 478.479 463.663 463.829C464.393 462.499 465.723 461.219 467.083 460.569C482.493 453.199 498.503 447.389 514.823 442.409C515.343 442.249 515.883 442.189 516.713 442.019L516.723 442.009ZM579.673 516.029C579.203 514.519 578.853 513.109 578.323 511.759C573.423 499.069 568.413 486.419 563.623 473.689C562.513 470.749 560.823 468.849 557.963 467.609C545.483 462.199 533.023 456.759 520.643 451.129C517.593 449.749 514.903 449.579 511.823 450.809C499.183 455.829 486.533 460.829 473.803 465.619C470.843 466.729 468.953 468.389 467.713 471.249C462.233 483.899 456.693 496.529 451.023 509.089C449.813 511.759 449.623 514.119 450.703 516.849C455.783 529.659 460.833 542.489 465.683 555.399C466.793 558.349 468.453 560.269 471.303 561.509C483.943 566.999 496.573 572.529 509.143 578.179C511.813 579.379 514.183 579.559 516.933 578.469C529.743 573.389 542.583 568.379 555.483 563.549C558.443 562.439 560.363 560.759 561.593 557.919C567.303 544.779 573.103 531.669 578.843 518.539C579.203 517.719 579.403 516.839 579.663 516.029H579.673Z" fill="white"/>
<path d="M470.683 519.57C468.243 520 466.133 520.6 464.003 520.7C460.663 520.85 459.193 518.99 460.383 515.85C461.403 513.17 462.923 510.63 464.483 508.21C466.843 504.55 469.353 500.979 471.953 497.499C474.553 494.019 477.353 490.69 480.253 487.05C478.763 486.11 477.393 485.28 476.053 484.41C474.333 483.3 472.323 481.919 473.073 479.769C473.563 478.359 475.393 476.97 476.923 476.46C480.523 475.26 484.253 474.379 488.003 473.749C494.963 472.589 501.973 471.69 509.683 470.58C509.323 468.96 508.663 467.289 508.663 465.629C508.663 463.949 508.773 461.609 509.823 460.769C510.823 459.959 513.403 460.11 514.723 460.85C519.613 463.61 524.373 466.63 528.963 469.86C533.393 472.98 537.563 476.48 542.153 480.06C543.333 478.29 544.373 476.43 545.713 474.8C548.193 471.78 550.953 472.019 552.333 475.649C553.673 479.179 554.583 482.93 555.233 486.67C556.533 494.14 557.533 501.67 558.723 509.58C560.533 509.2 562.223 508.739 563.943 508.519C568.803 507.879 570.653 510.15 568.483 514.48C566.623 518.2 564.383 521.759 561.983 525.149C558.003 530.77 553.753 536.199 549.293 542.129C550.823 543.149 552.623 544.18 554.243 545.45C557.503 548.02 557.213 550.92 553.293 552.36C549.743 553.67 546.003 554.609 542.263 555.239C536.013 556.299 529.693 556.97 523.413 557.82C522.213 557.98 521.023 558.239 519.603 558.499C520.043 560.589 520.513 562.31 520.753 564.07C521.363 568.54 519.113 570.43 515.103 568.56C511.993 567.11 508.993 565.33 506.193 563.35C499.833 558.85 493.633 554.129 487.033 549.249C486.203 550.539 485.463 552.169 484.293 553.369C483.113 554.579 481.423 556.22 480.093 556.1C478.823 555.99 477.153 554.04 476.683 552.57C475.353 548.44 474.333 544.18 473.603 539.91C472.473 533.31 471.683 526.66 470.683 519.58V519.57ZM486.613 481.04C489.693 486.46 489.673 487.629 486.213 492.119C484.113 494.849 481.783 497.41 479.613 500.09C476.803 503.57 474.053 507.1 471.113 510.81C477.023 512.35 477.883 513.24 478.683 518.48C478.933 520.09 478.963 521.73 479.123 523.36C479.763 529.66 480.403 535.96 481.173 543.45C485.913 537.89 489.503 540.809 493.043 543.629C495.593 545.669 498.023 547.86 500.563 549.91C503.913 552.62 507.323 555.25 511.353 558.42C511.183 552.63 514.213 550.95 518.503 550.59C521.213 550.36 523.933 550.17 526.623 549.81C531.873 549.1 537.293 549.36 542.803 547.41C539.223 543.77 540.163 540.55 542.743 537.41C545.283 534.33 547.873 531.29 550.373 528.18C552.953 524.98 555.453 521.72 558.133 518.31C552.133 516.77 551.453 516.1 550.733 510.67C550.283 507.26 550.083 503.809 549.713 500.379C549.233 495.939 548.703 491.499 548.173 486.869C542.163 489.579 541.413 489.519 536.443 485.619C533.733 483.489 531.173 481.169 528.493 478.999C525.303 476.419 522.053 473.909 518.693 471.269C516.493 477.249 516.083 477.66 510.553 478.55C508.413 478.9 506.223 478.94 504.053 479.17C498.303 479.77 492.563 480.39 486.593 481.03L486.613 481.04Z" fill="white"/>
<path d="M514.583 486.419C526.753 485.119 543.053 496.709 543.083 515.019C543.103 527.269 531.983 542.689 514.753 542.929C501.213 543.119 486.643 530.599 486.243 515.189C485.913 502.179 497.733 485.539 514.573 486.419H514.583Z" fill="white"/>
</svg>
