<svg width="1061" height="1061" viewBox="0 0 1061 1061" fill="none" xmlns="http://www.w3.org/2000/svg">
<path d="M729.883 709.519C732.373 709.349 734.853 709.229 737.333 708.999C756.323 707.279 775.303 705.559 794.283 703.819C801.513 703.159 808.743 702.439 815.973 701.769C819.243 701.469 822.513 701.159 825.493 703.049C829.783 705.769 830.183 710.339 825.983 713.209C824.003 714.569 821.343 715.379 818.923 715.589C795.593 717.62 772.243 719.43 748.913 721.39C744.063 721.799 739.243 722.569 733.813 723.239C734.603 724.499 734.933 725.289 735.483 725.88C742.813 733.7 750.243 741.419 757.483 749.319C759.433 751.449 761.363 752.019 764.183 751.569C788.553 747.669 812.933 743.819 837.353 740.209C840.823 739.699 844.553 740.32 848.073 740.9C850.293 741.26 851.883 742.97 852.243 745.41C852.623 748.08 851.463 750.239 849.183 751.269C846.413 752.519 843.443 753.569 840.453 754.019C820.533 756.989 800.573 759.77 780.633 762.64C778.123 763 775.633 763.529 772.393 764.109C773.393 765.5 774.033 766.649 774.913 767.589C781.003 774.079 787.213 780.459 793.213 787.029C795.233 789.239 797.293 790.14 800.333 789.859C811.003 788.87 821.683 788.059 832.373 787.319C837.443 786.969 842.533 786.909 847.613 786.809C850.813 786.739 853.683 787.709 856.143 789.829C859.573 792.789 859.563 795.309 856.163 798.449C853.303 801.089 849.813 801.72 846.093 801.88C838.113 802.22 830.133 802.579 822.153 803.069C818.423 803.299 814.713 803.829 810.153 804.309C811.693 806.179 812.613 807.439 813.683 808.569C821.173 816.489 828.763 824.309 836.133 832.329C838.283 834.669 840.433 835.779 843.653 835.549C850.353 835.079 857.073 834.759 863.783 834.749C866.413 834.749 869.223 835.34 871.633 836.39C874.403 837.59 876.183 840.039 875.993 843.339C875.803 846.649 873.703 848.699 870.813 849.699C868.813 850.389 866.573 850.54 864.423 850.64C861.183 850.79 857.933 850.679 853.843 850.679C854.963 852.379 855.683 853.5 856.433 854.599C858.383 857.44 860.493 860.169 862.243 863.12C863.473 865.19 863.073 867.389 861.243 869.069C859.383 870.769 857.163 870.819 855.223 869.429C852.583 867.529 850.113 865.379 847.693 863.199C845.583 861.289 843.643 859.189 840.883 856.429C840.143 860.769 839.653 864.1 838.993 867.4C838.503 869.88 838.023 872.409 837.123 874.759C836.013 877.639 833.733 878.96 831.223 878.64C828.303 878.27 826.693 876.34 826.143 873.67C825.743 871.74 825.623 869.679 825.823 867.719C826.483 861.219 827.183 854.719 828.203 848.279C828.733 844.919 828.073 842.539 825.533 840.079C817.833 832.629 810.433 824.869 802.893 817.259C801.943 816.299 800.833 815.479 799.303 814.179C798.323 821.839 797.573 828.809 796.483 835.729C795.523 841.819 794.293 847.88 792.933 853.89C792.463 855.96 791.573 858.109 790.293 859.779C788.013 862.759 784.403 862.109 783.053 858.589C782.483 857.109 782.273 855.389 782.323 853.799C782.503 848.719 782.843 843.649 783.213 838.579C784.023 827.529 784.853 816.489 785.743 805.439C786.053 801.609 785.183 798.419 782.273 795.62C777.183 790.7 772.373 785.489 767.413 780.429C766.583 779.589 765.603 778.9 764.073 777.63C763.183 785.02 762.493 791.629 761.563 798.209C759.843 810.429 758.063 822.649 756.143 834.839C755.723 837.49 754.823 840.139 753.703 842.589C752.373 845.499 749.983 846.529 747.533 845.789C744.843 844.969 743.773 842.87 743.953 840.339C744.373 834.37 745.053 828.409 745.613 822.449C747.293 804.729 748.853 787.009 750.723 769.309C751.163 765.119 750.043 762.189 747.073 759.219C739.743 751.909 732.773 744.249 725.633 736.749C724.413 735.469 723.113 734.269 721.263 732.459C720.743 734.759 720.303 736.279 720.053 737.829C716.433 760.409 712.913 783.019 709.183 805.579C708.083 812.189 706.433 818.719 704.923 825.259C704.563 826.829 703.943 828.389 703.143 829.789C702.073 831.669 700.333 832.73 698.113 832.14C695.943 831.57 694.813 829.929 694.663 827.739C694.573 826.489 694.673 825.199 694.853 823.949C699.283 793.409 701.933 762.619 708.043 732.319C708.363 730.749 708.403 729.129 708.633 726.979C700.553 725.779 692.693 724.73 684.873 723.41C660.173 719.26 635.493 715.069 610.833 710.709C607.923 710.199 606.333 710.609 604.553 713.14C586.063 739.43 567.423 765.609 548.823 791.829C547.483 793.729 546.143 795.629 544.643 797.739C548.313 800.759 551.673 803.499 554.993 806.279C573.963 822.099 592.943 837.909 611.843 853.809C613.733 855.399 615.373 857.459 616.623 859.599C617.973 861.909 617.933 864.539 616.063 866.739C614.313 868.799 611.793 868.999 609.533 868.299C607.363 867.619 605.193 866.419 603.443 864.949C585.653 849.989 567.963 834.91 550.203 819.92C546.473 816.77 542.563 813.839 538.253 810.439C537.833 811.929 537.383 812.839 537.353 813.769C536.983 824.299 536.773 834.829 536.273 845.349C536.123 848.469 537.303 850.219 539.773 852.009C559.493 866.269 579.103 880.659 598.703 895.099C600.873 896.699 602.893 898.609 604.613 900.689C607.543 904.209 607.873 907.779 605.893 910.109C604.003 912.329 600.753 912.719 596.853 910.759C594.443 909.549 592.193 907.949 590.023 906.329C573.863 894.279 557.753 882.169 541.613 870.099C540.063 868.94 538.383 867.969 536.093 866.479C535.863 871.939 535.633 876.579 535.473 881.229C535.283 886.679 535.363 892.139 534.923 897.559C534.653 900.919 536.123 902.829 538.493 904.859C549.513 914.32 560.423 923.919 571.283 933.569C573.153 935.229 574.963 937.18 576.153 939.349C577.753 942.24 578.783 945.789 576.283 948.539C573.733 951.349 570.153 950.379 567.153 948.999C565.063 948.039 563.233 946.41 561.473 944.88C553.663 938.08 545.933 931.2 538.143 924.39C537.243 923.609 536.143 923.049 534.593 922.029C534.413 924.379 534.193 926.13 534.143 927.88C533.833 938.77 533.663 949.669 533.223 960.559C533.103 963.409 534.053 965.289 536.123 967.13C541.413 971.83 546.533 976.74 551.683 981.599C553.983 983.769 555.673 986.289 555.863 989.599C556.173 995.25 552.273 998.649 546.823 997.029C544.683 996.389 542.733 994.819 540.953 993.349C538.173 991.06 535.603 988.509 532.433 985.599C532.193 987.44 532.013 989.119 531.763 990.779C531.363 993.469 531.113 996.199 530.433 998.819C529.573 1002.12 527.763 1003.57 525.263 1003.55C522.743 1003.53 520.953 1002.03 520.353 998.64C519.823 995.62 519.773 992.509 519.643 989.439C519.533 986.749 519.623 984.059 519.623 980.259C517.343 981.829 515.803 982.909 514.243 983.969C511.243 986.009 508.353 988.249 505.203 990.029C501.933 991.879 499.113 991.44 497.223 989.349C495.173 987.079 495.233 984.119 497.743 980.929C499.193 979.089 500.913 977.409 502.743 975.949C507.563 972.099 512.473 968.349 517.443 964.689C519.353 963.279 520.273 961.689 520.273 959.229C520.273 947.239 520.453 935.249 520.543 923.269C520.543 922.769 520.343 922.269 520.093 921.049C518.433 922.269 517.053 923.279 515.673 924.289C507.183 930.519 498.743 936.799 490.183 942.929C488.143 944.399 485.803 945.539 483.463 946.479C481.383 947.319 479.043 947.409 477.493 945.349C475.963 943.31 476.563 941.159 478.043 939.339C479.403 937.649 480.823 935.949 482.463 934.539C493.583 924.909 504.703 915.279 515.973 905.829C519.093 903.209 521.123 900.409 521.083 896.189C520.993 887.889 521.053 879.589 521.053 870.589C519.413 871.699 518.103 872.49 516.893 873.41C503.743 883.42 490.643 893.49 477.443 903.42C474.853 905.37 471.973 907.069 469.003 908.329C467.323 909.039 465.033 909.109 463.273 908.599C460.563 907.799 459.663 904.389 461.333 901.779C462.283 900.299 463.723 899.069 465.113 897.929C483.033 883.129 500.983 868.349 518.933 853.589C520.503 852.299 521.833 851.099 521.883 848.729C522.123 835.839 522.523 822.949 522.853 810.059C522.853 809.719 522.703 809.369 522.433 808.219C520.643 809.339 518.993 810.24 517.483 811.339C501.463 822.959 485.523 834.699 469.423 846.209C461.893 851.589 454.093 856.59 446.343 861.64C444.703 862.71 442.783 863.739 440.903 863.929C439.343 864.079 437.243 863.379 436.143 862.289C434.603 860.759 434.993 858.519 436.363 856.799C437.253 855.679 438.393 854.729 439.533 853.849C453.923 842.769 468.263 831.619 482.773 820.709C492.343 813.509 502.183 806.64 511.903 799.63C513.663 798.359 515.443 797.129 517.833 795.439C507.483 781.449 497.123 767.759 487.113 753.819C477.163 739.969 467.553 725.869 457.673 711.699C422.743 717.609 387.583 723.549 352.003 729.569C352.003 730.879 351.893 732.289 352.023 733.679C354.453 760.439 356.933 787.199 359.353 813.969C359.593 816.669 359.783 819.44 359.443 822.099C358.983 825.769 355.963 828.629 353.153 828.679C350.563 828.729 347.443 826.309 346.573 822.979C345.883 820.369 345.743 817.61 345.503 814.91C343.193 788.87 340.923 762.819 338.613 736.779C338.533 735.919 338.213 735.089 337.873 733.689C336.543 734.629 335.503 735.209 334.663 735.989C327.243 742.939 319.923 750.02 312.413 756.87C310.003 759.06 309.393 761.119 309.933 764.429C313.853 788.439 317.543 812.479 321.113 836.539C321.613 839.879 321.323 843.429 320.853 846.809C320.493 849.399 318.893 851.519 315.973 852.019C313.403 852.459 310.943 851.119 309.553 847.989C308.463 845.529 307.663 842.859 307.273 840.199C304.243 819.549 301.353 798.869 298.393 778.209C298.123 776.319 297.593 774.459 297.043 771.949C295.253 773.479 294.003 774.459 292.853 775.539C286.903 781.149 281.103 786.919 274.993 792.339C272.113 794.889 271.313 797.489 271.613 801.329C272.813 816.349 273.573 831.399 274.503 846.439C274.733 850.239 273.773 853.639 271.083 856.439C268.473 859.149 266.113 859.379 263.663 856.559C262.063 854.719 260.813 852.349 260.123 850.009C259.413 847.629 259.513 844.989 259.363 842.459C258.853 833.939 258.423 825.42 257.883 816.9C257.753 814.79 257.323 812.7 256.933 809.92C255.523 811.07 254.663 811.669 253.913 812.38C245.473 820.37 237.103 828.439 228.583 836.339C226.523 838.249 225.693 840.159 225.873 842.979C226.303 849.679 226.463 856.409 226.573 863.12C226.613 865.27 226.473 867.519 225.863 869.559C224.683 873.539 221.163 876.089 217.903 875.809C214.583 875.519 211.673 872.46 211.033 868.37C210.783 866.77 210.883 865.109 210.873 863.479C210.853 860.419 210.873 857.359 210.873 853.489C209.223 854.559 208.103 855.249 207.013 856.009C204.183 857.969 201.453 860.08 198.533 861.89C196.503 863.15 194.283 862.969 192.523 861.209C190.543 859.229 190.643 856.779 192.113 854.729C194.113 851.939 196.473 849.399 198.783 846.849C200.563 844.889 202.513 843.089 205.053 840.559C200.853 839.889 197.673 839.5 194.543 838.859C191.713 838.279 188.853 837.65 186.163 836.64C183.753 835.74 182.533 833.669 182.783 830.989C183.033 828.289 184.753 826.639 187.203 826.079C189.293 825.599 191.543 825.419 193.683 825.62C199.643 826.18 205.603 826.819 211.503 827.799C215.743 828.509 218.983 827.859 222.143 824.499C229.113 817.099 236.553 810.149 243.773 802.989C244.863 801.909 245.833 800.689 247.303 799.039C239.963 798.109 233.343 797.43 226.773 796.4C220.503 795.42 214.263 794.18 208.063 792.839C205.973 792.389 203.743 791.639 202.113 790.339C200.933 789.399 200.023 787.269 200.173 785.789C200.293 784.599 202.013 783.14 203.343 782.62C204.953 781.99 206.923 782 208.713 782.109C217.413 782.609 226.113 783.189 234.803 783.819C242.043 784.349 249.273 785.019 256.513 785.549C259.483 785.769 262.303 785.319 264.583 783.089C270.563 777.249 276.563 771.44 282.533 765.599C282.873 765.259 282.993 764.699 283.433 763.779C277.063 763.009 270.983 762.379 264.923 761.529C252.523 759.799 240.133 758.01 227.743 756.15C225.423 755.8 223.113 755.18 220.903 754.39C216.543 752.85 214.813 750.43 215.573 747.38C216.273 744.58 218.723 743.349 223.133 743.739C229.643 744.319 236.143 744.969 242.653 745.609C259.093 747.209 275.553 748.729 291.973 750.499C296.113 750.949 299.093 749.939 302.083 746.929C309.903 739.089 318.093 731.619 326.133 723.989C326.903 723.259 327.603 722.439 328.743 721.219C327.183 720.729 326.093 720.249 324.963 720.059C302.383 716.429 279.793 712.91 257.233 709.17C250.263 708.02 243.373 706.329 236.473 704.779C234.903 704.429 233.343 703.809 231.913 703.069C230.013 702.079 228.813 700.429 229.223 698.179C229.683 695.699 231.513 694.579 233.873 694.289C234.763 694.179 235.693 694.26 236.583 694.38C259.253 697.43 281.923 700.409 304.573 703.599C312.653 704.74 320.663 706.379 328.713 707.759C330.313 708.029 331.933 708.179 334.033 708.439C339.623 674.339 345.183 640.43 350.723 606.65C321.863 586.15 292.883 565.559 263.033 544.359C262.613 545.079 262.183 546.109 261.493 546.939C243.623 568.459 225.723 589.949 207.833 611.449C205.723 613.989 203.563 616.399 200.033 616.979C195.483 617.729 192.183 615.16 192.943 610.66C193.393 607.98 194.883 605.179 196.663 603.059C211.683 585.089 226.903 567.269 242.003 549.369C245.013 545.799 247.793 542.029 251.163 537.729C249.153 537.439 248.003 537.169 246.843 537.129C236.683 536.769 226.513 536.509 216.353 536.079C213.403 535.949 211.453 536.709 209.573 539.309C195.453 558.909 181.163 578.379 166.803 597.799C164.783 600.539 162.293 603.03 159.643 605.17C156.783 607.47 153.673 607.46 151.573 605.88C149.243 604.12 148.613 601.189 150.333 597.469C151.533 594.859 153.163 592.409 154.883 590.089C167.033 573.779 179.263 557.529 191.433 541.239C192.493 539.819 193.393 538.269 194.733 536.219C193.053 535.979 191.913 535.709 190.763 535.669C181.873 535.369 172.963 535.249 164.083 534.789C160.863 534.629 158.773 535.659 156.673 538.119C146.993 549.429 137.103 560.559 127.263 571.739C124.683 574.669 121.723 576.969 117.613 577.309C112.963 577.689 110.913 575.569 111.353 570.809C111.683 567.169 113.623 564.419 115.983 561.789C122.903 554.089 129.733 546.309 136.563 538.529C137.503 537.459 138.263 536.229 139.453 534.589C137.853 534.319 136.713 533.999 135.563 533.959C124.123 533.609 112.683 533.399 101.253 532.919C98.2227 532.789 96.1927 533.729 94.2127 535.979C89.6627 541.159 84.9927 546.269 80.0627 551.079C78.0727 553.019 75.4227 554.819 72.7827 555.419C66.3627 556.879 62.1327 551.549 64.6827 545.459C65.4927 543.529 67.1127 541.899 68.5327 540.279C70.7827 537.689 73.1727 535.229 75.8427 532.339C74.4027 532.099 73.1028 531.889 71.7928 531.659C68.4028 531.079 64.9727 530.679 61.6427 529.849C59.4027 529.289 57.8127 527.619 57.8127 525.119C57.8127 522.339 59.6428 520.749 62.1328 520.239C64.6028 519.739 67.1627 519.579 69.6927 519.499C73.2327 519.379 76.7828 519.469 81.3828 519.469C78.6528 515.699 76.4827 512.869 74.5027 509.899C73.1027 507.799 71.7028 505.629 70.7628 503.299C69.8228 500.989 70.1827 498.579 72.2827 496.859C74.3427 495.179 76.7327 495.049 78.8627 496.499C80.9327 497.909 82.9928 499.529 84.5728 501.459C88.7228 506.509 92.6628 511.729 96.5728 516.959C97.9628 518.819 99.4227 519.909 101.933 519.919C114.103 519.959 126.273 520.179 138.433 520.319C138.903 520.319 139.373 520.059 140.423 519.749C139.153 518.079 138.083 516.719 137.053 515.319C130.633 506.519 124.153 497.769 117.873 488.879C116.433 486.839 115.243 484.429 114.733 482.009C114.423 480.559 115.263 478.469 116.283 477.239C117.603 475.649 119.743 476.069 121.253 477.239C123.533 479.019 125.793 480.899 127.683 483.079C137.203 494.049 146.633 505.099 156.013 516.199C158.503 519.149 161.323 520.879 165.333 520.839C172.593 520.769 179.863 520.979 187.123 521.039C188.133 521.039 189.143 520.839 190.873 520.649C189.493 518.719 188.513 517.279 187.453 515.899C177.873 503.339 168.223 490.829 158.723 478.199C156.663 475.459 154.963 472.419 153.373 469.369C152.653 467.989 152.273 466.229 152.363 464.679C152.563 460.999 156.323 459.039 159.553 460.999C161.203 461.999 162.513 463.649 163.773 465.169C178.463 482.949 193.123 500.749 207.773 518.569C209.183 520.289 210.543 521.659 213.113 521.709C225.463 521.939 237.803 522.369 250.153 522.699C250.993 522.719 251.843 522.559 253.573 522.409C252.143 520.249 251.143 518.599 250.023 517.049C238.713 501.469 227.283 485.979 216.103 470.309C210.413 462.339 205.093 454.089 199.723 445.889C198.643 444.249 197.583 442.309 197.433 440.439C197.313 438.909 198.223 436.969 199.303 435.769C200.673 434.259 202.733 434.649 204.283 435.839C205.553 436.819 206.683 438.049 207.673 439.329C218.423 453.289 229.243 467.189 239.823 481.279C247.453 491.439 254.753 501.849 262.193 512.159C263.353 513.769 264.483 515.389 265.793 517.259C293.833 497.099 321.613 477.129 349.683 456.959C343.833 422.359 337.883 387.189 331.843 351.499C324.913 352.119 318.083 352.719 311.253 353.329C292.443 354.999 273.643 356.659 254.833 358.339C251.213 358.659 247.613 359.139 243.993 359.369C242.203 359.479 240.323 359.449 238.593 359.039C235.353 358.259 233.053 355.709 232.873 353.169C232.693 350.589 234.563 347.759 237.693 346.569C239.523 345.869 241.553 345.519 243.523 345.379C254.933 344.539 266.363 343.969 277.753 342.979C292.943 341.659 308.113 340.039 323.283 338.509C324.683 338.369 326.043 337.889 327.823 337.479C327.063 336.419 326.633 335.639 326.033 335.009C318.703 327.199 311.293 319.449 304.023 311.579C302.223 309.629 300.433 309.039 297.803 309.459C273.433 313.359 249.053 317.219 224.643 320.839C221.163 321.359 217.443 320.799 213.903 320.269C211.433 319.899 209.693 318.049 209.353 315.439C209.003 312.769 210.483 310.729 212.693 309.699C215.283 308.489 218.093 307.499 220.913 307.079C241.203 304.069 261.513 301.239 281.813 298.329C284.143 297.999 286.443 297.479 289.383 296.929C288.303 295.509 287.583 294.349 286.663 293.379C280.943 287.289 274.963 281.429 269.513 275.109C266.513 271.629 263.353 271.019 259.023 271.379C244.553 272.589 230.053 273.359 215.553 274.269C211.803 274.509 208.333 273.729 205.423 271.159C202.213 268.319 202.153 265.919 205.223 262.909C208.313 259.879 212.193 259.359 216.273 259.129C226.963 258.529 237.653 257.799 248.343 257.089C249.173 257.029 250.003 256.789 251.413 256.519C250.263 255.109 249.553 254.119 248.733 253.249C240.873 244.939 232.923 236.699 225.153 228.299C223.263 226.249 221.363 225.309 218.533 225.489C211.463 225.939 204.383 226.329 197.313 226.259C194.553 226.229 191.433 225.479 189.133 224.019C184.073 220.809 184.593 214.399 190.003 211.799C192.033 210.819 194.523 210.589 196.833 210.439C200.243 210.219 203.683 210.379 208.293 210.379C206.453 208.039 205.123 206.469 203.923 204.799C202.433 202.749 200.853 200.719 199.683 198.489C198.523 196.289 198.423 193.879 200.493 191.989C202.593 190.079 204.943 190.439 206.993 191.909C209.343 193.599 211.513 195.549 213.643 197.519C215.873 199.589 217.963 201.809 220.793 204.629C221.683 199.569 222.343 195.379 223.193 191.209C223.583 189.269 224.153 187.319 224.963 185.529C225.953 183.369 227.863 182.299 230.273 182.449C232.693 182.599 234.573 183.919 235.103 186.199C235.713 188.809 236.113 191.599 235.873 194.239C235.323 200.379 234.483 206.509 233.483 212.599C232.943 215.909 233.463 218.359 236.033 220.849C243.863 228.429 251.393 236.319 259.043 244.069C259.893 244.939 260.843 245.709 262.413 247.119C263.233 240.449 263.773 234.559 264.723 228.739C265.923 221.399 267.383 214.099 268.923 206.829C269.323 204.929 270.143 202.949 271.303 201.419C273.723 198.219 277.723 198.959 278.753 202.819C279.393 205.229 279.583 207.869 279.413 210.369C278.333 225.399 277.113 240.409 275.893 255.429C275.633 258.619 275.923 261.669 278.213 264.059C284.123 270.219 290.133 276.279 296.123 282.359C296.343 282.579 296.783 282.589 297.643 282.869C297.923 280.859 298.203 278.939 298.463 277.019C300.633 261.009 302.743 244.989 305.003 228.989C305.403 226.129 306.163 223.289 307.103 220.559C308.593 216.189 311.053 214.489 314.103 215.269C316.973 215.999 318.263 218.839 317.743 223.369C317.583 224.809 317.273 226.239 317.133 227.689C315.013 249.739 312.883 271.789 310.883 293.849C310.733 295.489 311.003 297.739 312.013 298.839C321.113 308.699 330.413 318.359 340.313 328.759C340.943 326.249 341.523 324.459 341.823 322.629C344.843 303.629 347.713 284.599 350.853 265.609C352.423 256.129 354.423 246.709 356.343 237.289C356.733 235.359 357.483 233.459 358.323 231.669C359.243 229.729 360.903 228.469 363.143 228.849C365.573 229.259 366.883 230.969 367.073 233.419C367.163 234.499 367.143 235.609 366.993 236.679C363.383 262.939 359.793 289.199 356.103 315.449C355.443 320.119 354.363 324.729 353.533 329.369C353.283 330.759 353.223 332.179 353.063 333.719C387.143 339.299 420.923 344.829 454.783 350.379C475.193 321.649 495.783 292.669 517.213 262.509C516.393 262.079 515.123 261.669 514.173 260.879C492.793 243.129 471.403 225.389 450.143 207.499C447.883 205.599 445.693 203.009 444.723 200.299C442.983 195.439 446.163 191.809 451.253 192.699C453.763 193.139 456.353 194.609 458.343 196.279C475.883 210.969 493.273 225.839 510.763 240.599C514.743 243.959 518.933 247.089 523.833 250.949C524.933 237.209 525.133 224.449 525.263 211.649C516.703 205.499 508.253 199.529 499.923 193.409C487.193 184.059 474.473 174.679 461.903 165.109C459.373 163.179 457.343 160.479 455.453 157.859C454.003 155.839 453.913 153.379 455.583 151.239C457.393 148.929 459.983 148.379 462.443 149.459C465.563 150.829 468.603 152.549 471.343 154.579C487.533 166.579 503.623 178.719 519.763 190.799C521.333 191.969 523.003 193.009 525.153 194.469C525.493 192.679 525.883 191.529 525.913 190.369C526.183 181.109 526.243 171.839 526.673 162.589C526.813 159.529 525.173 158.029 523.203 156.319C511.973 146.539 500.793 136.709 489.623 126.869C486.833 124.419 484.693 121.579 484.203 117.709C483.603 113.019 485.543 110.799 490.203 110.989C493.883 111.139 496.693 112.979 499.323 115.349C506.893 122.139 514.513 128.879 522.143 135.599C523.463 136.759 524.943 137.719 526.593 138.959C526.953 138.099 527.303 137.659 527.313 137.209C527.693 125.049 527.983 112.879 528.443 100.719C528.553 97.9495 527.823 95.9795 525.673 94.0995C520.613 89.6895 515.713 85.0795 510.923 80.3595C509.153 78.6195 507.533 76.5294 506.463 74.2994C504.823 70.8994 505.653 67.3494 507.983 65.2794C510.173 63.3294 514.113 62.9794 517.163 64.8994C519.123 66.1394 520.733 67.9294 522.433 69.5494C524.273 71.2994 526.013 73.1594 527.833 74.9294C528.033 75.1294 528.493 75.0694 529.183 75.1994C529.613 72.0394 529.983 68.8695 530.493 65.7195C530.753 64.1195 531.123 62.5093 531.693 60.9893C532.523 58.7693 534.123 57.3494 536.653 57.4994C539.203 57.6494 540.763 59.3494 541.143 61.5794C541.723 64.9594 541.843 68.4294 542.013 71.8694C542.143 74.5194 542.043 77.1894 542.043 80.9893C545.693 78.3393 548.363 76.2694 551.163 74.4094C553.423 72.9194 555.773 71.5294 558.213 70.3694C560.383 69.3394 562.533 69.8794 564.223 71.5694C566.133 73.4694 566.363 75.9495 565.123 78.1095C563.883 80.2695 562.213 82.3294 560.303 83.9194C555.423 87.9794 550.403 91.8894 545.223 95.5694C542.413 97.5594 541.333 99.7794 541.393 103.269C541.613 115.239 541.483 127.209 541.483 139.899C542.963 138.939 544.103 138.279 545.163 137.499C553.943 131.059 562.663 124.539 571.503 118.179C573.543 116.709 575.893 115.599 578.223 114.629C580.333 113.739 582.553 113.739 584.173 115.769C585.843 117.869 585.093 119.939 583.663 121.739C582.193 123.579 580.623 125.379 578.843 126.909C567.713 136.519 556.433 145.969 545.403 155.699C543.353 157.509 540.983 160.249 540.843 162.689C540.303 171.689 540.623 180.749 540.623 190.509C542.323 189.369 543.633 188.579 544.843 187.659C557.543 177.959 570.193 168.199 582.943 158.569C585.683 156.499 588.693 154.739 591.753 153.179C593.293 152.389 595.243 151.959 596.953 152.089C600.443 152.339 602.333 155.849 600.553 158.869C599.483 160.679 597.763 162.169 596.103 163.539C578.333 178.239 560.523 192.899 542.713 207.549C541.133 208.849 539.813 210.139 539.763 212.449C539.503 225.339 539.133 238.229 538.823 251.119C538.823 251.449 539.033 251.789 539.363 252.799C540.913 251.849 542.433 251.069 543.793 250.079C559.383 238.779 574.873 227.359 590.543 216.169C598.663 210.369 607.043 204.939 615.383 199.449C617.023 198.369 618.933 197.589 620.823 197.069C622.913 196.499 625.143 197.139 625.823 199.259C626.293 200.739 625.783 202.689 625.273 204.289C624.983 205.209 623.893 205.949 623.033 206.589C600.583 223.559 578.123 240.529 555.623 257.439C552.013 260.149 548.213 262.609 543.843 265.639C554.253 279.719 564.603 293.399 574.613 307.339C584.573 321.199 594.183 335.299 604.023 349.409C639.023 343.489 674.203 337.539 709.923 331.489C709.633 328.129 709.353 324.739 709.043 321.359C706.963 298.029 704.883 274.689 702.783 251.359C702.523 248.469 702.043 245.589 701.883 242.689C701.593 237.349 704.373 232.909 708.083 232.499C711.973 232.069 715.413 236.199 715.903 241.919C718.073 267.429 720.213 292.939 722.413 318.439C722.663 321.299 723.193 324.129 723.673 327.559C725.123 326.499 726.183 325.889 727.053 325.069C734.473 318.119 741.773 311.029 749.323 304.209C751.813 301.959 752.273 299.719 751.773 296.559C747.903 272.179 744.123 247.779 740.493 223.359C740.053 220.389 740.463 217.219 740.913 214.209C741.313 211.549 742.963 209.539 745.823 209.029C748.313 208.589 750.923 209.989 752.173 213.159C753.413 216.329 754.263 219.729 754.743 223.109C757.133 239.639 759.313 256.199 761.663 272.729C762.393 277.899 763.403 283.039 764.393 288.869C765.853 287.889 766.913 287.369 767.733 286.589C774.223 280.499 780.573 274.259 787.163 268.279C789.563 266.099 790.343 263.869 790.103 260.669C789.003 246.009 788.113 231.329 787.203 216.649C786.963 212.809 787.143 209.029 789.683 205.759C792.853 201.679 795.593 201.569 798.983 205.409C801.433 208.179 801.943 211.499 802.143 215.019C802.733 225.529 803.433 236.039 804.103 246.549C804.183 247.779 804.403 248.999 804.643 250.879C806.013 249.929 807.063 249.379 807.893 248.589C816.353 240.619 824.723 232.549 833.243 224.639C835.153 222.869 835.943 221.059 835.803 218.469C835.413 211.579 835.013 204.679 835.103 197.779C835.143 194.819 835.743 191.499 837.213 188.999C840.403 183.579 847.003 184.109 849.693 189.819C850.583 191.699 850.793 193.999 850.913 196.129C851.103 199.699 850.963 203.279 850.963 207.839C853.333 206.029 854.953 204.699 856.663 203.509C858.893 201.959 861.113 200.379 863.483 199.079C865.603 197.919 867.773 198.289 869.423 200.139C871.093 202.009 871.073 204.229 869.713 206.179C868.053 208.549 866.183 210.789 864.223 212.909C862.033 215.279 859.633 217.459 856.533 220.489C860.253 221.099 863.013 221.519 865.753 222.009C868.433 222.499 871.143 222.869 873.743 223.649C877.483 224.769 879.443 227.419 879.023 230.259C878.633 232.979 876.393 234.889 872.773 235.339C870.983 235.559 869.133 235.639 867.343 235.449C861.753 234.859 856.133 234.359 850.603 233.359C846.173 232.559 842.753 233.029 839.473 236.679C831.713 245.289 823.503 253.499 815.353 261.999C816.023 262.139 817.133 262.419 818.253 262.589C829.543 264.349 840.853 266.009 852.123 267.889C854.583 268.299 857.003 269.309 859.273 270.399C861.183 271.319 862.593 273.219 861.643 275.299C860.993 276.709 859.313 278.129 857.813 278.549C855.603 279.159 853.123 279.119 850.783 278.949C836.113 277.919 821.453 276.849 806.803 275.619C802.573 275.269 798.933 275.809 795.923 279.119C790.433 285.149 784.833 291.069 779.053 297.289C781.043 297.569 783.593 297.949 786.133 298.299C802.133 300.499 818.153 302.619 834.133 304.959C837.143 305.399 840.113 306.479 842.943 307.649C845.253 308.609 846.703 310.539 846.293 313.279C845.933 315.709 843.783 317.309 840.673 317.489C839.783 317.539 838.873 317.359 837.973 317.269C821.163 315.689 804.353 314.129 787.553 312.519C781.413 311.929 775.263 311.309 769.143 310.529C765.683 310.089 763.023 310.759 760.383 313.399C752.813 320.979 744.923 328.239 737.103 335.559C735.793 336.779 734.173 337.669 732.693 338.709C732.953 339.149 733.213 339.579 733.463 340.019C734.583 340.349 735.683 340.799 736.823 340.979C757.073 344.229 777.343 347.339 797.573 350.719C806.693 352.239 815.733 354.229 824.793 356.149C826.713 356.559 828.813 357.179 830.253 358.389C831.443 359.379 832.533 361.519 832.283 362.909C832.033 364.299 830.233 365.669 828.803 366.499C827.843 367.059 826.303 366.849 825.073 366.659C794.043 361.869 762.673 359.469 731.873 353.089C730.513 352.809 729.073 352.929 727.653 352.859C722.093 386.829 716.583 420.459 711.033 454.399C739.643 474.729 768.743 495.409 798.563 516.589C799.173 515.719 799.813 514.629 800.603 513.679C818.373 492.309 836.153 470.959 853.933 449.599C856.163 446.919 858.463 444.359 862.273 444.009C866.443 443.619 868.853 445.769 868.883 449.959C868.903 453.289 867.133 455.739 865.093 458.149C849.003 477.129 832.953 496.129 816.923 515.159C814.853 517.609 812.993 520.239 810.473 523.519C812.793 523.709 814.153 523.869 815.503 523.909C825.483 524.259 835.473 524.519 845.453 524.949C848.423 525.079 850.353 524.269 852.223 521.679C866.343 502.079 880.613 482.599 894.993 463.199C897.113 460.329 899.853 457.819 902.633 455.559C904.843 453.769 907.673 453.289 910.213 455.229C912.793 457.199 912.813 460.099 911.753 462.669C910.593 465.479 908.943 468.159 907.123 470.609C894.993 486.929 882.743 503.169 870.563 519.459C869.403 521.019 868.423 522.719 867.043 524.849C869.003 525.109 870.353 525.399 871.713 525.449C880.613 525.729 889.513 525.839 898.393 526.259C901.303 526.399 903.033 525.259 904.833 523.169C914.553 511.889 924.413 500.729 934.243 489.549C936.683 486.779 939.423 484.469 943.253 483.839C948.273 483.019 950.453 484.929 950.323 489.939C950.233 493.669 948.303 496.409 945.953 499.039C939.173 506.619 932.433 514.229 925.713 521.869C924.563 523.179 923.603 524.669 922.113 526.669C923.473 526.869 924.103 527.029 924.743 527.049C936.723 527.399 948.713 527.659 960.683 528.119C963.483 528.229 965.423 527.429 967.283 525.299C971.703 520.239 976.313 515.339 981.023 510.549C982.773 508.769 984.853 507.159 987.073 506.069C990.353 504.459 994.113 505.329 996.123 507.579C998.173 509.869 998.573 513.579 996.533 516.719C995.083 518.959 992.983 520.799 991.113 522.759C989.383 524.559 987.573 526.279 985.143 528.679C989.543 529.279 993.043 529.679 996.513 530.269C998.103 530.539 999.933 530.799 1001.09 531.749C1002.34 532.769 1003.66 534.609 1003.63 536.059C1003.59 537.499 1002.21 539.419 1000.88 540.189C999.263 541.119 997.083 541.329 995.123 541.399C990.633 541.559 986.123 541.449 980.433 541.449C982.193 543.999 983.393 545.679 984.543 547.389C986.563 550.399 988.773 553.309 990.513 556.479C992.203 559.569 991.713 562.099 989.713 563.969C987.643 565.899 984.593 566.029 981.723 563.869C979.713 562.359 977.873 560.529 976.293 558.569C972.423 553.759 968.733 548.809 965.023 543.879C963.763 542.199 962.443 541.119 960.113 541.109C947.763 541.089 935.413 540.889 923.063 540.779C922.763 540.779 922.453 541.079 921.613 541.509C922.643 542.919 923.643 544.299 924.653 545.679C931.063 554.479 937.533 563.239 943.833 572.119C945.173 574.009 946.123 576.249 946.893 578.449C947.573 580.399 947.393 582.43 945.513 583.859C943.573 585.329 941.623 584.769 940.003 583.469C937.883 581.779 935.803 579.969 934.033 577.929C924.533 566.939 915.093 555.899 905.713 544.799C903.223 541.859 900.413 540.109 896.413 540.149C888.963 540.219 881.523 540.039 874.073 539.989C873.233 539.989 872.383 540.179 870.813 540.359C872.293 542.379 873.403 543.949 874.563 545.469C884.043 557.879 893.573 570.25 902.973 582.729C905.033 585.469 906.823 588.469 908.373 591.529C910.293 595.319 909.803 598.24 907.463 599.89C904.943 601.67 902.033 600.829 899.063 597.269C889.643 585.969 880.253 574.649 870.893 563.299C865.233 556.429 859.653 549.499 854.063 542.569C852.543 540.679 851.033 539.289 848.233 539.249C836.063 539.079 823.903 538.629 811.743 538.289C810.873 538.269 810.003 538.389 808.233 538.489C809.563 540.589 810.503 542.249 811.613 543.789C823.233 559.809 834.973 575.75 846.483 591.859C851.863 599.39 856.853 607.189 861.903 614.949C862.973 616.589 863.753 618.5 864.273 620.4C864.843 622.48 864.153 624.329 862.153 625.519C860.303 626.619 858.593 626.129 857.103 624.949C855.983 624.059 855.023 622.929 854.143 621.789C843.063 607.399 831.923 593.059 821.003 578.549C813.803 568.979 806.933 559.149 799.923 549.429C798.653 547.669 797.423 545.889 795.943 543.779C767.813 563.989 739.903 584.049 712.043 604.069C717.933 638.839 723.863 673.869 729.893 709.479L729.883 709.519ZM538.843 281.289C538.533 281.419 538.223 281.539 537.903 281.669C535.813 352.139 533.723 422.599 531.623 493.069C531.993 493.159 532.373 493.259 532.743 493.349C533.513 492.029 534.343 490.749 535.033 489.399C546.433 467.079 557.013 444.379 566.633 421.229C574.503 402.289 582.153 383.239 590.793 364.649C593.773 358.249 593.333 354.449 589.033 348.889C573.053 328.199 557.803 306.949 542.273 285.909C541.133 284.369 539.983 282.829 538.833 281.299L538.843 281.289ZM780.563 538.069C779.453 537.669 778.993 537.369 778.533 537.349C708.513 535.459 638.503 533.579 568.483 531.719C568.373 531.719 568.203 531.889 568.153 532.019C568.093 532.169 568.143 532.359 568.143 532.709C569.323 533.349 570.573 534.079 571.853 534.729C594.513 546.219 617.503 556.969 640.973 566.699C659.733 574.469 678.573 582.119 696.993 590.649C703.173 593.509 706.833 593.139 712.263 588.949C733.223 572.759 754.753 557.299 776.063 541.559C777.453 540.539 778.793 539.449 780.563 538.069ZM505.013 503.589C505.363 503.309 505.713 503.019 506.063 502.739C505.363 500.519 504.643 498.299 503.953 496.069C490.153 451.449 470.133 409.219 453.943 365.519C453.063 363.149 451.573 361.959 448.763 361.579C427.023 358.619 405.303 355.449 383.593 352.279C375.763 351.139 367.953 349.809 360.133 348.569C359.973 348.829 359.823 349.089 359.663 349.349C408.113 400.769 456.563 452.189 505.013 503.599V503.589ZM522.803 779.65C523.183 779.49 523.553 779.32 523.933 779.16C525.193 708.92 528.623 638.729 529.193 568.359C527.873 569.559 527.043 570.859 526.323 572.219C504.113 614.129 488.093 658.81 468.413 701.859C467.423 704.01 467.673 705.719 469.223 707.799C486.103 730.299 502.823 752.909 519.603 775.489C520.653 776.899 521.743 778.27 522.803 779.66V779.65ZM503.793 556.419C503.533 556.099 503.273 555.779 503.023 555.459C502.333 555.589 501.603 555.629 500.943 555.869C481.313 562.879 461.553 569.569 442.093 577.029C416.703 586.769 391.563 597.159 366.293 607.199C363.443 608.329 362.203 610.029 361.773 613.179C359.093 633.129 356.193 653.059 353.283 672.979C351.893 682.449 350.313 691.9 348.623 702.63C400.953 653.33 452.373 604.869 503.793 556.409V556.419ZM558.073 505.869C560.563 505.129 562.423 504.599 564.263 504.019C595.743 493.989 626.313 481.559 656.873 469.089C669.623 463.889 682.493 458.949 695.293 453.859C697.493 452.979 699.243 452.039 699.663 449.039C703.433 422.459 707.423 395.909 711.333 369.359C711.793 366.249 712.213 363.129 712.723 359.509C706.513 363.709 561.293 501.069 558.083 505.869H558.073ZM281.233 522.919C288.513 524.469 489.043 529.759 493.793 528.519C491.923 527.529 490.363 526.699 488.793 525.889C463.333 512.709 437.123 501.159 410.673 490.119C395.113 483.629 379.433 477.379 364.173 470.229C358.443 467.549 354.953 467.849 349.853 471.779C328.723 488.039 307.083 503.639 285.643 519.489C284.273 520.509 282.943 521.579 281.233 522.909V522.919ZM702.113 712.64C696.543 704.59 559.973 560.579 555.603 558.129C556.073 559.769 556.393 561.159 556.853 562.499C560.413 572.979 563.643 583.589 567.653 593.899C580.873 627.879 594.393 661.749 607.763 695.679C608.733 698.149 610.303 699.119 613.023 699.489C632.263 702.069 651.483 704.82 670.693 707.64C680.903 709.14 691.083 710.88 702.113 712.65V712.64ZM546.733 580.869C546.353 580.909 545.963 580.959 545.583 580.999C543.703 648.449 538.533 715.79 538.543 784.38C539.793 782.91 540.303 782.409 540.693 781.829C558.423 755.489 576.123 729.129 593.913 702.829C595.583 700.359 595.363 698.44 594.083 695.88C576.553 660.77 561.743 624.529 549.073 587.399C548.323 585.209 547.513 583.039 546.733 580.869ZM277.593 538.489C278.053 539.109 278.133 539.289 278.273 539.389C305.193 557.559 332.123 575.699 359.023 593.899C361.143 595.329 362.913 595.079 365.053 593.989C371.193 590.859 377.373 587.789 383.643 584.929C413.853 571.139 444.563 558.559 476.083 548.039C477.603 547.529 479.053 546.839 481.463 545.859C471.683 544.029 287.933 537.499 277.593 538.489ZM523.013 277.579C521.973 278.339 521.463 278.549 521.203 278.929C503.253 305.569 485.333 332.229 467.353 358.859C465.893 361.029 466.353 362.779 467.413 364.889C485.443 400.989 500.623 438.269 513.513 476.489C514.003 477.939 514.693 479.329 515.283 480.739C517.813 413.089 523.223 345.739 523.013 277.579ZM484.513 506.419C438.493 456.469 394.463 405.069 345.943 356.599C346.063 358.289 346.043 359.119 346.203 359.909C352.283 391.059 358.413 422.209 364.413 453.379C364.983 456.359 366.603 457.519 369.253 458.399C406.833 470.899 443.233 486.259 478.753 503.749C480.653 504.679 482.593 505.539 484.513 506.429V506.419ZM577.183 554.649C623.153 604.559 667.133 656.019 715.463 704.189C715.613 702.949 715.743 702.579 715.683 702.249C709.533 670.749 703.343 639.259 697.263 607.739C696.693 604.789 695.093 603.559 692.433 602.679C654.863 590.189 618.483 574.809 582.953 557.359C581.043 556.419 579.103 555.549 577.183 554.649ZM704.223 346.159L703.633 344.919C671.823 351.299 640.013 357.699 608.183 364.029C605.393 364.589 603.953 365.949 603.023 368.739C590.313 406.829 574.783 443.769 556.943 479.739C556.183 481.269 555.533 482.849 554.833 484.409C604.763 438.259 656.323 394.169 704.223 346.149V346.159ZM784.293 522.789C783.303 521.699 783.103 521.369 782.813 521.169C756.173 503.219 729.513 485.299 702.883 467.309C700.613 465.779 698.713 465.939 696.353 467.159C690.393 470.249 684.363 473.219 678.263 475.999C647.873 489.859 617.013 502.549 585.293 513.089C583.773 513.589 581.913 513.729 580.533 515.789C648.593 517.519 715.883 522.869 784.283 522.779L784.293 522.789ZM506.533 577.009C456.623 623.019 405.143 666.97 357.193 715.14C357.923 715.34 358.103 715.45 358.253 715.42C390.123 709.25 421.993 703.06 453.873 696.9C456.503 696.39 457.733 694.9 458.573 692.38C471.203 654.43 486.703 617.679 504.393 581.819C505.173 580.249 505.823 578.609 506.533 577.009Z" fill="white"/>
<path d="M202.913 162.879C202.483 176.969 193.513 184.539 179.753 184.969C168.263 185.329 158.493 173.859 158.653 161.099C158.793 149.619 170.013 139.289 182.083 139.519C193.753 139.739 203.173 150.309 202.913 162.879ZM179.833 150.119C172.683 150.259 168.203 154.689 168.333 161.509C168.463 167.989 174.933 173.909 181.793 173.829C188.943 173.749 192.843 169.899 192.813 163.259C192.783 156.109 186.043 149.019 179.833 150.119Z" fill="white"/>
<path d="M1037.97 521.049C1050.16 520.889 1060.62 530.659 1060.81 542.569C1061.05 557.169 1051.92 565.609 1040.52 566.039C1027.81 566.519 1015.84 555.389 1015.86 543.409C1015.88 531.279 1025.84 521.219 1037.97 521.059V521.049ZM1039.83 531.959C1032.88 531.959 1026.15 537.859 1026.07 544.019C1026 549.569 1031.89 554.769 1038.71 555.159C1038.89 555.169 1039.07 555.189 1039.25 555.189C1044.97 555.259 1051.17 550.239 1051.71 545.119C1052.47 537.929 1047.08 531.959 1039.83 531.959Z" fill="white"/>
<path d="M880.563 921.509C868.743 922.719 858.243 910.609 858.703 898.099C859.203 884.349 867.573 876.569 881.983 876.089C893.383 875.709 903.383 887.559 903.123 900.049C902.893 911.049 891.733 921.659 880.563 921.499V921.509ZM881.553 910.929C888.833 910.849 893.383 906.589 893.403 899.839C893.423 893.189 886.653 887.009 879.603 887.259C872.733 887.499 868.693 891.329 868.763 897.529C868.853 904.979 874.613 911.009 881.553 910.929Z" fill="white"/>
<path d="M521.473 23.2694C521.433 10.6694 530.863 0.889475 542.993 0.599475C557.903 0.239475 566.153 10.4295 566.363 20.9695C566.613 33.7795 555.623 45.5495 543.583 45.4695C531.203 45.3895 521.523 35.6594 521.483 23.2794L521.473 23.2694ZM555.473 21.9194C555.443 15.6394 549.793 9.46941 544.143 9.52941C537.213 9.60941 532.293 14.6995 532.373 21.7295C532.453 28.7795 538.413 35.4894 544.513 35.4194C550.103 35.3494 555.503 28.6994 555.473 21.9194Z" fill="white"/>
<path d="M921.753 180.269C921.593 192.139 913.623 200.979 902.213 202.449C890.193 203.989 880.863 198.109 877.523 186.889C874.343 176.179 878.753 165.519 888.743 160.939C899.763 155.879 909.823 157.909 916.743 167.489C919.583 171.409 923.003 175.249 921.743 180.269H921.753ZM911.153 179.289C910.873 172.199 906.163 167.569 899.593 167.929C893.063 168.289 887.493 174.739 887.663 181.759C887.843 188.949 891.733 192.879 898.353 192.569C905.363 192.239 912.363 185.989 911.153 179.289Z" fill="white"/>
<path d="M518.383 1060.44C503.533 1060.9 495.253 1050.11 495.373 1039.81C495.533 1027 505.913 1015.65 517.843 1015.59C530.283 1015.52 540.363 1025.64 540.283 1038.11C540.203 1050.53 530.453 1060.46 518.383 1060.44ZM529.373 1039.42C529.303 1032.18 522.883 1025.23 516.683 1025.7C510.793 1026.14 505.863 1033.03 506.343 1040.17C506.393 1040.89 506.453 1041.62 506.613 1042.32C507.643 1046.86 513.173 1051.53 517.443 1051.51C524.353 1051.47 529.433 1046.32 529.363 1039.42H529.373Z" fill="white"/>
<path d="M0.852805 518.359C0.522805 503.669 10.3528 495.259 21.2728 495.049C33.9428 494.809 45.4828 505.369 45.6728 517.279C45.8728 529.789 35.9428 539.979 23.5128 540.029C11.2528 540.079 0.962805 530.229 0.852805 518.349V518.359ZM22.1528 529.119C27.8528 528.869 32.1228 526.049 34.7428 520.659C36.4728 517.109 35.7328 513.909 33.2828 511.089C29.5228 506.749 24.7428 505.199 19.1028 506.349C18.9228 506.389 18.7428 506.419 18.5728 506.469C14.2028 507.709 9.74281 513.079 9.73281 517.099C9.73281 523.879 15.0628 529.179 22.1428 529.129L22.1528 529.119Z" fill="white"/>
<path d="M139.973 880.16C138.333 868.83 150.843 857.94 163.383 858.42C178.293 858.99 185.063 869.27 185.233 881.82C185.383 893.27 173.583 903.25 161.183 902.819C150.053 902.43 139.713 891.38 139.983 880.16H139.973ZM174.073 879.41C173.933 872.52 170.153 868.449 163.933 868.459C156.543 868.479 150.243 874.34 150.313 881.14C150.393 888.47 155.203 893.44 161.953 893.15C168.423 892.87 174.223 886.31 174.073 879.41Z" fill="white"/>
</svg>
