<svg width="1066" height="1065" viewBox="0 0 1066 1065" fill="none" xmlns="http://www.w3.org/2000/svg">
<path d="M548.753 722.459C549.223 737.549 549.643 751.339 550.083 765.119C550.313 772.199 550.693 779.279 550.793 786.359C550.833 789.109 551.793 791.109 553.683 793.079C576.583 816.919 599.493 840.739 622.153 864.809C625.283 868.139 627.213 872.679 629.373 876.829C630.573 879.139 630.863 881.889 628.443 883.789C626.143 885.599 623.863 884.099 621.873 882.979C617.423 880.479 613.623 877.259 610.203 873.339C591.443 851.87 572.473 830.589 553.563 809.259C553.343 809.009 552.963 808.899 552.173 808.429C552.033 809.949 551.763 811.269 551.813 812.579C552.503 833.269 553.263 853.969 553.893 874.659C553.963 877.049 554.793 878.729 556.473 880.329C573.573 896.609 590.673 912.879 607.623 929.309C610.453 932.049 612.693 935.419 615.003 938.649C615.813 939.769 616.253 941.299 616.433 942.699C617.033 947.299 613.593 950.459 609.413 948.549C605.553 946.789 601.843 944.179 598.803 941.189C585.353 927.939 572.183 914.399 558.893 900.989C557.933 900.019 556.833 899.199 554.943 897.569C554.943 900.199 554.903 901.749 554.943 903.299C555.313 915.459 555.763 927.629 556.003 939.789C556.053 942.569 557.013 944.419 558.993 946.359C570.793 957.93 582.533 969.559 594.023 981.439C596.303 983.799 598.033 987.149 598.853 990.349C600.233 995.719 595.913 999.519 590.833 997.359C587.453 995.93 584.243 993.529 581.663 990.869C574.833 983.849 568.353 976.469 561.793 969.179C560.583 967.829 559.673 966.209 558.633 964.709C558.173 964.99 557.723 965.279 557.263 965.559C557.103 966.709 556.783 967.849 556.793 968.999C556.923 980.989 557.043 992.969 557.353 1004.95C557.393 1006.61 558.033 1008.54 559.043 1009.83C563.763 1015.81 568.713 1021.62 573.593 1027.48C574.873 1029.01 576.333 1030.41 577.513 1032.01C580.623 1036.23 580.543 1039.41 576.973 1043.2C571.243 1049.27 565.503 1055.35 559.473 1061.13C555.033 1065.38 552.703 1065.54 548.133 1061.48C541.763 1055.83 535.783 1049.73 529.803 1043.66C526.013 1039.81 525.543 1035.18 528.503 1030.71C533.903 1022.55 539.633 1014.61 545.143 1006.53C545.893 1005.43 546.753 1004.02 546.693 1002.79C546.123 990.089 545.383 977.399 544.663 964.709C544.623 964.029 544.333 963.359 543.983 962.019C542.443 963.649 541.183 964.869 540.053 966.199C534.283 972.969 528.683 979.899 522.733 986.519C519.473 990.149 515.653 993.269 512.053 996.579C511.393 997.189 510.583 997.649 509.793 998.089C507.483 999.37 505.083 1000.26 502.703 998.349C500.833 996.849 500.833 994.19 502.663 990.859C503.533 989.269 504.523 987.729 505.633 986.299C514.903 974.409 524.153 962.51 533.543 950.729C535.903 947.76 538.893 945.299 541.373 942.409C542.353 941.269 543.343 939.599 543.303 938.199C542.903 924.439 542.293 910.679 541.703 896.049C540.263 897.219 539.303 897.839 538.533 898.649C525.643 912.209 512.863 925.869 499.863 939.329C496.483 942.829 492.633 945.949 488.673 948.799C485.093 951.379 481.943 951.279 480.213 949.359C478.523 947.469 478.703 945.169 481.563 941.509C486.133 935.639 490.843 929.859 495.713 924.229C505.573 912.829 515.513 901.489 525.553 890.249C529.663 885.649 534.093 881.339 538.423 876.939C539.863 875.479 540.943 874.069 540.843 871.769C539.943 851.269 539.163 830.759 538.323 810.249C538.293 809.559 538.023 808.889 537.703 807.529C536.173 808.899 535.003 809.879 533.913 810.949C517.153 827.319 500.423 843.719 483.643 860.079C481.563 862.099 479.343 863.999 477.043 865.769C474.023 868.089 471.453 868.329 469.623 866.739C467.573 864.959 467.483 862.259 469.883 858.869C471.973 855.919 474.313 853.089 476.863 850.519C493.603 833.619 510.443 816.809 527.233 799.949C530.563 796.609 535.053 793.719 536.743 789.669C538.333 785.849 537.023 780.779 536.853 776.269C536.163 758.299 535.413 740.339 534.683 722.369C534.623 720.929 534.493 719.489 534.333 717.079C532.413 718.279 530.953 719.109 529.573 720.049C505.303 736.719 481.953 754.599 459.223 773.299C447.723 782.759 436.083 792.069 425.943 803.059C424.373 804.759 422.413 806.269 420.343 807.309C415.843 809.569 411.463 807.569 410.233 802.549C409.423 799.239 409.103 795.729 409.103 792.309C409.153 773.419 409.363 754.529 409.533 735.639C409.703 717.659 409.903 699.679 410.083 681.699C410.083 680.849 409.973 679.989 409.863 678.349C408.333 679.699 407.233 680.519 406.313 681.499C393.023 695.679 379.783 709.909 366.473 724.069C364.553 726.119 363.283 728.099 363.223 731.169C362.663 759.309 361.893 787.449 361.213 815.599C361.103 819.959 360.983 824.319 361.143 828.679C361.323 833.719 359.933 838.369 358.143 842.959C357.753 843.959 357.233 844.959 356.593 845.819C353.663 849.719 349.943 849.419 348.563 844.709C347.203 840.079 346.143 835.079 346.393 830.319C347.233 814.369 348.873 798.469 349.903 782.529C350.693 770.389 351.023 758.219 351.543 746.059C351.603 744.639 351.543 743.209 351.543 740.999C350.093 742.129 349.073 742.719 348.293 743.539C334.143 758.659 320.043 773.819 305.863 788.909C304.123 790.759 303.393 792.659 303.463 795.219C304.103 818.819 304.743 842.409 305.093 866.009C305.153 870.279 304.193 874.639 303.223 878.839C302.603 881.559 300.813 883.779 297.563 883.909C294.853 884.019 292.373 882.149 291.693 878.469C290.883 874.049 290.523 869.499 290.493 864.999C290.373 846.119 290.443 827.24 290.433 808.359C290.433 808.019 290.233 807.68 289.983 806.849C288.943 807.639 287.913 808.229 287.143 809.039C278.413 818.279 269.753 827.589 260.983 836.799C259.223 838.649 258.583 840.549 258.603 843.099C258.723 859.259 258.753 875.43 258.623 891.589C258.603 894.439 258.093 897.389 257.203 900.099C255.863 904.209 253.283 906.059 250.213 905.889C247.213 905.719 244.823 903.579 243.863 899.359C243.223 896.579 243.073 893.609 243.163 890.739C243.473 880.939 243.993 871.149 244.413 861.349C244.483 859.609 244.423 857.859 244.423 855.049C242.533 856.679 241.443 857.489 240.503 858.449C232.243 866.879 223.973 875.299 215.813 883.839C214.793 884.909 214.003 886.559 213.843 888.019C212.973 895.769 212.093 903.529 211.663 911.319C211.033 922.769 209.573 924.529 198.263 924.919C191.553 925.149 184.823 925.219 178.113 925.039C171.843 924.859 169.743 923.089 169.433 916.959C169.013 908.449 169.123 899.909 169.193 891.389C169.233 886.179 172.073 882.709 177.083 881.649C186.653 879.639 196.303 878.029 205.903 876.169C207.393 875.879 209.233 875.539 210.153 874.529C218.983 864.879 227.643 855.089 236.343 845.319C236.553 845.089 236.543 844.659 236.803 843.699C230.953 844.159 225.293 844.649 219.633 845.029C209.873 845.679 200.143 847.609 190.323 845.809C189.073 845.579 187.793 845.459 186.593 845.069C184.263 844.319 182.123 843.209 182.023 840.339C181.933 837.469 183.903 836.179 186.273 835.379C187.473 834.969 188.713 834.649 189.963 834.479C200.033 833.089 210.083 831.509 220.183 830.439C229.733 829.419 239.343 828.899 248.933 828.259C250.823 828.129 252.373 827.819 253.743 826.309C262.643 816.489 271.633 806.739 280.573 796.949C280.773 796.729 280.783 796.319 281.053 795.489C279.783 795.429 278.623 795.299 277.483 795.329C258.413 795.779 239.353 796.329 220.283 796.629C215.963 796.699 211.613 796.059 207.303 795.489C205.743 795.279 204.113 794.589 202.823 793.679C199.763 791.549 200.033 787.769 203.453 786.339C205.753 785.379 208.353 784.93 210.853 784.719C225.333 783.529 239.803 782.319 254.303 781.449C267.163 780.679 280.053 780.299 292.933 779.859C295.233 779.779 297.073 779.329 298.713 777.539C312.463 762.539 326.283 747.619 340.063 732.659C340.523 732.159 340.833 731.529 341.653 730.319C339.413 730.199 337.713 730.059 336.003 730.029C312.033 729.699 288.063 729.419 264.093 729.029C261.213 728.979 258.313 728.529 255.463 728.029C253.313 727.649 251.853 726.259 251.733 723.949C251.613 721.689 252.833 720.039 254.883 719.349C256.923 718.669 259.093 718.119 261.233 718.039C273.213 717.619 285.193 717.129 297.173 717.089C314.243 717.039 331.323 717.259 348.393 717.579C352.333 717.649 355.133 716.519 357.843 713.529C371.863 698.049 386.113 682.769 400.273 667.409C401.123 666.489 401.903 665.519 403.103 664.129C401.633 663.599 400.583 663.009 399.463 662.849C372.883 659.029 346.303 655.129 319.693 651.529C309.443 650.139 299.113 649.239 288.793 648.519C281.743 648.029 274.633 648.319 267.553 648.119C264.843 648.039 262.063 647.919 259.473 647.229C254.323 645.859 252.293 641.189 255.033 636.599C256.873 633.519 259.283 630.689 261.843 628.159C274.983 615.099 288.243 602.169 301.463 589.189C314.293 576.589 327.123 563.999 339.953 551.389C340.693 550.659 341.333 549.839 342.563 548.429C340.303 548.319 338.763 548.139 337.233 548.189C317.633 548.849 298.023 549.589 278.423 550.169C275.823 550.249 274.043 551.259 272.253 552.979C248.403 575.859 224.573 598.769 200.523 621.449C197.313 624.479 193.023 626.449 189.023 628.519C186.783 629.669 183.883 630.259 181.873 628.119C179.743 625.869 181.103 623.259 182.373 621.069C184.923 616.649 188.143 612.859 192.063 609.439C213.403 590.809 234.543 571.959 255.743 553.169C256.103 552.849 256.273 552.329 256.803 551.429C255.263 551.309 254.093 551.109 252.933 551.139C232.603 551.809 212.273 552.579 191.943 553.139C188.573 553.229 186.273 554.359 183.963 556.799C167.623 574.089 151.203 591.299 134.623 608.349C132.023 611.019 128.633 613.029 125.363 614.919C122.933 616.329 120.103 616.539 117.763 614.379C115.973 612.719 115.523 609.649 117.433 606.819C119.943 603.099 122.863 599.579 126.013 596.379C139.403 582.809 152.953 569.399 166.433 555.909C166.663 555.679 166.743 555.279 167.073 554.559C166.173 554.379 165.373 554.059 164.593 554.079C151.703 554.469 138.813 554.989 125.923 555.269C122.743 555.339 120.653 556.579 118.473 558.809C107.033 570.479 95.4228 581.989 83.8128 593.499C81.1928 596.099 78.0728 598.009 74.2928 598.349C69.5128 598.789 66.6729 595.629 67.6429 590.909C68.4829 586.819 71.0829 583.799 74.1029 581.069C81.5129 574.369 88.8928 567.639 96.2428 560.879C97.5528 559.669 98.7127 558.289 100.473 556.429C98.8227 556.199 97.8529 555.939 96.8929 555.959C84.5429 556.139 72.1929 556.299 59.8529 556.669C58.2229 556.719 56.3628 557.589 55.0528 558.629C49.2328 563.259 43.5629 568.089 37.8429 572.859C36.1729 574.259 34.6429 575.839 32.8629 577.089C29.1529 579.709 25.7628 579.639 22.4928 576.589C16.3928 570.889 10.3028 565.159 4.51278 559.149C-0.117217 554.359 -0.257051 551.899 4.18295 546.909C9.59295 540.809 15.4628 535.109 21.2628 529.359C25.4528 525.209 30.3429 524.829 35.1629 528.049C43.1429 533.389 50.9128 539.029 58.8329 544.469C59.9328 545.229 61.3829 546.009 62.6329 545.939C75.8629 545.259 89.0928 544.419 102.313 543.609C102.443 543.609 102.553 543.399 103.013 542.969C102.013 542.019 101.073 541.019 100.033 540.139C93.2528 534.369 86.2827 528.819 79.7227 522.819C75.4627 518.919 71.5527 514.569 67.9427 510.059C65.1027 506.519 65.1929 503.579 67.1729 501.699C69.0629 499.909 71.5029 499.819 75.1429 502.369C81.9829 507.149 88.7728 512.039 95.2628 517.289C104.143 524.479 112.793 531.959 121.363 539.509C123.983 541.819 126.553 542.889 130.103 542.689C141.343 542.039 152.603 541.729 163.853 541.239C165.443 541.169 167.013 540.889 169.343 540.619C167.893 539.119 166.983 538.109 166.003 537.179C152.313 524.169 138.553 511.229 124.963 498.109C121.853 495.109 119.213 491.579 116.623 488.099C115.593 486.709 114.913 484.829 114.723 483.099C114.343 479.689 117.183 477.549 120.373 478.869C122.353 479.679 124.223 480.949 125.863 482.339C138.163 492.819 150.493 503.279 162.613 513.959C171.333 521.639 179.773 529.629 188.273 537.549C189.933 539.099 191.473 540.199 193.953 540.079C213.913 539.169 233.873 538.379 253.833 537.539C254.903 537.499 255.953 537.299 257.803 537.079C256.423 535.499 255.463 534.299 254.403 533.209C238.153 516.579 221.873 499.989 205.653 483.329C203.253 480.859 201.063 478.169 198.953 475.459C197.413 473.479 196.773 471.199 198.553 468.959C200.053 467.059 202.693 466.709 205.473 468.549C208.483 470.539 211.393 472.799 213.953 475.329C231.013 492.169 247.963 509.119 264.953 526.029C268.293 529.359 271.113 533.949 275.143 535.649C279.133 537.329 284.353 536.249 289.033 536.119C298.833 535.839 308.633 535.409 318.433 535.009C328.043 534.619 337.653 534.189 347.433 533.779C347.853 531.359 346.103 530.049 345.053 528.529C327.663 503.209 308.943 478.899 289.363 455.239C280.903 445.019 272.533 434.749 262.763 425.709C261.053 424.129 259.493 422.249 258.353 420.219C255.703 415.529 257.493 410.909 262.693 409.549C265.983 408.689 269.503 408.419 272.923 408.429C298.353 408.509 323.783 408.709 349.213 408.919C360.473 409.009 371.733 409.219 382.993 409.379C384.023 409.389 385.063 409.379 387.013 409.379C385.743 407.799 385.113 406.799 384.283 406.009C369.843 392.459 355.353 378.969 340.943 365.389C338.973 363.539 336.983 362.629 334.203 362.569C305.693 361.959 277.193 361.199 248.693 360.519C244.333 360.409 239.923 360.879 235.633 360.309C230.833 359.669 226.143 358.189 221.433 356.979C220.603 356.759 219.833 356.119 219.143 355.529C215.903 352.779 216.203 349.569 220.143 347.949C225.053 345.929 230.233 345.109 235.593 345.519C253.153 346.869 270.703 348.279 288.273 349.419C300.033 350.179 311.823 350.509 324.543 351.069C323.373 349.519 322.823 348.519 322.033 347.779C306.923 333.619 291.753 319.529 276.683 305.329C274.663 303.419 272.603 302.729 269.873 302.799C246.093 303.399 222.313 303.989 198.533 304.309C194.443 304.369 190.263 303.429 186.253 302.419C183.553 301.739 181.283 299.829 181.373 296.609C181.463 293.399 183.803 291.629 186.553 291.069C190.433 290.279 194.433 289.739 198.383 289.719C217.813 289.629 237.243 289.759 256.673 289.789C257.203 289.789 257.733 289.629 258.803 289.449C257.883 288.309 257.253 287.309 256.423 286.519C247.183 277.789 237.863 269.129 228.673 260.359C226.823 258.599 224.953 257.909 222.393 257.929C206.233 258.059 190.063 258.149 173.903 257.929C170.383 257.879 166.783 256.769 163.423 255.599C160.953 254.739 159.313 252.589 159.413 249.669C159.503 246.759 161.233 244.679 163.783 244.019C167.403 243.089 171.223 242.339 174.933 242.449C186.353 242.769 197.763 243.529 210.503 244.179C208.913 242.149 208.213 241.039 207.293 240.139C198.723 231.759 190.173 223.359 181.473 215.109C180.283 213.979 178.393 213.189 176.743 212.989C169.723 212.149 162.663 211.589 155.613 210.939C152.723 210.669 149.793 210.629 146.943 210.109C143.183 209.419 141.013 207.159 140.853 203.469C140.493 195.129 140.113 186.769 140.283 178.429C140.433 170.659 141.953 169.049 149.553 168.659C157.693 168.239 165.863 168.409 174.013 168.499C179.533 168.559 182.853 171.729 183.893 176.929C185.783 186.339 187.333 195.819 189.083 205.249C189.333 206.579 189.563 208.279 190.443 209.089C200.373 218.119 210.433 227.019 220.663 236.129C222.253 234.369 221.443 232.519 221.323 230.889C220.623 221.289 219.603 211.709 219.103 202.099C218.853 197.419 219.213 192.649 219.793 187.989C220.343 183.619 222.443 181.319 224.993 181.189C227.613 181.059 229.723 183.049 230.483 187.599C232.073 197.079 233.563 206.599 234.573 216.159C235.683 226.619 236.243 237.129 237.003 247.619C237.143 249.619 237.213 251.429 238.953 252.989C248.793 261.869 258.523 270.889 268.303 279.829C268.663 280.159 269.223 280.289 270.313 280.799C270.163 278.159 269.983 275.919 269.933 273.679C269.463 255.339 268.953 236.999 268.613 218.659C268.553 215.229 269.133 211.799 269.463 208.369C269.553 207.469 269.753 206.569 270.003 205.709C271.183 201.689 273.083 199.779 275.663 200.149C279.153 200.649 279.753 203.569 280.083 206.229C280.993 213.429 281.813 220.659 282.333 227.899C283.503 244.199 284.533 260.519 285.473 276.829C285.773 282.079 285.673 287.359 285.633 292.629C285.613 294.749 286.113 296.399 287.763 297.909C302.893 311.779 317.943 325.729 333.033 339.639C333.403 339.979 333.913 340.159 335.053 340.819C335.163 338.729 335.323 337.039 335.333 335.359C335.593 312.479 335.803 289.589 336.123 266.709C336.173 263.089 336.633 259.469 337.023 255.859C337.303 253.299 338.563 251.349 341.303 250.939C343.553 250.609 345.943 252.449 346.513 255.569C347.263 259.659 347.793 263.849 347.813 267.999C347.943 291.969 347.883 315.949 347.913 339.919C347.913 344.269 346.863 349.119 348.433 352.839C349.993 356.529 354.173 359.169 357.353 362.109C370.403 374.219 383.503 386.269 396.593 398.329C398.003 399.629 399.453 400.869 401.663 402.829C403.123 394.859 404.543 387.979 405.643 381.049C410.713 348.929 414.703 316.679 417.043 284.249C417.413 279.189 417.203 274.089 417.323 269.009C417.383 266.109 417.293 263.169 417.733 260.319C418.763 253.639 424.093 251.149 429.673 254.869C432.823 256.969 435.693 259.559 438.363 262.259C456.483 280.609 474.513 299.059 492.573 317.469C499.693 324.729 506.813 331.999 513.943 339.249C514.653 339.969 515.463 340.589 516.813 341.779C516.953 339.969 517.123 338.959 517.083 337.959C516.433 317.989 515.723 298.019 515.143 278.049C515.063 275.309 514.113 273.319 512.223 271.349C492.623 250.889 473.123 230.339 453.573 209.829C450.693 206.809 447.813 203.769 444.773 200.909C441.103 197.449 438.823 193.149 436.913 188.619C436.433 187.479 436.163 186.169 436.113 184.929C435.943 180.859 438.133 179.149 441.973 180.679C447.103 182.719 451.323 186.069 454.993 190.249C473.683 211.539 492.443 232.759 511.193 253.989C511.883 254.769 512.713 255.409 514.163 256.749C514.263 254.759 514.393 253.599 514.353 252.449C513.683 232.299 512.913 212.149 512.363 191.999C512.263 188.269 511.073 185.629 508.323 183.039C491.013 166.719 473.813 150.289 456.763 133.699C454.093 131.109 452.113 127.679 450.303 124.369C448.623 121.309 449.183 118.489 451.123 116.859C453.393 114.949 456.033 115.089 458.233 116.559C461.673 118.859 465.103 121.319 468.023 124.219C481.693 137.769 495.183 151.499 508.753 165.139C509.223 165.609 509.873 165.889 511.023 166.639C511.133 164.919 511.303 163.749 511.263 162.589C510.893 150.059 510.413 137.539 510.173 125.009C510.113 121.989 508.903 120.059 506.823 118.009C495.033 106.429 483.323 94.7694 471.793 82.9294C469.723 80.7994 468.373 77.8194 467.203 75.0194C466.173 72.5494 466.663 69.9294 468.863 68.0694C470.833 66.3994 473.303 65.9194 475.473 67.2394C478.673 69.1994 481.973 71.2394 484.553 73.9094C491.623 81.2094 498.343 88.8594 505.223 96.3394C506.163 97.3594 507.293 98.2094 508.973 99.7194C509.113 97.9794 509.273 96.9994 509.263 96.0194C509.143 83.6694 509.053 71.3294 508.783 58.9794C508.753 57.5294 507.903 55.8794 506.963 54.6994C502.073 48.6194 497.033 42.6594 492.033 36.6594C490.873 35.2694 489.553 33.9894 488.493 32.5194C485.373 28.2094 485.453 25.2594 489.113 21.3594C494.693 15.3994 500.303 9.43942 506.183 3.77942C510.973 -0.84058 513.403 -0.980598 518.413 3.4794C524.633 9.0294 530.463 15.0294 536.293 20.9994C540.073 24.8694 540.483 29.4994 537.513 33.9594C532.093 42.1094 526.373 50.0494 520.843 58.1194C520.083 59.2294 519.203 60.6294 519.263 61.8494C519.923 75.2194 520.773 88.5794 521.613 102.749C522.993 101.479 523.933 100.769 524.683 99.8894C530.573 92.9794 536.283 85.9094 542.353 79.1494C545.853 75.2494 549.843 71.7794 553.733 68.2494C554.913 67.1694 556.423 66.3694 557.903 65.7194C559.813 64.8894 561.813 64.7394 563.483 66.3594C565.143 67.9694 565.183 69.9394 564.293 71.8894C563.543 73.5294 562.673 75.1594 561.603 76.6094C550.593 91.4994 539.683 106.479 526.663 119.729C523.513 122.939 522.243 126.239 522.603 130.829C523.463 141.869 523.733 152.959 524.253 164.019C524.313 165.269 524.473 166.519 524.643 168.449C525.913 167.359 526.863 166.679 527.653 165.849C540.543 152.289 553.393 138.689 566.293 125.139C568.293 123.039 570.413 121.029 572.643 119.179C574.453 117.679 576.413 116.329 578.473 115.189C581.743 113.379 584.573 113.529 585.933 115.439C587.743 117.989 586.593 120.349 584.993 122.419C581.223 127.299 577.463 132.219 573.423 136.879C562.243 149.789 550.983 162.619 539.643 175.379C535.783 179.719 531.473 183.649 527.573 187.949C526.473 189.169 525.443 191.059 525.493 192.619C526.143 213.829 526.993 235.029 527.843 257.509C529.893 255.669 531.183 254.589 532.373 253.429C548.873 237.309 565.333 221.149 581.863 205.059C584.333 202.659 587.013 200.469 589.723 198.329C591.693 196.769 593.983 196.149 596.263 197.759C598.143 199.089 598.543 201.959 596.813 204.679C595.073 207.419 593.063 210.069 590.783 212.369C573.563 229.819 556.233 247.169 538.953 264.559C535.633 267.899 531.153 270.779 529.423 274.829C527.793 278.659 528.923 283.729 529.093 288.249C529.773 306.579 530.543 324.909 531.293 343.239C531.343 344.439 531.543 345.629 531.743 347.399C533.483 346.399 534.733 345.789 535.873 345.009C567.493 323.289 597.593 299.589 626.713 274.639C630.973 270.989 634.733 266.749 638.783 262.829C640.473 261.189 642.163 259.479 644.113 258.189C649.523 254.589 654.693 256.629 656.143 262.899C656.633 265.009 656.833 267.219 656.873 269.389C656.983 275.929 657.033 282.469 656.973 288.999C656.693 320.059 656.373 351.119 656.093 382.169C656.093 383.189 656.253 384.209 656.423 386.129C657.923 384.769 658.863 384.049 659.653 383.189C673.063 368.869 686.423 354.509 699.903 340.249C701.933 338.099 702.733 335.859 702.793 332.959C703.473 300.099 704.143 267.229 705.113 234.369C705.243 229.949 706.963 225.559 708.093 221.189C708.353 220.179 709.083 219.239 709.773 218.409C712.523 215.109 715.653 215.379 717.333 219.329C719.503 224.409 720.153 229.799 719.673 235.329C718.723 246.359 717.623 257.389 716.953 268.439C715.913 285.659 715.183 302.899 714.323 320.129C714.273 321.139 714.323 322.159 714.323 324.209C716.203 322.449 717.393 321.449 718.453 320.319C732.103 305.729 745.683 291.069 759.423 276.569C761.753 274.109 762.533 271.639 762.453 268.309C761.833 244.529 761.313 220.749 761.023 196.959C760.973 193.059 761.943 189.049 763.033 185.259C764.013 181.879 766.443 180.379 768.993 180.659C771.933 180.979 773.673 182.999 774.133 185.579C774.903 189.819 775.473 194.159 775.503 198.469C775.643 218.049 775.563 237.629 775.563 257.989C776.963 256.989 778.003 256.469 778.753 255.679C787.613 246.309 796.393 236.859 805.303 227.539C807.113 225.639 807.453 223.679 807.433 221.159C807.293 204.639 807.303 188.109 807.413 171.589C807.423 169.279 808.023 166.899 808.763 164.689C809.833 161.459 811.623 158.709 815.593 158.689C818.693 158.669 821.133 160.659 822.043 164.989C822.813 168.659 822.923 172.519 822.823 176.289C822.603 185.179 822.073 194.069 821.693 202.959C821.613 204.729 821.683 206.509 821.683 209.329C823.493 207.839 824.603 207.079 825.523 206.139C833.783 197.709 842.053 189.279 850.183 180.729C851.313 179.539 852.183 177.689 852.363 176.059C853.263 167.759 853.903 159.429 854.633 151.109C854.773 149.479 854.763 147.819 855.123 146.239C856.013 142.299 858.203 140.209 862.313 140.039C870.833 139.689 879.373 139.409 887.903 139.539C894.263 139.639 896.073 141.169 896.513 147.599C897.093 156.089 897.043 164.639 896.903 173.149C896.813 178.499 893.793 182.039 888.473 183.069C878.873 184.929 869.233 186.549 859.633 188.369C858.323 188.619 856.753 189.079 855.913 190.009C847.233 199.539 838.663 209.179 830.093 218.809C829.763 219.179 829.643 219.729 829.103 220.909C835.613 220.379 841.643 219.849 847.673 219.419C857.073 218.749 866.463 217.069 875.903 218.799C877.843 219.159 879.893 219.559 881.583 220.499C885.063 222.439 885.063 226.279 881.623 228.299C880.103 229.189 878.263 229.719 876.503 229.979C866.993 231.399 857.483 232.939 847.923 233.949C837.833 235.019 827.673 235.479 817.553 236.349C815.873 236.489 813.733 236.879 812.693 237.989C803.243 248.019 793.993 258.239 784.103 269.029C785.963 269.139 787.093 269.279 788.223 269.259C807.833 268.799 827.443 268.249 847.053 267.899C850.833 267.829 854.633 268.499 858.403 268.969C859.633 269.119 860.853 269.619 862.013 270.129C863.963 270.989 865.443 272.409 865.293 274.669C865.153 276.929 863.553 278.229 861.463 278.729C859.353 279.239 857.193 279.709 855.033 279.849C827.853 281.539 800.683 283.209 773.493 284.749C770.783 284.899 768.723 285.499 766.823 287.579C753.343 302.319 739.743 316.959 726.193 331.649C725.623 332.269 725.173 333.009 724.053 334.529C726.693 334.529 728.423 334.509 730.163 334.529C753.773 334.829 777.383 335.099 800.993 335.469C804.063 335.519 807.143 335.949 810.183 336.419C812.533 336.779 814.273 338.149 814.363 340.709C814.453 343.239 812.843 344.739 810.583 345.429C808.863 345.949 807.053 346.399 805.273 346.459C793.293 346.859 781.323 347.379 769.343 347.429C752.273 347.499 735.193 347.329 718.123 346.989C713.783 346.909 710.733 348.149 707.773 351.439C694.283 366.419 680.513 381.149 666.843 395.969C665.633 397.289 664.483 398.659 662.913 400.459C664.643 400.999 665.893 401.549 667.203 401.789C700.443 407.869 733.903 412.359 767.583 415.049C777.703 415.859 787.883 415.949 798.033 416.399C800.383 416.499 802.773 416.519 805.073 416.959C812.113 418.299 814.313 423.489 810.123 429.389C807.723 432.769 804.833 435.859 801.863 438.779C784.283 456.129 766.613 473.389 748.973 490.679C741.323 498.179 733.663 505.679 726.023 513.189C725.283 513.909 724.633 514.719 723.173 516.339C725.663 516.339 727.203 516.389 728.733 516.339C748.333 515.669 767.943 514.949 787.543 514.349C790.103 514.269 791.933 513.359 793.743 511.619C817.593 488.729 841.423 465.819 865.463 443.149C868.673 440.119 873.013 438.249 876.933 436.019C877.973 435.429 879.393 435.309 880.643 435.289C884.373 435.219 886.113 437.429 884.773 440.909C882.863 445.889 879.723 450.109 875.703 453.649C855.113 471.749 834.513 489.849 813.943 507.979C812.363 509.369 810.943 510.959 808.903 512.999C810.403 513.229 811.213 513.479 812.003 513.459C832.693 512.789 853.393 512.009 874.083 511.469C877.723 511.379 880.043 509.859 882.423 507.349C898.783 490.079 915.203 472.869 931.783 455.809C934.253 453.269 937.543 451.429 940.663 449.629C943.123 448.209 945.913 447.999 948.243 450.179C950.053 451.869 950.443 454.839 948.573 457.729C946.323 461.189 943.743 464.529 940.843 467.459C927.173 481.259 913.343 494.909 899.583 508.619C899.343 508.859 899.243 509.249 898.853 509.989C899.723 510.189 900.483 510.529 901.233 510.509C913.943 510.129 926.643 509.599 939.353 509.369C943.143 509.299 945.583 507.759 948.173 505.109C959.443 493.529 970.893 482.109 982.533 470.899C984.773 468.739 987.973 467.129 991.013 466.359C996.343 465.019 1000.22 469.359 998.123 474.399C996.713 477.789 994.273 480.989 991.623 483.569C984.463 490.529 976.923 497.089 969.573 503.849C968.313 505.009 967.253 506.379 965.293 508.549C967.883 508.549 969.253 508.569 970.633 508.549C982.433 508.359 994.243 508.229 1006.03 507.869C1007.66 507.819 1009.54 507.009 1010.84 505.969C1016.81 501.229 1022.62 496.289 1028.48 491.409C1030.15 490.019 1031.7 488.439 1033.5 487.229C1037.06 484.829 1040.3 484.929 1043.42 487.829C1049.53 493.519 1055.61 499.269 1061.4 505.269C1066.2 510.239 1066.4 512.439 1061.97 517.439C1056.45 523.679 1050.46 529.519 1044.51 535.369C1040.47 539.339 1035.68 539.639 1031.06 536.569C1023.06 531.259 1015.27 525.629 1007.35 520.209C1006.24 519.449 1004.85 518.499 1003.63 518.559C990.253 519.189 976.883 519.989 962.573 520.809C964.053 522.379 964.883 523.449 965.893 524.309C972.523 529.969 979.333 535.429 985.803 541.259C989.833 544.889 993.433 549.009 997.123 552.999C998.093 554.049 998.843 555.369 999.413 556.679C1000.31 558.749 1000.68 560.949 998.873 562.769C997.053 564.589 994.903 564.339 992.833 563.249C991.073 562.319 989.303 561.349 987.733 560.129C975.543 550.659 963.353 541.189 951.283 531.579C948.313 529.219 945.843 526.239 942.953 523.769C941.823 522.799 940.133 521.869 938.733 521.909C925.303 522.359 911.883 523.029 898.463 523.649C898.133 523.669 897.823 523.939 897.133 524.279C897.993 525.219 898.723 526.139 899.563 526.939C913.133 539.819 926.773 552.619 940.253 565.599C943.503 568.729 946.283 572.359 949.103 575.909C950.093 577.149 950.653 578.769 951.223 580.289C951.943 582.179 951.563 584.159 949.823 585.089C948.573 585.759 946.583 585.999 945.303 585.479C943.163 584.609 941.193 583.149 939.413 581.629C928.483 572.329 917.523 563.069 906.783 553.559C897.003 544.899 887.453 535.959 877.863 527.069C876.213 525.539 874.703 524.379 872.203 524.489C851.523 525.439 830.833 526.249 810.143 527.119C809.793 527.129 809.443 527.299 808.333 527.589C809.513 528.949 810.413 530.099 811.443 531.149C827.943 548.039 844.473 564.899 860.943 581.809C863.093 584.019 865.103 586.389 866.923 588.869C869.043 591.759 869.023 594.019 867.303 595.779C865.673 597.459 863.123 597.649 860.303 595.839C857.873 594.279 855.523 592.499 853.473 590.469C835.773 572.979 818.163 555.409 800.513 537.879C797.303 534.689 794.533 530.389 790.653 528.709C786.993 527.129 782.123 528.189 777.783 528.339C758.723 529.039 739.673 529.829 720.613 530.599C719.933 530.629 719.253 530.799 718.043 530.989C718.883 532.519 719.443 533.789 720.213 534.909C736.963 559.349 754.933 582.859 773.753 605.729C783.333 617.369 792.743 629.149 803.863 639.419C805.563 640.989 807.013 642.989 808.043 645.059C810.113 649.199 808.553 653.349 804.143 654.689C800.903 655.679 797.373 656.049 793.963 656.049C774.893 656.049 755.823 655.819 736.753 655.759C717.873 655.699 699.003 655.749 679.833 655.749C680.193 656.359 680.523 657.329 681.183 657.949C696.023 671.869 710.913 685.719 725.723 699.669C727.463 701.309 729.303 701.839 731.593 701.879C764.453 702.579 797.323 703.209 830.183 704.199C834.953 704.339 839.683 706.219 844.393 707.429C845.393 707.689 846.323 708.459 847.123 709.169C850.163 711.879 849.923 714.769 846.203 716.389C841.153 718.609 835.783 719.309 830.243 718.949C802.713 717.139 775.173 715.389 747.633 713.649C745.873 713.539 744.093 713.639 741.393 713.639C742.813 715.259 743.613 716.359 744.583 717.259C759.443 731.159 774.353 744.989 789.153 758.949C791.313 760.989 793.513 761.729 796.433 761.659C820.213 761.069 843.993 760.519 867.773 760.199C871.693 760.149 875.693 761.019 879.543 761.949C882.263 762.609 884.463 764.429 884.643 767.629C884.793 770.279 882.853 772.74 879.153 773.479C875.103 774.289 870.903 774.669 866.773 774.689C847.173 774.809 827.573 774.739 807.233 774.739C808.233 776.109 808.773 777.139 809.583 777.899C818.823 786.639 828.143 795.279 837.323 804.079C839.343 806.019 841.413 806.549 844.153 806.529C860.493 806.389 876.843 806.399 893.193 806.499C895.513 806.509 897.903 807.009 900.123 807.709C904.413 809.049 906.783 811.769 906.733 814.759C906.683 817.809 904.243 820.479 899.813 821.389C896.673 822.039 893.343 822.149 890.123 822.029C879.083 821.599 868.043 820.959 855.883 820.349C857.163 822.199 857.673 823.239 858.443 823.999C867.123 832.519 875.793 841.069 884.623 849.429C885.933 850.669 888.063 851.409 889.903 851.629C897.293 852.479 904.723 853.029 912.133 853.679C914.303 853.869 916.503 853.879 918.643 854.249C922.833 854.979 925.213 857.339 925.343 861.599C925.623 870.49 925.733 879.389 925.573 888.289C925.483 893.159 923.753 895.269 919.153 895.499C909.933 895.959 900.683 895.959 891.453 895.889C886.403 895.849 883.273 892.719 882.283 888.029C880.263 878.459 878.673 868.789 876.813 859.189C876.523 857.709 876.143 855.889 875.123 854.969C865.343 846.049 855.413 837.279 844.963 827.969C844.833 829.659 844.603 830.789 844.693 831.899C845.363 840.409 846.323 848.899 846.733 857.419C847.013 863.379 846.583 869.37 846.433 875.339C846.413 876.059 846.243 876.779 846.063 877.489C845.183 881.079 843.413 883.159 841.133 883.319C838.683 883.489 836.383 881.469 835.653 877.489C834.233 869.819 833.073 862.089 832.073 854.359C831.033 846.26 830.203 838.119 829.483 829.989C829.063 825.299 829.163 820.569 828.763 815.879C828.633 814.399 828.043 812.589 827.013 811.619C817.093 802.319 807.033 793.159 796.313 783.329C796.153 785.409 795.933 786.709 795.963 788.009C796.403 806.169 796.963 824.32 797.283 842.479C797.363 847.349 796.773 852.249 796.373 857.119C796.273 858.359 795.803 859.599 795.313 860.759C794.423 862.899 793.043 864.559 790.433 864.329C787.813 864.089 786.633 862.149 786.313 859.909C785.423 853.799 784.533 847.679 784.083 841.529C782.873 825.049 781.803 808.559 780.863 792.059C780.493 785.539 780.523 778.989 780.553 772.449C780.563 769.919 779.923 768.019 777.983 766.249C763.243 752.759 748.593 739.169 733.903 725.629C733.153 724.939 732.263 724.419 730.613 723.219C730.613 725.839 730.633 727.579 730.613 729.319C730.283 753.839 729.963 778.349 729.583 802.859C729.543 805.2 729.183 807.56 728.703 809.849C728.253 811.979 726.763 813.469 724.533 813.549C722.313 813.639 720.563 812.269 720.013 810.239C719.223 807.289 718.553 804.199 718.523 801.159C718.323 775.919 718.273 750.679 718.193 725.439C718.183 721.809 718.173 718.169 718.293 714.539C718.363 712.409 717.793 710.719 716.163 709.229C699.433 693.879 682.753 678.479 666.053 663.099C665.813 662.879 665.413 662.819 664.613 662.489C664.183 663.959 663.613 665.379 663.343 666.859C657.833 697.259 653.733 727.849 650.833 758.609C649.533 772.359 648.343 786.089 648.723 799.929C648.783 802.059 648.423 804.319 647.723 806.329C646.143 810.919 641.863 812.769 637.693 810.329C634.443 808.429 631.463 805.909 628.783 803.239C618.113 792.589 607.603 781.779 597.043 771.019C582.153 755.849 567.283 740.679 552.383 725.519C551.543 724.659 550.573 723.919 548.723 722.299L548.753 722.459ZM278.123 634.589C279.593 634.869 280.103 635.049 280.613 635.049C317.763 635.569 354.423 640.619 390.903 647.149C396.963 648.229 402.903 649.939 408.903 651.349C412.023 652.079 414.703 652.239 417.163 649.219C421.283 644.159 426.003 639.589 430.263 634.639C431.473 633.229 432.383 631.269 432.713 629.429C435.053 616.399 437.093 603.319 439.493 590.309C440.063 587.219 439.593 585.379 436.903 583.519C423.753 574.449 410.783 565.129 397.683 555.979C393.233 552.869 388.933 548.799 383.943 547.389C378.743 545.919 372.783 547.299 367.173 547.099C363.723 546.969 361.553 548.369 359.283 550.849C333.933 578.609 308.433 606.229 280.783 631.749C280.003 632.469 279.333 633.289 278.113 634.589H278.123ZM635.413 787.319C635.573 785.739 635.713 784.919 635.723 784.089C636.143 759.719 638.493 735.519 641.983 711.409C644.683 692.729 646.963 673.969 652.203 655.759C653.093 652.659 652.483 650.329 649.853 648.149C645.243 644.329 640.873 640.199 636.573 636.039C634.383 633.919 631.993 632.929 628.953 632.449C616.233 630.459 603.543 628.289 590.903 625.839C587.653 625.209 585.953 626.029 584.173 628.599C574.963 641.879 565.573 655.029 556.323 668.279C553.313 672.589 549.353 676.729 548.003 681.559C546.603 686.589 547.953 692.359 547.863 697.799C547.803 701.319 549.033 703.769 551.713 706.219C579.493 731.559 607.123 757.059 632.623 784.749C633.303 785.489 634.113 786.129 635.423 787.329L635.413 787.319ZM625.923 478.539C627.113 479.439 628.083 480.229 629.113 480.959C642.143 490.169 655.163 499.399 668.233 508.549C672.683 511.659 676.943 515.769 681.933 517.189C687.123 518.679 693.083 517.319 698.693 517.509C702.073 517.629 704.353 516.469 706.663 513.949C732.113 486.089 757.693 458.339 785.453 432.719C786.253 431.989 786.783 430.959 787.593 429.859C786.633 429.689 786.283 429.569 785.933 429.569C751.003 429.179 716.513 424.619 682.163 418.709C673.783 417.269 665.513 415.189 657.223 413.259C653.773 412.459 651.093 412.689 648.593 415.789C644.723 420.579 640.393 424.999 636.143 429.469C634.443 431.259 633.693 433.189 633.303 435.669C631.423 447.849 629.273 459.979 627.193 472.119C626.833 474.229 626.363 476.319 625.923 478.539ZM425.233 784.839C426.293 784.029 426.853 783.68 427.323 783.229C450.993 760.32 476.923 740.169 503.683 721.079C511.943 715.189 520.653 709.929 529.153 704.369C531.393 702.909 533.943 701.849 533.723 698.319C533.283 691.259 533.233 684.169 532.733 677.109C532.603 675.269 531.693 673.299 530.613 671.749C523.043 660.889 515.343 650.129 507.683 639.329C506.963 638.319 506.253 637.299 505.423 636.109C503.333 636.349 501.353 636.489 499.413 636.829C481.373 639.979 463.353 643.259 445.293 646.279C440.233 647.129 436.053 648.929 432.893 653.119C431.153 655.419 429.103 657.559 426.903 659.429C423.853 662.039 423.093 665.029 423.283 669.019C425.103 706.549 426.463 744.099 424.933 781.679C424.903 782.499 425.083 783.339 425.233 784.839ZM641.143 279.549C639.453 280.959 638.613 281.579 637.863 282.299C609.663 309.169 578.743 332.619 546.623 354.539C543.183 356.889 539.453 358.809 535.843 360.889C533.273 362.379 531.873 364.299 532.313 367.519C532.753 370.749 533.113 374.069 532.833 377.289C532.043 386.329 535.293 393.409 541.113 400.329C547.613 408.069 552.823 416.909 558.403 425.399C559.883 427.659 561.393 428.879 564.113 428.179C564.983 427.959 565.913 427.949 566.803 427.789C585.013 424.579 603.223 421.309 621.453 418.179C626.093 417.379 629.963 415.739 632.933 411.839C635.343 408.679 638.503 406.109 641.023 403.029C642.053 401.769 642.823 399.849 642.793 398.239C642.643 389.719 642.233 381.189 641.853 372.669C640.553 343.289 639.913 313.899 641.133 284.489C641.183 283.249 641.133 281.999 641.133 279.539L641.143 279.549ZM429.783 504.369C426.683 487.049 423.653 469.899 420.503 452.779C419.523 447.449 419.263 441.579 416.713 437.069C414.153 432.529 409.153 429.359 405.223 425.589C404.833 425.209 404.383 424.879 404.043 424.459C402.633 422.739 400.813 422.449 398.683 422.539C383.263 423.179 367.833 424.049 352.403 424.219C329.893 424.469 307.383 424.189 284.873 424.149C283.583 424.149 282.293 424.319 280.403 424.459C281.513 425.759 282.083 426.449 282.683 427.119C291.493 437.029 300.673 446.619 309.033 456.889C327.823 479.989 346.383 503.299 361.403 529.139C363.023 531.929 365.033 533.229 368.453 532.939C374.963 532.389 381.503 532.209 388.043 531.999C390.343 531.929 392.133 531.179 393.943 529.739C399.483 525.339 405.093 520.999 410.873 516.919C416.783 512.739 422.933 508.889 429.803 504.359L429.783 504.369ZM430.703 277.199C430.533 279.569 430.423 280.649 430.393 281.719C429.743 306.989 427.323 332.099 423.573 357.079C420.963 374.489 418.883 391.999 413.823 408.939C412.863 412.139 413.823 414.389 416.353 416.529C420.923 420.399 425.323 424.479 429.613 428.669C431.813 430.819 434.253 431.739 437.263 432.219C449.803 434.189 462.333 436.269 474.793 438.689C478.173 439.349 480.103 438.739 482.033 435.929C492.773 420.399 503.573 404.909 514.563 389.549C517.573 385.339 519.093 381.079 518.403 375.909C518.003 372.869 517.953 369.719 518.193 366.659C518.483 362.999 516.883 360.709 514.273 358.319C486.673 333.059 459.133 307.719 433.753 280.169C433.063 279.419 432.283 278.729 430.713 277.199H430.703ZM637.003 559.669C637.003 560.909 636.893 561.649 637.023 562.349C640.663 583.059 644.283 603.769 648.073 624.449C648.403 626.259 649.603 628.129 650.903 629.489C654.423 633.139 658.273 636.469 661.893 640.039C663.433 641.559 665.053 642.179 667.233 642.069C673.573 641.719 679.923 641.559 686.263 641.309C718.173 640.039 750.073 638.799 782.003 640.479C783.003 640.529 784.003 640.399 785.763 640.309C784.623 638.929 784.003 638.119 783.323 637.359C775.463 628.569 767.273 620.059 759.793 610.959C739.983 586.849 720.533 562.449 704.703 535.429C703.063 532.629 701.073 531.239 697.683 531.619C694.083 532.029 690.423 532.219 686.813 532.059C678.653 531.689 671.983 534.219 665.773 539.819C659.893 545.119 652.863 549.159 646.293 553.689C643.313 555.739 640.223 557.609 637.003 559.669ZM582.003 605.599C584.483 600.899 586.733 596.649 589.023 592.319C579.503 583.479 570.353 574.979 561.523 566.779C555.573 569.569 550.043 572.159 544.403 574.799V593.779C556.883 597.709 569.113 601.549 582.013 605.609L582.003 605.599ZM584.723 567.709C596.583 561.489 607.913 555.549 619.483 549.479C617.923 544.499 616.483 539.899 615.003 535.159C602.033 535.649 589.473 536.119 577.643 536.559C575.203 543.119 573.083 548.799 570.853 554.809C575.243 558.899 579.863 563.189 584.723 567.709ZM530.203 614.289C529.703 601.309 529.223 588.859 528.763 576.839C522.523 574.539 516.803 572.439 510.523 570.129C506.493 574.459 502.093 579.199 497.643 583.989C503.813 595.759 509.753 607.099 515.843 618.709C520.723 617.209 525.193 615.839 530.203 614.299V614.289ZM521.433 470.719C508.943 466.809 496.733 462.979 484.083 459.019C481.683 463.579 479.443 467.829 477.093 472.299C486.613 481.159 495.863 489.759 504.543 497.839C510.853 494.889 516.383 492.299 522.303 489.529C522.023 483.569 521.733 477.259 521.423 470.719H521.433ZM488.483 528.059C490.863 521.559 492.953 515.839 495.193 509.749C490.783 505.649 486.153 501.349 481.373 496.909C469.793 502.969 458.433 508.909 446.643 515.079C448.133 519.949 449.543 524.559 451.043 529.439C463.813 528.969 476.273 528.519 488.483 528.069V528.059ZM555.613 494.459C559.793 489.939 564.183 485.209 568.443 480.609C562.233 468.759 556.363 457.559 550.263 445.919C545.403 447.399 540.803 448.809 535.943 450.289C536.403 463.219 536.863 475.829 537.283 487.729C543.693 490.079 549.253 492.119 555.613 494.449V494.459ZM471.543 543.589C467.543 556.399 463.713 568.639 459.783 581.239C464.383 583.669 468.623 585.919 473.053 588.259C481.883 578.739 490.463 569.479 498.553 560.759C495.663 554.579 493.153 549.209 490.533 543.599H471.553L471.543 543.589ZM594.543 520.999C598.593 508.029 602.413 495.809 606.323 483.299C601.673 480.859 597.413 478.629 593.053 476.349C584.093 485.979 575.503 495.219 567.513 503.809C570.473 510.129 572.983 515.509 575.553 520.999H594.543ZM484.553 598.069C473.123 610.249 462.163 621.949 451.193 633.639C451.383 633.999 451.563 634.369 451.753 634.729C467.313 632.159 482.383 627.539 498.293 623.579C493.593 614.849 489.253 606.809 484.553 598.069ZM546.823 661.689C547.263 661.829 547.693 661.959 548.133 662.099C557.253 649.239 564.623 635.309 573.073 621.419C563.603 618.589 554.823 615.969 545.273 613.109C545.803 629.759 546.313 645.719 546.823 661.689ZM615.403 430.419C607.323 430.449 572.263 439.219 568.273 441.979C572.623 449.979 576.973 457.999 581.593 466.489C592.963 454.369 603.813 442.799 615.413 430.429L615.403 430.419ZM443.933 572.409C446.793 562.739 449.373 554.009 452.183 544.509C435.303 545.059 419.363 545.589 403.413 546.109C403.333 546.509 403.253 546.909 403.173 547.309C415.933 556.469 429.893 563.669 443.933 572.409ZM613.863 520.039C630.593 519.509 646.673 518.999 662.753 518.489C662.843 518.099 662.933 517.709 663.033 517.319C650.143 508.159 636.133 500.809 622.193 492.219C619.353 501.699 616.733 510.449 613.863 520.039ZM431.813 450.559C431.423 450.799 431.023 451.039 430.633 451.279C433.243 466.749 437.883 481.719 441.713 497.659C450.503 492.729 458.763 488.589 467.203 483.709C454.983 472.259 443.403 461.409 431.823 450.559H431.813ZM624.483 566.939C615.703 571.679 607.543 576.079 598.823 580.789C611.213 592.419 622.933 603.409 634.643 614.399C635.083 614.149 635.513 613.889 635.953 613.639C632.203 598.369 628.453 583.089 624.483 566.939ZM520.723 451.449C520.123 434.759 520.263 418.749 518.883 402.789C518.413 402.669 517.953 402.539 517.483 402.419C509.393 415.829 501.293 429.229 492.903 443.129C502.393 445.969 511.163 448.589 520.713 451.449H520.723ZM862.503 176.899C870.853 175.449 878.253 174.169 886.163 172.799C886.163 168.799 886.163 165.219 886.163 161.629C886.163 158.039 886.163 154.199 886.163 150.219C879.203 150.679 872.773 151.109 866.093 151.549C864.923 159.829 863.783 167.809 862.493 176.899H862.503ZM499.213 27.4094C501.893 30.9694 504.323 34.3194 506.893 37.5694C509.503 40.8694 511.433 44.7794 515.193 47.4494C519.703 40.9894 524.003 34.8294 528.363 28.5794C522.993 22.9794 518.033 17.8194 512.813 12.3694C508.293 17.3694 503.963 22.1494 499.213 27.3994V27.4094ZM888.243 861.739C890.233 870.159 890.463 877.889 893.033 885.369H914.983C914.613 878.529 914.263 871.959 913.903 865.339C905.363 864.139 897.353 863.019 888.243 861.739ZM13.0628 552.519C18.3128 557.229 23.1427 561.559 28.2027 566.099C34.9827 560.979 41.6528 555.929 48.7628 550.559C41.8828 545.719 35.7029 541.379 29.4029 536.939C23.9029 542.189 18.6928 547.149 13.0728 552.509L13.0628 552.519ZM553.283 1052.24C557.923 1047.06 562.333 1042.12 566.843 1037.09C561.653 1030.22 556.643 1023.6 551.323 1016.57C546.583 1023.32 542.163 1029.61 537.703 1035.96C543.103 1041.61 548.083 1046.8 553.293 1052.25L553.283 1052.24ZM1037.88 498.459C1031.04 503.619 1024.47 508.579 1017.3 513.989C1024.14 518.799 1030.4 523.199 1036.69 527.629C1042.31 522.239 1047.49 517.279 1052.95 512.059C1047.97 507.569 1043.18 503.249 1037.88 498.459ZM177.703 202.819C176.213 194.419 174.893 187.009 173.513 179.249H151.073C151.433 185.849 151.773 192.299 152.143 199.169C160.443 200.349 168.613 201.519 177.693 202.809L177.703 202.819ZM199.963 913.089C201.133 904.759 202.263 896.639 203.523 887.679C195.253 889.099 187.903 890.369 180.093 891.709V914.219C186.403 913.859 192.973 913.49 199.963 913.089ZM633.823 542.349C638.443 539.709 642.523 537.379 646.603 535.049C641.723 533.949 637.213 533.599 632.373 534.959C632.853 537.389 633.253 539.449 633.823 542.349ZM535.933 418.949C535.453 419.099 534.963 419.259 534.483 419.409C534.743 423.779 535.003 428.149 535.303 433.019C538.233 432.389 540.383 431.939 543.163 431.339C540.433 426.659 538.183 422.799 535.933 418.949ZM611.453 468.289C612.913 462.889 614.103 458.449 615.303 454.009C614.923 453.789 614.543 453.579 614.163 453.359C611.123 456.679 608.083 459.999 604.783 463.599C607.123 465.239 608.853 466.459 611.453 468.289ZM419.723 529.299C419.833 529.689 419.943 530.079 420.053 530.469C424.403 530.499 428.783 530.989 433.413 529.589C433.023 527.139 433.603 524.779 431.413 522.599C427.473 524.859 423.593 527.079 419.723 529.299ZM464.303 460.539C465.903 458.139 467.183 456.199 468.813 453.759C463.423 452.319 458.963 451.129 454.503 449.939L453.873 450.919C457.203 453.989 460.543 457.069 464.313 460.539H464.303ZM455.013 596.559C452.883 601.469 451.483 606.009 451.073 611.909C454.923 607.819 458.423 604.879 460.863 600.629C458.863 599.239 457.133 598.029 455.013 596.549V596.559ZM597.403 610.069C602.023 612.779 606.883 613.409 612.183 613.579C608.823 610.519 605.473 607.449 601.773 604.069C600.153 606.289 598.913 607.989 597.403 610.069ZM522.993 633.009C525.713 637.819 527.183 642.179 530.893 645.519V631.689C528.173 632.139 525.973 632.509 522.993 633.009ZM538.033 511.889C538.393 512.079 538.743 512.259 539.103 512.449C541.263 509.979 543.433 507.519 546.293 504.259C542.943 503.879 540.613 503.619 538.033 503.339V511.899V511.889ZM515.843 508.249C518.233 510.569 520.323 512.599 522.423 514.629C522.773 514.419 523.133 514.209 523.483 513.999C523.153 510.669 522.823 507.339 522.413 503.149C519.753 505.209 517.963 506.599 515.843 508.249ZM561.113 545.679C561.503 542.229 561.753 540.009 562.023 537.599H551.973C555.293 540.529 557.763 542.709 561.113 545.679ZM505.103 518.969C504.593 522.359 504.253 524.589 503.873 527.119C507.313 527.329 510.193 527.879 513.633 526.569C510.753 524.009 508.383 521.889 505.103 518.979V518.969ZM503.733 542.679C505.933 545.459 507.383 547.289 508.393 548.569C510.883 546.379 512.953 544.559 515.913 541.959C511.583 542.219 508.313 542.409 503.733 542.679ZM557.103 515.019C554.823 517.839 551.973 519.169 551.023 522.679C554.763 522.369 558.023 522.109 562.153 521.769C560.223 519.189 558.883 517.399 557.103 515.019ZM519.653 560.369C523.123 560.749 525.343 560.979 527.693 561.239V551.219C524.773 554.539 522.683 556.929 519.653 560.369ZM543.873 549.759C542.233 553.819 543.293 557.109 543.463 561.439C546.103 559.429 547.993 557.979 550.253 556.249C548.043 553.999 546.183 552.109 543.863 549.749L543.873 549.759Z" fill="white"/>
</svg>
