<svg width="1014" height="1014" viewBox="0 0 1014 1014" fill="none" xmlns="http://www.w3.org/2000/svg">
<path d="M318.423 682.419C311.643 681.669 304.873 680.879 298.083 680.179C286.703 678.999 275.323 677.929 263.943 676.699C261.623 676.449 259.153 676.109 257.113 675.099C255.743 674.419 254.233 672.499 254.193 671.099C254.163 669.719 255.683 668.009 256.963 666.989C257.993 666.159 259.653 665.889 261.063 665.789C266.123 665.439 271.213 664.889 276.273 665.079C295.143 665.789 314.003 666.789 332.873 667.569C334.553 667.639 336.713 667.409 337.893 666.419C345.793 659.789 353.483 652.909 361.913 645.539C359.563 644.969 357.923 644.539 356.263 644.179C341.013 640.899 325.743 637.709 310.523 634.289C307.383 633.579 304.343 632.209 301.413 630.819C299.393 629.859 297.873 628.089 298.273 625.589C298.683 623.039 300.813 621.939 302.993 621.729C306.403 621.409 309.933 621.159 313.283 621.669C332.653 624.649 351.973 627.859 371.323 630.979C372.023 631.089 372.733 631.099 373.893 631.199C374.743 629.239 375.633 627.299 376.413 625.329C383.253 608.059 387.563 590.039 392.133 572.099C392.653 570.049 392.133 567.349 391.183 565.379C380.123 542.249 362.603 526.389 337.903 518.879C332.903 517.359 327.753 516.359 322.473 515.069C319.993 518.489 317.833 521.599 315.553 524.609C307.663 535.029 299.763 545.449 291.793 555.809C290.593 557.369 289.173 558.869 287.573 560.009C284.133 562.459 279.463 562.209 276.413 559.699C273.173 557.029 272.043 552.299 274.253 548.329C275.633 545.839 277.693 543.679 279.653 541.559C286.903 533.669 294.243 525.869 301.533 518.019C302.003 517.519 302.343 516.909 303.123 515.819C301.513 515.609 300.363 515.369 299.213 515.319C289.953 514.959 280.703 514.659 271.443 514.279C269.153 514.189 267.303 514.609 265.683 516.509C257.333 526.329 248.813 536.009 240.473 545.839C238.493 548.179 237.013 550.929 235.313 553.499C233.243 556.629 230.423 558.439 226.593 557.819C223.293 557.279 220.953 555.339 220.083 552.009C219.103 548.269 220.623 545.459 223.233 542.759C232.153 533.539 240.913 524.149 250.263 514.259C248.633 513.789 248.013 513.479 247.383 513.449C230.513 512.699 213.643 512.049 196.773 511.179C193.653 511.019 191.843 512.029 190.083 514.539C183.013 524.649 175.753 534.629 168.523 544.629C167.573 545.949 166.553 547.269 165.363 548.359C162.633 550.869 159.233 551.209 156.333 549.469C153.253 547.619 151.633 543.989 153.153 540.519C154.433 537.599 156.473 534.949 158.503 532.439C164.173 525.419 170.013 518.529 176.203 511.069C174.653 510.599 174.043 510.269 173.403 510.239C159.443 509.509 145.473 508.899 131.523 508.049C127.923 507.829 125.493 508.789 123.253 511.789C117.053 520.079 110.573 528.159 104.023 536.169C102.463 538.069 100.403 539.789 98.2229 540.899C95.0329 542.519 91.7628 541.769 89.1628 539.299C86.5728 536.839 85.6428 533.679 87.0228 530.339C87.9028 528.219 89.2929 526.209 90.8129 524.459C94.5029 520.209 98.4029 516.139 102.193 511.979C103.373 510.689 104.483 509.339 106.283 507.259C87.8528 506.169 70.3829 505.129 53.4629 504.129C50.1529 508.539 47.4429 513.119 43.8229 516.779C35.5929 525.099 22.3229 526.079 12.1929 519.699C2.39286 513.529 -2.21717 501.659 1.41283 490.779C4.22283 482.339 9.64284 476.329 18.9228 474.749C20.1728 474.539 21.4228 474.289 22.6628 473.999C35.4128 471.029 44.4629 475.109 50.7329 486.689C51.0729 487.329 51.4329 487.959 51.8429 488.699C68.6429 489.339 85.4529 489.969 102.993 490.639C102.123 489.179 101.653 488.139 100.963 487.279C97.3129 482.759 93.4629 478.389 89.9829 473.739C88.0529 471.149 86.4629 468.229 85.2029 465.249C84.1729 462.839 84.3229 460.149 86.6229 458.269C88.9129 456.399 91.4129 456.889 93.7329 458.269C95.2829 459.189 96.8429 460.209 98.1129 461.479C102.353 465.709 106.593 469.939 110.573 474.399C115.043 479.409 119.353 484.579 123.473 489.879C125.503 492.489 128.183 492.319 130.833 492.459C141.893 493.049 152.963 493.519 164.023 494.059C167.273 494.219 170.523 494.469 174.693 494.729C173.743 492.839 173.163 491.469 172.393 490.209C167.973 482.909 163.303 475.749 159.153 468.299C156.703 463.899 154.833 459.119 153.193 454.339C152.283 451.689 151.583 448.219 154.733 446.459C158.043 444.609 160.323 447.429 161.993 449.619C168.833 458.549 175.533 467.599 182.073 476.759C185.863 482.079 189.323 487.639 192.793 493.179C193.983 495.069 195.383 495.849 197.623 495.969C214.833 496.869 232.043 497.889 250.063 498.919C249.063 497.409 248.433 496.279 247.633 495.289C237.003 482.169 226.333 469.069 215.703 455.949C214.333 454.259 212.993 452.509 211.953 450.619C210.873 448.649 210.423 446.409 212.173 444.519C213.943 442.599 216.153 443.079 218.223 443.979C219.373 444.479 220.473 445.189 221.443 445.999C223.683 447.849 226.003 449.639 227.973 451.749C241.593 466.359 255.243 480.949 268.593 495.799C271.483 499.009 274.303 500.799 278.673 500.959C287.683 501.279 296.683 502.059 306.623 502.709C305.223 500.469 304.313 498.989 303.373 497.529C295.183 484.879 286.933 472.269 278.843 459.559C277.103 456.829 275.733 453.809 274.573 450.769C273.213 447.209 273.843 444.679 275.993 443.449C278.733 441.879 280.973 443.409 282.903 445.039C284.973 446.779 286.973 448.719 288.573 450.889C300.263 466.849 311.843 482.899 323.453 498.919C323.873 499.499 324.253 500.099 324.973 501.169C326.933 500.409 328.933 499.709 330.863 498.859C348.033 491.319 364.033 481.629 380.073 472.019C381.743 471.019 383.153 468.939 383.833 467.049C391.743 445.109 391.583 423.319 382.023 401.859C378.993 395.059 375.213 388.679 370.763 382.769C361.983 383.969 353.553 385.089 345.123 386.269C336.853 387.419 328.593 388.649 320.323 389.769C318.713 389.989 317.043 390.099 315.443 389.889C310.423 389.249 306.873 385.479 306.773 380.909C306.673 376.559 309.753 372.639 314.503 371.669C317.323 371.099 320.273 371.069 323.163 370.949C333.143 370.539 343.123 370.209 353.103 369.819C354.133 369.779 355.153 369.559 356.653 369.359C356.093 368.399 355.853 367.739 355.413 367.269C348.853 360.219 342.203 353.259 335.733 346.129C333.843 344.049 331.903 343.169 329.093 343.409C315.713 344.559 302.313 345.529 288.933 346.659C286.783 346.839 284.643 347.419 282.553 347.989C278.853 348.999 275.653 348.219 273.203 345.299C271.033 342.699 270.703 339.659 272.263 336.629C274.163 332.939 277.433 332.139 281.393 332.049C293.543 331.789 305.693 331.229 317.833 330.749C318.503 330.719 319.153 330.359 320.243 330.029C318.993 328.529 318.013 327.269 316.933 326.089C306.393 314.559 295.763 303.119 285.333 291.489C283.023 288.919 280.903 287.999 277.363 288.649C265.233 290.879 253.033 292.689 240.853 294.629C239.253 294.889 237.593 295.179 235.993 295.059C232.433 294.789 229.713 292.339 229.053 289.119C228.383 285.839 229.753 282.369 233.063 280.979C235.833 279.819 238.953 279.329 241.973 278.979C250.443 278.019 258.943 277.299 267.423 276.429C268.243 276.349 269.033 275.889 270.173 275.479C269.413 274.469 268.943 273.719 268.353 273.069C258.963 262.709 249.513 252.399 240.183 241.979C238.193 239.759 236.293 238.899 233.133 239.359C222.893 240.839 212.593 241.869 202.313 242.989C200.343 243.209 198.293 243.309 196.343 243.029C192.333 242.459 189.303 239.249 188.843 235.459C188.383 231.699 190.583 227.969 194.523 226.499C196.353 225.819 198.393 225.579 200.363 225.459C206.893 225.069 213.423 224.839 219.953 224.539C220.813 224.499 221.663 224.369 223.583 224.169C211.433 210.479 199.823 197.399 188.453 184.579C183.273 185.359 178.323 186.639 173.343 186.739C161.823 186.979 154.213 180.719 149.683 170.629C145.453 161.199 147.813 150.189 154.943 142.879C163.523 134.079 178.193 133.179 185.693 139.989C186.353 140.589 187.173 141.029 187.953 141.499C199.073 148.269 202.653 157.679 198.903 170.269C198.693 170.959 198.503 171.659 198.243 172.569C203.993 178.749 209.813 184.949 215.583 191.189C221.233 197.309 226.843 203.469 233.283 210.509C233.693 207.799 234.013 205.999 234.223 204.189C234.903 198.239 235.483 192.279 236.233 186.339C236.463 184.559 237.013 182.789 237.653 181.099C239.123 177.249 241.493 175.329 244.223 175.559C247.023 175.789 249.123 178.049 249.683 182.129C250.223 186.079 250.613 190.089 250.543 194.059C250.463 199.129 249.883 204.199 249.463 209.269C249.043 214.329 248.453 219.389 248.153 224.459C248.073 225.759 248.453 227.449 249.273 228.379C259.553 239.889 269.943 251.289 280.323 262.699C280.423 262.809 280.663 262.799 281.173 262.919C281.583 261.609 282.073 260.289 282.403 258.939C284.583 250.129 286.463 241.239 288.993 232.529C290.343 227.879 292.573 223.449 294.793 219.109C295.923 216.899 297.783 214.799 300.823 215.399C303.003 215.819 304.363 218.219 303.863 222.259C302.563 232.699 301.053 243.129 299.313 253.499C298.113 260.659 296.513 267.749 294.853 274.819C294.243 277.409 294.723 279.239 296.493 281.199C307.443 293.339 318.273 305.579 329.163 317.769C329.623 318.279 330.203 318.679 331.463 319.769C331.823 317.019 332.143 314.979 332.343 312.929C333.953 297.209 335.523 281.499 337.153 265.779C337.373 263.619 337.673 261.429 338.213 259.339C338.833 256.969 340.013 254.819 342.883 254.739C345.763 254.659 347.153 256.699 347.663 259.119C348.293 262.119 348.903 265.229 348.823 268.269C348.363 287.149 348.273 306.069 346.863 324.879C346.213 333.499 347.233 340.289 353.933 346.189C357.983 349.749 361.143 354.339 364.723 358.439C365.763 359.629 366.883 360.749 368.663 362.629C369.413 358.819 369.943 355.849 370.573 352.899C373.513 339.239 376.383 325.559 379.493 311.939C380.253 308.619 381.643 305.399 383.073 302.279C384.003 300.269 385.743 298.569 388.203 298.919C390.943 299.309 392.243 301.579 392.303 304.019C392.433 308.719 392.533 313.499 391.873 318.129C389.183 336.799 386.183 355.429 383.193 374.769C384.663 375.399 386.753 376.359 388.893 377.209C406.163 384.029 424.193 388.309 442.113 392.899C443.993 393.379 446.483 392.899 448.303 392.039C472.423 380.569 488.593 362.219 495.773 336.319C496.933 332.149 497.483 327.809 498.313 323.549C495.103 320.959 491.953 318.309 488.683 315.799C478.453 307.949 468.143 300.209 457.963 292.299C456.143 290.889 454.493 289.049 453.333 287.069C451.373 283.729 452.023 279.719 454.463 276.929C456.923 274.109 460.813 272.819 464.333 274.499C467.203 275.869 469.813 277.979 472.193 280.149C480.123 287.349 487.893 294.739 495.733 302.029C496.363 302.609 497.123 303.049 498.253 303.879C498.483 302.189 498.743 300.989 498.783 299.789C499.113 290.719 499.353 281.639 499.733 272.559C499.843 270.049 499.433 268.049 497.373 266.299C487.553 257.949 477.873 249.429 468.043 241.089C465.843 239.229 463.273 237.789 460.823 236.249C457.653 234.259 455.753 231.569 456.083 227.709C456.373 224.329 458.753 221.579 462.073 220.709C465.863 219.719 468.583 221.449 471.273 223.999C480.343 232.619 489.583 241.059 498.783 249.549C498.983 249.739 499.443 249.639 500.343 249.739C500.633 243.629 500.953 237.539 501.213 231.459C501.703 220.029 502.063 208.589 502.713 197.169C502.883 194.239 501.933 192.529 499.583 190.879C489.483 183.799 479.493 176.539 469.493 169.329C468.173 168.379 466.833 167.389 465.723 166.209C463.113 163.439 462.703 160.169 464.373 157.219C466.133 154.129 469.713 152.399 473.253 153.849C476.193 155.049 478.873 157.079 481.373 159.099C488.413 164.779 495.303 170.639 502.953 177.019C503.323 174.849 503.633 173.729 503.693 172.589C504.403 158.989 505.003 145.379 505.823 131.789C506.033 128.359 505.043 126.149 502.203 124.029C493.913 117.829 485.873 111.309 477.823 104.799C476.163 103.459 474.563 101.839 473.473 100.019C471.463 96.6694 472.093 92.5894 474.583 89.9194C477.123 87.1894 480.983 86.3394 484.573 88.0994C486.493 89.0394 488.253 90.4194 489.863 91.8494C494.073 95.5794 498.163 99.4594 502.323 103.249C503.483 104.299 504.723 105.249 506.693 106.879C507.783 88.5194 508.813 71.0494 509.803 54.4394C504.893 50.5094 499.853 47.4294 496.043 43.2494C486.813 33.1194 488.583 16.3494 499.303 7.09941C509.813 -1.97059 525.303 -0.890574 534.513 9.54943C539.763 15.5094 542.623 29.9294 539.993 37.3794C538.053 42.8994 534.553 47.1794 529.553 50.2094C528.163 51.0494 526.723 51.8094 525.333 52.5994C524.643 69.5394 523.953 86.3694 523.243 103.979C524.873 102.869 526.033 102.179 527.083 101.349C532.203 97.2894 537.173 93.0294 542.443 89.1794C544.733 87.5094 547.503 86.1694 550.253 85.5394C554.833 84.4894 558.073 88.5094 556.363 92.8794C555.653 94.6994 554.553 96.5094 553.213 97.9194C549.083 102.249 544.903 106.549 540.453 110.549C535.193 115.279 529.743 119.819 524.133 124.149C522.033 125.769 521.823 127.709 521.713 129.859C521.063 141.829 520.433 153.789 519.863 165.769C519.723 168.779 519.843 171.789 519.843 175.409C521.493 174.459 522.863 173.699 524.203 172.879C531.023 168.719 537.733 164.369 544.683 160.429C548.763 158.109 553.143 156.289 557.503 154.539C559.303 153.819 561.423 153.519 563.353 153.649C564.803 153.739 567.043 154.519 567.393 155.529C567.883 156.919 567.393 159.159 566.473 160.419C565.013 162.439 563.013 164.159 560.973 165.639C551.423 172.569 541.803 179.399 532.163 186.219C529.643 187.999 527.133 189.899 524.373 191.209C519.323 193.599 517.743 197.319 517.573 202.829C517.133 217.709 516.043 232.559 515.223 247.429C515.173 248.309 515.223 249.189 515.223 250.769C516.763 249.709 517.923 249.019 518.953 248.179C531.933 237.659 544.883 227.099 557.873 216.589C559.703 215.109 561.643 213.739 563.683 212.579C565.703 211.429 567.873 211.229 569.683 213.119C571.313 214.819 571.093 216.819 570.093 218.679C569.153 220.429 568.123 222.189 566.813 223.649C563.653 227.149 560.463 230.649 557.003 233.849C543.673 246.179 530.273 258.439 516.793 270.599C514.473 272.689 513.293 274.789 513.163 277.999C512.843 285.979 512.063 293.939 511.513 301.909C511.403 303.459 511.493 305.019 511.493 307.279C513.613 305.929 515.253 304.899 516.883 303.849C529.853 295.489 542.783 287.069 555.813 278.819C558.393 277.189 561.313 276.009 564.203 274.999C566.523 274.189 569.013 274.379 570.503 276.769C571.873 278.949 570.973 281.119 569.543 282.809C567.563 285.149 565.493 287.539 563.043 289.339C547.253 300.959 531.353 312.419 515.483 323.929C514.763 324.449 514.003 324.919 512.823 325.699C513.533 327.589 514.133 329.439 514.903 331.219C522.483 348.569 532.283 364.729 541.963 380.939C542.953 382.609 545.083 383.979 546.983 384.659C568.543 392.429 590.043 392.409 611.153 383.129C617.103 380.509 622.593 376.849 628.303 373.679C630.673 372.369 631.323 370.539 630.913 367.809C628.673 352.909 626.563 337.999 624.533 323.069C624.173 320.409 623.993 317.599 624.413 314.969C625.083 310.729 628.643 307.809 632.683 307.539C636.423 307.289 640.273 309.549 641.653 313.379C642.493 315.719 642.823 318.319 642.933 320.829C643.403 331.709 643.703 342.609 644.083 353.489C644.123 354.669 644.263 355.849 644.413 357.749C645.733 356.799 646.473 356.369 647.083 355.809C653.993 349.369 660.843 342.859 667.803 336.489C669.683 334.769 670.683 332.989 670.463 330.359C669.293 316.429 668.263 302.499 667.093 288.569C666.923 286.599 666.213 284.689 665.853 282.729C665.173 279.049 665.943 275.829 669.163 273.579C671.773 271.759 674.663 271.629 677.433 273.059C680.853 274.829 681.963 277.929 682.033 281.679C682.263 294.539 682.623 307.389 682.953 321.219C684.793 320.009 685.843 319.509 686.673 318.759C698.753 307.739 710.763 296.649 722.873 285.679C725.083 283.679 726.013 281.819 725.433 278.629C723.903 270.239 722.943 261.749 721.673 253.309C721.243 250.439 720.493 247.629 719.973 244.769C719.553 242.449 719.033 240.119 718.973 237.789C718.853 233.519 721.253 230.519 724.923 229.839C728.713 229.139 732.103 230.859 733.503 234.859C734.443 237.539 734.693 240.499 734.983 243.359C735.913 252.369 736.723 261.389 737.653 271.099C739.223 270.119 740.183 269.709 740.913 269.049C751.293 259.679 761.593 250.209 772.033 240.909C774.303 238.889 775.083 236.869 774.663 233.809C773.203 223.199 772.013 212.549 770.783 201.909C770.603 200.309 770.583 198.619 770.873 197.039C771.663 192.749 775.073 189.759 779.083 189.589C783.133 189.419 786.833 192.059 787.853 196.319C788.483 198.939 788.603 201.709 788.743 204.419C789.063 210.699 789.263 216.989 789.563 224.509C803.503 212.139 816.583 200.529 829.943 188.669C827.953 183.549 826.813 178.139 827.123 172.429C827.843 159.069 840.133 147.949 853.923 148.369C868.033 148.799 878.903 160.349 878.413 174.379C878.103 183.109 869.713 195.579 861.743 199.059C856.373 201.399 850.843 201.589 845.213 200.159C843.833 199.809 842.463 199.419 841.313 199.109C828.733 210.739 816.403 222.139 803.373 234.179C811.013 234.989 817.663 235.579 824.263 236.449C827.293 236.849 830.343 237.569 833.223 238.599C836.873 239.899 838.463 242.179 838.303 244.879C838.133 247.739 835.973 249.929 831.873 250.439C827.383 250.999 822.803 251.439 818.303 251.199C808.883 250.679 799.493 249.619 790.083 248.939C788.603 248.829 786.643 249.089 785.623 249.999C774.093 260.249 762.703 270.669 751.283 281.049C751.183 281.139 751.243 281.399 751.193 282.109C753.983 282.819 756.873 283.579 759.763 284.299C767.153 286.139 774.603 287.799 781.933 289.879C785.743 290.959 789.413 292.639 792.993 294.359C794.733 295.199 796.373 296.569 797.613 298.069C799.813 300.729 798.883 303.439 795.483 304.159C793.403 304.599 791.113 304.689 789.013 304.339C772.913 301.659 756.793 299.009 740.763 295.929C736.943 295.199 734.353 295.709 731.503 298.319C720.113 308.739 708.513 318.929 696.983 329.189C696.183 329.899 695.263 330.469 694.393 331.099C694.503 331.499 694.613 331.889 694.713 332.289C697.273 332.619 699.833 332.999 702.403 333.259C717.933 334.849 733.473 336.409 749.003 338.009C750.803 338.199 752.613 338.489 754.363 338.939C757.543 339.759 759.453 341.739 759.373 343.899C759.293 346.049 757.353 347.999 754.103 348.649C751.263 349.219 748.343 349.729 745.473 349.669C728.223 349.289 710.983 348.779 693.733 348.199C689.203 348.049 684.683 347.379 680.153 347.249C678.483 347.199 676.363 347.489 675.173 348.489C667.513 354.899 660.053 361.539 652.553 368.129C652.323 368.329 652.313 368.779 652.043 369.579C657.583 370.629 663.093 371.549 668.543 372.739C680.063 375.249 691.583 377.799 703.053 380.539C706.023 381.249 708.893 382.519 711.653 383.839C713.663 384.799 715.293 386.459 714.973 388.989C714.613 391.859 712.243 392.899 709.893 393.119C706.483 393.439 702.963 393.539 699.583 393.089C686.453 391.329 673.343 389.399 660.253 387.349C653.463 386.289 646.723 384.849 639.303 383.459C638.433 385.509 637.493 387.599 636.663 389.739C629.943 407.049 625.543 425.039 621.053 442.999C620.583 444.879 621.083 447.339 621.943 449.149C633.493 473.499 652.103 489.609 678.223 496.729C682.223 497.819 686.373 498.329 690.453 499.109C692.913 496.039 695.443 493.019 697.833 489.889C705.783 479.509 713.643 469.069 721.643 458.729C722.943 457.039 724.603 455.479 726.403 454.359C729.823 452.219 734.193 452.759 737.053 455.279C739.983 457.859 741.153 462.019 739.273 465.689C737.903 468.379 735.843 470.789 733.773 473.029C726.023 481.429 718.143 489.709 709.833 498.539C711.173 498.969 711.903 499.379 712.653 499.409C722.273 499.789 731.893 500.069 741.513 500.469C744.003 500.569 746.003 500.129 747.763 498.069C755.203 489.379 762.883 480.889 770.263 472.149C773.063 468.839 775.383 465.119 777.783 461.489C779.853 458.359 782.533 456.419 786.383 456.889C789.723 457.289 792.133 459.219 793.123 462.469C794.313 466.389 792.603 469.299 789.853 472.169C781.193 481.199 772.773 490.459 764.273 499.659C764.093 499.859 764.203 500.329 764.153 501.029C764.783 501.119 765.433 501.279 766.083 501.309C782.773 502.039 799.463 502.679 816.153 503.539C819.413 503.709 821.433 502.749 823.323 500.029C830.363 489.899 837.643 479.929 844.883 469.939C845.943 468.479 847.113 467.029 848.493 465.899C851.123 463.749 854.443 463.669 857.123 465.399C859.803 467.119 861.423 470.299 860.243 473.409C859.123 476.379 857.293 479.189 855.313 481.699C849.923 488.539 844.293 495.189 838.783 501.939C838.373 502.449 838.183 503.139 837.653 504.259C844.203 504.669 850.283 505.099 856.373 505.419C865.263 505.879 874.153 506.159 883.033 506.719C885.913 506.899 887.693 505.889 889.423 503.639C895.833 495.279 902.393 487.039 909.003 478.839C910.343 477.169 911.923 475.549 913.713 474.409C917.093 472.279 921.023 472.759 923.843 475.209C926.563 477.579 927.633 481.639 925.973 485.159C924.993 487.249 923.463 489.149 921.913 490.889C917.223 496.169 912.403 501.329 906.813 507.449C925.363 508.569 942.913 509.619 960.853 510.699C962.773 505.129 966.183 500.509 970.683 496.689C981.113 487.829 997.683 489.429 1006.91 500.159C1015.95 510.669 1014.81 526.199 1004.35 535.369C998.503 540.499 984.413 543.349 977.013 540.929C971.253 539.039 966.833 535.449 963.693 530.279C962.853 528.889 962.123 527.439 961.383 526.069C944.443 525.409 927.653 524.769 910.003 524.079C911.243 525.869 911.943 527.029 912.783 528.079C916.533 532.749 920.483 537.279 924.033 542.099C925.833 544.539 927.213 547.389 928.303 550.239C929.193 552.559 928.623 554.959 926.483 556.599C924.533 558.089 922.373 558.029 920.333 556.879C918.603 555.899 916.813 554.879 915.423 553.499C910.913 549.029 906.483 544.489 902.213 539.799C898.423 535.639 894.633 531.429 891.363 526.869C888.973 523.539 886.083 522.349 882.223 522.209C871.153 521.799 860.093 521.229 849.023 520.699C845.783 520.539 842.543 520.299 838.623 520.049C839.443 521.769 839.933 523.059 840.633 524.209C844.963 531.349 849.483 538.389 853.633 545.629C855.883 549.539 857.733 553.719 859.373 557.929C860.203 560.069 860.533 562.559 860.433 564.859C860.263 568.569 857.323 570.069 854.373 567.849C851.943 566.029 849.733 563.729 847.973 561.249C839.243 548.969 830.513 536.679 822.193 524.119C819.733 520.409 817.253 518.699 812.713 518.529C796.403 517.909 780.113 516.799 763.023 515.839C764.263 517.559 765.103 518.859 766.073 520.059C776.483 532.899 786.933 545.699 797.323 558.559C798.803 560.389 800.183 562.319 801.363 564.349C802.523 566.339 802.823 568.549 800.983 570.379C799.133 572.219 796.943 571.689 794.903 570.739C793.603 570.129 792.373 569.289 791.263 568.369C789.163 566.639 787.003 564.929 785.163 562.949C771.553 548.329 757.933 533.709 744.533 518.899C741.823 515.899 739.303 513.969 734.993 513.869C727.013 513.689 719.063 512.819 711.093 512.259C709.893 512.179 708.673 512.249 706.723 512.249C708.013 514.319 708.923 515.809 709.873 517.279C718.333 530.399 726.873 543.469 735.223 556.659C736.853 559.229 738.023 562.169 738.953 565.079C739.683 567.349 739.653 569.839 737.143 571.349C734.873 572.719 732.793 571.679 731.133 570.289C728.783 568.319 726.413 566.229 724.603 563.779C713.073 548.149 701.693 532.409 690.273 516.699C689.643 515.829 689.103 514.899 688.273 513.609C686.363 514.339 684.513 514.959 682.743 515.739C665.393 523.329 649.243 533.139 633.033 542.809C631.363 543.809 629.993 545.939 629.303 547.839C621.593 569.219 621.533 590.559 630.673 611.519C633.413 617.809 637.303 623.589 640.663 629.609C641.773 631.599 643.283 632.189 645.623 631.839C661.233 629.509 676.873 627.279 692.513 625.149C694.793 624.839 697.263 624.849 699.493 625.359C703.613 626.309 706.123 629.559 706.373 633.479C706.633 637.549 704.283 641.499 700.133 642.669C697.043 643.539 693.703 643.689 690.463 643.829C679.943 644.309 669.413 644.629 658.893 645.029C658.233 645.059 657.583 645.279 656.073 645.569C658.203 647.839 659.883 649.629 661.553 651.429C666.883 657.139 672.283 662.789 677.483 668.609C679.363 670.709 681.323 671.579 684.123 671.339C697.683 670.179 711.263 669.179 724.833 668.039C726.803 667.869 728.753 667.299 730.683 666.799C734.593 665.799 737.933 666.609 740.363 669.919C742.243 672.469 742.473 675.349 741.003 678.159C739.083 681.809 735.843 682.679 731.873 682.759C719.723 683.019 707.583 683.599 695.443 684.079C694.803 684.109 694.183 684.439 693.003 684.789C694.333 686.369 695.313 687.609 696.373 688.779C706.923 700.299 717.563 711.739 727.983 723.379C730.323 725.989 732.463 726.75 735.973 726.109C747.923 723.909 759.943 722.119 771.953 720.239C773.903 719.929 775.943 719.64 777.883 719.859C781.233 720.25 783.563 722.649 784.193 725.779C784.853 729.039 783.433 732.519 780.093 733.869C777.303 734.989 774.183 735.439 771.163 735.789C762.693 736.759 754.203 737.519 745.713 738.399C745.013 738.469 744.343 738.809 743.303 739.139C743.953 740.179 744.383 741.139 745.043 741.869C754.303 752.109 763.653 762.269 772.833 772.569C774.963 774.949 776.973 775.899 780.333 775.409C790.743 773.899 801.233 772.859 811.693 771.679C813.133 771.519 814.603 771.459 816.043 771.599C820.673 772.06 823.983 775.299 824.323 779.559C824.663 783.859 821.973 787.609 817.463 788.769C815.723 789.219 813.873 789.25 812.063 789.349C805.013 789.74 797.963 790.069 790.883 790.429C791.953 793.549 816.533 822.069 825.593 830.719C831.403 828.18 837.643 827.44 844.043 828.229C857.623 829.899 867.813 844.699 865.173 858.869C862.613 872.609 848.643 882.679 835.593 878.399C821.133 873.659 811.673 865.819 813.133 849.969C813.383 847.299 814.293 844.7 814.883 842.109C803.443 829.74 792.013 817.379 779.783 804.159C779.223 809.749 778.873 814.329 778.273 818.889C777.683 823.379 777.123 827.909 776.023 832.289C774.783 837.219 771.993 839.539 768.823 839.149C765.853 838.779 763.593 836.229 763.333 831.349C762.953 824.479 763.023 817.559 763.333 810.679C763.623 804.159 764.413 797.649 765.103 791.149C765.323 789.039 765.043 787.339 763.533 785.679C753.623 774.799 743.803 763.849 733.943 752.939C733.603 752.559 733.083 752.329 731.963 751.559C731.403 753.679 730.893 755.489 730.443 757.309C728.563 765.069 726.833 772.869 724.763 780.579C723.733 784.419 722.233 788.139 720.703 791.819C719.943 793.629 718.763 795.319 717.543 796.879C716.183 798.609 714.503 800.229 712.003 799.229C709.813 798.349 709.333 796.279 709.493 794.229C709.933 788.63 710.213 782.979 711.173 777.459C713.243 765.479 715.553 753.539 718.063 741.639C718.843 737.949 718.443 735.289 715.743 732.359C705.513 721.289 695.603 709.929 685.563 698.689C684.613 697.619 683.603 696.609 682.113 695.029C681.723 696.709 681.343 697.789 681.223 698.899C679.383 716.419 677.593 733.939 675.733 751.449C675.543 753.239 675.113 755.039 674.523 756.729C673.813 758.75 672.253 760.439 670.063 759.929C668.553 759.579 666.993 758.179 666.093 756.829C665.243 755.559 665.003 753.759 664.863 752.159C664.533 748.179 664.113 744.179 664.273 740.199C665.033 720.789 665.943 701.379 666.863 681.979C666.983 679.379 666.843 677.149 664.893 674.989C658.673 668.129 652.693 661.049 646.603 654.069C646.163 653.559 645.563 653.189 644.503 652.299C643.263 658.849 642.253 664.869 640.953 670.819C638.473 682.169 635.923 693.499 633.163 704.779C632.443 707.729 631.043 710.559 629.603 713.249C628.643 715.029 626.753 716.579 624.663 715.669C623.223 715.039 621.663 713.359 621.303 711.869C620.633 709.109 620.443 706.109 620.693 703.269C622.483 683.169 625.883 663.309 629.983 643.569C630.203 642.539 630.323 641.479 630.523 640.249C628.883 639.469 627.463 638.699 625.973 638.109C608.033 631.009 589.323 626.489 570.693 621.709C568.983 621.269 566.703 621.819 565.023 622.619C541.473 633.779 525.423 651.559 517.893 676.699C516.753 680.519 516.053 684.469 514.983 688.319C514.293 690.809 515.123 692.289 517.163 693.799C529.423 702.869 541.593 712.059 553.753 721.269C555.623 722.679 557.493 724.219 558.933 726.039C561.783 729.649 561.623 734.349 558.923 737.619C556.213 740.889 551.553 742.019 547.583 739.769C544.943 738.279 542.663 736.089 540.413 734.009C532.163 726.379 524.003 718.669 515.153 710.379C514.833 712.419 514.533 713.549 514.493 714.689C514.123 723.949 513.833 733.199 513.433 742.459C513.333 744.749 513.713 746.629 515.623 748.239C526.153 757.149 536.593 766.18 547.113 775.099C548.623 776.38 550.423 777.319 552.133 778.349C555.523 780.389 557.573 783.169 557.053 787.299C556.623 790.699 554.623 792.969 551.393 793.949C547.413 795.149 544.563 793.269 541.753 790.539C532.663 781.719 523.373 773.109 513.463 763.769C513.023 765.979 512.643 767.099 512.593 768.239C511.853 784.749 511.213 801.259 510.393 817.769C510.253 820.469 511.113 822.059 513.283 823.589C523.523 830.789 533.663 838.149 543.813 845.479C545.133 846.43 546.453 847.439 547.553 848.629C550.013 851.269 550.413 854.849 548.773 857.669C547.103 860.539 543.723 862.279 540.343 860.959C537.233 859.74 534.363 857.669 531.723 855.549C524.673 849.909 517.793 844.039 510.253 837.769C509.833 839.779 509.483 840.779 509.433 841.789C508.733 855.759 508.123 869.729 507.343 883.689C507.183 886.529 507.993 888.379 510.283 890.139C518.643 896.539 526.873 903.12 535.083 909.719C536.753 911.06 538.393 912.619 539.543 914.399C541.763 917.859 541.173 922.209 538.503 924.959C535.943 927.599 531.993 928.419 528.473 926.589C526.413 925.519 524.563 923.969 522.813 922.419C517.683 917.849 512.643 913.169 507.503 908.459C506.103 911.509 503.383 949.309 503.583 961.709C508.993 963.679 513.653 967.059 517.433 971.579C526.253 982.139 524.563 998.579 513.743 1007.8C503.353 1016.65 488.043 1015.62 478.913 1005.46C476.433 1002.7 474.673 999.589 474.123 995.859C473.883 994.25 473.693 992.579 473.123 991.069C469.373 981.159 474.983 969.009 484.773 963.889C485.893 963.309 486.983 962.669 487.953 962.129C488.603 945.139 489.243 928.349 489.923 910.509C487.563 912.369 485.923 913.659 484.293 914.949C479.593 918.659 474.983 922.489 470.153 926.039C468.293 927.409 466.013 928.279 463.823 929.099C461.383 930 459.083 929.379 457.453 927.319C455.943 925.409 456.143 923.179 457.133 921.129C457.833 919.669 458.723 918.229 459.833 917.069C463.713 912.999 467.543 908.869 471.713 905.119C477.243 900.139 483.023 895.439 488.823 890.759C490.513 889.389 491.443 887.979 491.543 885.769C492.253 870.899 493.043 856.029 493.783 841.159C493.803 840.829 493.583 840.489 493.343 839.739C492.053 840.359 490.753 840.859 489.593 841.559C482.293 845.979 475.113 850.599 467.693 854.819C463.773 857.049 459.553 858.799 455.323 860.389C453.353 861.129 451.023 861.269 448.903 861.119C445.433 860.879 444.013 858.199 446.003 855.379C447.643 853.049 449.803 850.939 452.103 849.249C461.933 842.079 471.873 835.069 481.823 828.079C485.093 825.789 488.453 823.609 491.893 821.579C494.173 820.239 495.083 818.529 495.213 815.889C495.763 804.099 496.493 792.319 497.183 780.539C497.493 775.309 497.863 770.079 498.273 763.809C496.313 765.189 495.023 765.989 493.853 766.939C480.873 777.459 467.933 788.029 454.923 798.509C452.963 800.089 450.833 801.659 448.503 802.489C447.113 802.979 444.793 802.489 443.663 801.539C442.743 800.759 442.513 798.519 442.823 797.119C443.193 795.429 444.273 793.779 445.393 792.409C447.693 789.609 450.043 786.799 452.693 784.339C467.063 770.999 481.483 757.699 496.023 744.549C498.623 742.199 500.053 739.859 500.183 736.239C500.483 727.719 501.253 719.209 501.823 710.689C501.883 709.849 501.823 709.009 501.823 707.319C499.553 708.819 497.953 709.889 496.333 710.939C483.523 719.219 470.763 727.559 457.873 735.709C455.143 737.439 452.063 738.689 449.003 739.789C446.923 740.539 444.483 740.489 442.983 738.499C441.323 736.299 442.043 733.87 443.653 731.969C445.633 729.629 447.713 727.239 450.163 725.439C465.953 713.819 481.853 702.359 497.723 690.849C498.443 690.329 499.233 689.889 500.533 689.079C499.623 686.899 498.783 684.769 497.863 682.669C490.403 665.659 480.723 649.859 471.273 633.929C470.353 632.379 468.513 630.969 466.803 630.349C454.383 625.929 441.663 623.589 428.353 624.829C412.573 626.299 398.493 632.089 385.413 640.749C382.903 642.409 381.823 643.969 382.363 647.369C384.813 662.599 386.833 677.899 388.933 693.179C389.203 695.139 389.283 697.199 389.003 699.139C388.363 703.619 384.863 706.869 380.663 707.219C376.513 707.569 372.363 704.939 371.203 700.549C370.433 697.619 370.433 694.459 370.303 691.389C369.873 681.049 369.543 670.709 369.143 660.369C369.113 659.499 368.893 658.639 368.763 657.819C368.123 657.819 367.663 657.679 367.483 657.839C359.893 664.869 352.263 671.869 344.803 679.049C343.653 680.159 342.613 682.179 342.723 683.679C343.943 699.769 343.423 716.029 347.343 731.859C348.263 735.56 347.273 738.729 344.213 741.059C341.673 742.989 338.763 743.179 335.973 741.809C332.513 740.119 331.333 737.109 331.243 733.299C330.973 721.149 330.513 708.999 330.093 696.849C330.063 696.019 329.743 695.189 329.423 693.759C327.753 695.119 326.473 696.039 325.323 697.099C313.793 707.639 302.363 718.289 290.723 728.699C288.103 731.039 287.243 733.279 287.873 736.739C290.063 748.879 291.983 761.069 293.953 773.239C294.213 774.839 294.383 776.51 294.253 778.109C293.983 781.5 291.793 784.029 288.763 784.799C285.423 785.649 281.903 784.509 280.423 781.279C279.173 778.549 278.513 775.439 278.163 772.439C277.153 763.609 276.433 754.749 275.563 745.899C275.513 745.419 275.163 744.959 274.783 744.129C273.773 744.769 272.823 745.2 272.093 745.859C261.853 755.12 251.713 764.479 241.383 773.639C238.913 775.829 238.233 778.039 238.653 781.219C239.943 790.939 240.983 800.689 242.023 810.439C242.293 812.939 242.513 815.539 242.143 818.009C241.573 821.899 238.473 824.619 234.863 825.079C230.943 825.569 227.233 823.539 225.793 819.629C225.003 817.469 224.753 815.039 224.613 812.709C224.173 805.649 223.913 798.589 223.523 790.339C209.753 802.559 196.693 814.149 183.253 826.069C183.723 827.499 184.313 829.149 184.823 830.829C190.433 849.149 177.883 866.709 159.443 866.349C143.853 866.049 131.343 851.799 135.533 836.809C139.773 821.619 150.183 809.25 169.923 815.219C170.603 815.43 171.303 815.569 171.833 815.699C184.343 804.129 196.673 792.729 209.893 780.499C204.913 780.009 201.023 779.75 197.163 779.229C191.953 778.529 186.703 777.939 181.603 776.759C177.073 775.709 174.663 772.889 174.773 769.999C174.903 766.849 177.783 764.459 182.793 764.079C187.853 763.699 192.963 763.509 198.013 763.779C206.343 764.239 214.653 765.209 222.973 765.799C224.463 765.909 226.453 765.729 227.463 764.839C239.163 754.539 250.723 744.069 263.023 733.019C260.473 732.289 258.693 731.729 256.883 731.279C248.253 729.129 239.583 727.169 231.013 724.789C227.203 723.729 223.553 721.979 219.963 720.269C218.373 719.509 216.893 718.259 215.753 716.899C213.383 714.049 214.423 711.119 218.053 710.499C220.163 710.139 222.433 710.079 224.553 710.429C238.703 712.719 252.983 714.469 266.893 717.799C274.913 719.709 280.293 718.419 286.103 712.619C295.463 703.259 305.753 694.819 315.693 686.049C316.743 685.129 318.073 684.529 319.273 683.779C318.973 683.319 318.673 682.859 318.383 682.399L318.423 682.419ZM383.163 506.319C384.143 509.509 384.883 512.899 386.213 516.039C391.603 528.739 397.323 541.289 402.653 554.019C407.343 565.229 411.993 576.479 415.973 587.949C417.353 591.929 419.293 594.639 422.813 596.449C424.903 597.529 427.053 598.529 429.243 599.389C441.223 604.129 453.273 608.679 465.193 613.569C476.603 618.249 488.053 622.899 499.113 628.309C503.473 630.439 507.213 630.799 511.483 629.319C513.193 628.719 514.903 628.089 516.563 627.369C528.373 622.229 540.113 616.919 552.003 611.949C563.543 607.129 575.113 602.289 586.933 598.239C591.353 596.719 594.103 594.369 596.083 590.569C597.003 588.799 597.773 586.949 598.513 585.099C603.243 573.109 607.793 561.059 612.693 549.139C617.453 537.569 622.243 525.979 627.683 514.729C629.603 510.759 630.143 507.319 628.833 503.369C628.143 501.309 627.383 499.259 626.513 497.259C621.383 485.439 616.063 473.699 611.103 461.809C606.283 450.259 601.563 438.659 597.363 426.879C595.973 422.969 594.093 420.169 590.523 418.389C588.903 417.579 587.273 416.769 585.593 416.099C573.783 411.419 561.913 406.909 550.163 402.079C538.083 397.119 525.963 392.199 514.213 386.539C509.863 384.439 506.123 383.949 501.853 385.519C499.813 386.269 497.763 387.029 495.773 387.889C484.453 392.799 473.213 397.889 461.813 402.629C449.763 407.639 437.643 412.519 425.383 416.999C422.233 418.149 419.873 419.549 418.333 422.359C417.203 424.419 416.113 426.529 415.243 428.709C410.593 440.339 406.193 452.069 401.363 463.619C395.913 476.669 390.093 489.559 384.463 502.539C383.973 503.669 383.653 504.869 383.143 506.339L383.163 506.319ZM17.7928 496.899C18.0328 497.859 18.3128 499.859 19.0428 501.669C21.0128 506.559 25.5428 509.339 30.5328 508.959C36.3828 508.519 39.6028 505.649 40.9128 499.709C42.8228 491.049 34.0529 482.059 25.2429 483.689C24.4229 483.839 23.5228 484.319 22.9328 484.909C19.9128 487.939 17.8728 491.459 17.7828 496.899H17.7928ZM179.983 149.409C171.783 149.329 164.883 155.689 164.913 163.299C164.933 169.299 170.493 175.009 176.243 174.949C182.643 174.879 188.323 168.929 188.523 162.099C188.693 156.179 184.173 149.459 179.983 149.419V149.409ZM518.263 18.5794C510.883 18.6794 505.093 23.8594 504.983 30.0394C504.853 36.7094 509.033 41.2694 515.803 41.8594C523.973 42.5694 531.943 34.0794 530.523 26.1094C530.373 25.2794 529.863 24.3994 529.263 23.7994C526.093 20.6594 522.473 18.4194 518.263 18.5794ZM160.923 825.589C156.733 825.669 153.203 827.399 150.243 830.209C149.423 830.99 148.683 832.359 148.693 833.449C148.763 840.519 151.643 846.109 158.773 848.489C166.833 851.179 175.603 844.119 174.073 836.309C172.833 829.989 167.373 825.539 160.923 825.589ZM864.553 180.589C864.583 172.209 858.413 165.599 850.653 165.699C844.513 165.779 839.083 171.169 839.193 177.079C839.313 183.509 845.223 189.099 852.083 189.249C858.053 189.389 864.553 184.879 864.563 180.579L864.553 180.589ZM496.493 972.889C488.263 973.049 482.793 980.019 482.933 988.259C482.953 989.229 483.533 990.349 484.183 991.109C488.313 995.95 495.353 997.519 501.053 994.989C506.533 992.549 509.103 987.599 507.943 981.679C506.873 976.189 502.573 972.899 496.493 972.899V972.889ZM848.293 851.389C848.233 846.229 845.103 842.029 840.083 840.389C835.743 838.969 830.153 841.139 827.233 845.379C823.343 851.019 824.533 859.849 829.843 864.239C830.493 864.779 831.393 865.189 832.233 865.319C840.373 866.609 848.393 859.629 848.303 851.399L848.293 851.389ZM995.933 518.349C994.983 515.849 994.363 513.149 993.003 510.899C990.373 506.579 985.663 504.959 980.703 506.159C975.773 507.349 973.073 510.389 972.303 515.639C971.043 524.169 979.153 532.349 987.753 531.139C988.743 530.999 989.833 530.399 990.543 529.679C993.573 526.619 995.663 523.079 995.933 518.349ZM391.303 623.299C401.493 617.239 412.223 614.069 424.743 613.009C419.383 609.309 414.553 606.939 411.083 603.289C407.513 599.529 405.283 594.499 402.413 589.949C398.663 601.209 395.113 611.889 391.313 623.299H391.303ZM611.073 425.989C613.003 419.109 614.343 413.519 616.153 408.079C617.933 402.729 620.183 397.549 622.223 392.289C611.793 397.919 600.833 400.419 589.393 402.529C599.923 406.989 606.203 415.139 611.073 425.989ZM424.133 403.119C413.053 399.439 402.243 395.839 390.663 391.989C397.023 402.199 399.813 413.099 401.203 425.249C404.743 420.139 407.123 415.259 410.813 411.769C414.613 408.169 419.693 405.909 424.133 403.119ZM522.073 639.909C519.813 640.489 517.563 641.149 515.283 641.639C510.133 642.759 505.063 643.819 499.823 641.499C497.213 640.349 494.173 640.189 491.373 639.599C496.653 650.149 501.703 660.219 506.983 670.779C510.003 659.329 515.463 649.399 522.073 639.909ZM373.043 523.309C373.363 523.089 373.683 522.869 374.003 522.649C373.433 520.219 372.813 517.799 372.303 515.359C371.303 510.589 370.353 505.909 372.483 501.039C373.683 498.279 373.843 495.069 374.463 492.099C363.873 497.399 353.743 502.479 343.203 507.759C354.583 510.639 364.343 515.959 373.043 523.299V523.309ZM669.513 507.349C664.433 505.219 658.953 503.349 653.883 500.669C648.903 498.049 644.353 494.619 639.023 491.149C639.813 494.379 640.433 496.809 641.003 499.239C642.173 504.219 642.863 509.129 640.823 514.159C639.743 516.829 639.423 519.799 638.733 522.739C649.483 517.359 659.623 512.289 669.513 507.339V507.349ZM621.883 622.509C619.743 617.299 617.253 612.259 615.613 606.949C613.953 601.579 613.123 595.949 611.833 589.999C608.533 594.759 606.153 599.649 602.453 603.139C598.683 606.699 593.623 608.889 589.163 611.649C600.333 615.359 611.063 618.919 621.883 622.519V622.509ZM506.623 344.489C504.413 349.819 502.623 355.169 500.023 360.079C497.393 365.059 493.953 369.619 490.483 374.969C493.123 374.349 495.033 373.939 496.923 373.449C502.563 371.999 508.123 370.919 513.873 373.379C516.293 374.419 519.133 374.489 521.853 375.019C516.593 364.469 511.633 354.529 506.613 344.479L506.623 344.489Z" fill="white"/>
<path d="M507.593 397.499C514.883 396.639 520.893 398.259 526.723 400.229C544.313 406.169 561.233 413.569 576.833 423.789C584.893 429.059 591.493 435.609 595.843 444.299C605.213 463.049 612.903 482.389 616.283 503.209C617.283 509.369 617.213 515.519 615.473 521.559C609.353 542.819 600.483 562.809 587.823 581.019C583.853 586.739 578.903 591.529 572.703 594.889C553.913 605.059 534.173 612.649 513.153 616.709C503.843 618.509 494.713 617.519 485.813 614.379C469.003 608.449 452.723 601.399 437.623 591.789C428.353 585.889 421.073 578.329 416.313 568.359C408.083 551.109 400.983 533.469 397.523 514.559C396.103 506.779 395.953 499.019 398.313 491.389C404.563 471.169 412.923 451.919 425.013 434.439C429.293 428.239 434.593 423.089 441.323 419.509C460.013 409.539 479.593 402.069 500.433 398.039C501.853 397.759 503.313 397.619 504.753 397.529C506.013 397.449 507.293 397.509 507.583 397.509L507.593 397.499ZM502.213 551.209C498.253 551.969 494.583 552.949 490.853 553.299C486.893 553.669 482.883 553.359 478.903 553.559C478.003 553.609 476.853 554.329 476.333 555.089C472.293 561.039 469.603 567.549 469.093 574.769C468.703 580.279 470.683 584.729 475.753 587.459C477.983 588.659 480.173 589.979 482.493 590.979C488.343 593.489 489.203 593.379 493.013 588.299C501.053 577.569 505.053 565.699 502.213 551.199V551.209ZM535.273 541.899C529.953 547.889 524.753 553.609 519.763 559.509C519.013 560.389 518.913 562.199 519.143 563.459C520.193 569.029 522.363 574.179 525.583 578.859C530.503 585.989 534.943 587.639 543.233 585.369C545.493 584.749 547.753 584.039 549.883 583.079C554.543 580.979 554.973 580.249 554.333 575.139C552.633 561.419 546.793 550.019 535.273 541.919V541.899ZM452.553 519.379C450.553 519.889 448.243 520.339 446.013 521.059C440.633 522.819 435.623 525.319 431.573 529.389C428.773 532.209 426.833 535.549 427.723 539.619C428.563 543.489 429.893 547.249 431.153 551.019C432.303 554.459 434.753 555.489 438.363 555.089C452.573 553.529 464.123 547.479 472.303 535.819C465.833 530.439 459.483 525.149 452.553 519.369V519.379ZM553.353 537.069C558.493 540.749 564.223 543.329 570.533 544.569C578.833 546.199 583.473 544.109 587.653 536.699C588.983 534.349 589.953 531.799 591.083 529.349C592.413 526.449 591.623 524.289 589.153 522.279C577.903 513.159 565.333 509.109 551.053 511.639C551.823 520.099 552.563 528.339 553.353 537.069ZM494.713 453.289C494.083 450.959 493.503 447.929 492.433 445.089C490.493 439.989 487.983 435.209 483.783 431.499C480.873 428.929 477.543 427.669 473.783 428.559C470.103 429.429 466.513 430.679 462.943 431.939C459.863 433.029 458.523 435.149 458.893 438.629C460.423 452.979 466.313 464.749 478.273 472.989C483.753 466.429 489.043 460.089 494.723 453.299L494.713 453.289ZM541.063 479.029C547.483 484.379 553.963 489.779 560.823 495.499C563.443 494.739 566.613 493.989 569.643 492.869C572.003 491.999 574.273 490.809 576.433 489.509C585.353 484.149 587.183 479.389 584.303 469.549C583.893 468.159 583.473 466.769 582.933 465.429C580.673 459.869 579.913 459.369 574.063 459.829C572.093 459.989 570.113 460.299 568.193 460.789C556.963 463.659 547.483 469.179 541.073 479.029H541.063ZM462.223 503.069C461.463 494.639 460.723 486.379 459.943 477.749C454.863 473.969 448.773 471.249 442.053 470.139C437.483 469.379 432.803 469.379 429.313 473.039C425.633 476.899 423.303 481.629 421.863 486.779C421.243 488.989 421.893 490.699 423.713 492.009C426.503 494.019 429.133 496.319 432.133 497.959C441.453 503.049 451.343 505.419 462.233 503.069H462.223ZM536.423 460.579C540.913 453.969 544.403 446.549 544.123 437.779C544.013 434.319 543.033 431.119 540.123 429.259C536.343 426.839 532.263 424.869 528.213 422.889C525.553 421.589 523.523 422.619 521.613 424.849C515.043 432.539 511.293 441.449 510.233 451.409C509.823 455.239 510.473 459.189 510.643 463.039C519.373 462.209 527.433 461.439 536.423 460.579ZM417.603 524.389C423.633 519.959 429.353 515.749 435.053 511.559C431.263 509.959 427.293 508.649 423.683 506.669C420.143 504.719 416.973 502.099 413.643 499.769C410.863 504.029 410.453 504.619 411.383 507.369C413.313 513.149 415.553 518.829 417.603 524.389ZM510.583 578.759C508.213 587.049 504.713 594.249 498.693 599.899C501.953 603.309 505.153 603.419 508.633 602.089C512.673 600.549 516.743 599.059 520.773 597.489C521.813 597.079 522.763 596.429 523.373 596.099C519.103 590.319 515.073 584.859 510.573 578.769L510.583 578.759ZM578.303 503.209C581.993 504.779 585.973 506.109 589.573 508.089C593.123 510.039 596.303 512.669 600.343 515.489C601.033 512.759 602.343 510.459 601.973 508.459C600.813 502.109 597.773 496.389 595.723 490.419C589.673 494.859 584.183 498.889 578.303 503.209ZM554.303 453.789C558.203 452.209 561.893 450.359 565.793 449.229C569.663 448.109 573.743 447.729 577.663 447.029C577.763 442.829 575.703 440.589 572.473 439.139C568.513 437.359 564.593 435.519 560.623 433.779C559.593 433.329 558.443 433.169 557.693 432.969C556.533 440.069 555.443 446.769 554.303 453.779V453.789ZM458.863 561.119C454.803 562.729 451.223 564.489 447.433 565.559C443.543 566.659 439.453 567.069 435.613 567.749C435.593 572.249 438.003 574.429 441.403 575.909C445.213 577.569 448.963 579.359 452.783 581.009C453.853 581.469 455.043 581.639 455.823 581.849C456.843 574.909 457.803 568.359 458.863 561.119ZM560.313 555.099C561.923 559.129 563.693 562.739 564.783 566.539C565.903 570.439 566.373 574.539 567.293 579.459C569.793 577.879 572.463 577.119 573.443 575.389C576.523 569.949 578.963 564.139 581.653 558.479C574.253 557.309 567.533 556.249 560.313 555.099ZM453.383 459.719C449.303 452.209 446.743 444.599 446.683 436.299C443.363 436.369 440.763 437.109 439.423 439.849C436.733 445.329 434.233 450.899 431.673 456.379C439.053 457.509 445.933 458.569 453.373 459.719H453.383ZM502.033 435.109C505.913 428.139 509.793 421.149 513.773 413.989C511.403 411.539 508.233 411.319 504.733 412.679C500.873 414.179 496.973 415.579 493.113 417.089C491.903 417.559 490.763 418.229 489.933 418.639C494.233 424.489 498.263 429.969 502.033 435.109ZM498.513 494.059C499.133 486.489 499.683 480.059 500.183 473.639C500.383 471.159 498.703 469.929 497.013 468.469C493.023 473.039 489.293 477.309 485.383 481.799C489.873 485.999 493.803 489.659 498.513 494.059ZM503.113 522.459C497.713 527.099 493.483 530.999 488.963 534.519C486.593 536.369 485.533 538.419 485.943 541.929C491.663 540.539 497.643 542.179 503.123 540.099V522.449L503.113 522.459ZM532.283 486.069C528.103 490.549 524.363 494.569 519.963 499.289C526.973 499.789 532.933 499.989 538.823 500.739C541.763 501.119 543.643 500.249 545.513 497.779C541.193 493.959 536.943 490.199 532.283 486.079V486.069ZM522.023 511.229C526.783 516.819 530.913 521.609 534.953 526.459C536.573 528.409 538.533 528.279 541.183 528.149C539.763 522.139 541.623 516.249 539.133 510.379C533.593 510.659 528.243 510.919 522.023 511.229ZM514.873 520.809C514.273 528.339 513.563 534.899 513.353 541.479C513.303 543.089 514.873 544.749 515.893 546.779C520.193 541.879 523.943 537.609 527.983 533.019C523.543 528.879 519.533 525.149 514.883 520.819L514.873 520.809ZM472.903 485.939L471.793 486.759C474.063 492.379 471.813 498.459 474.113 504.489C479.833 504.149 485.243 503.829 491.253 503.469C486.573 497.979 482.633 493.059 478.323 488.489C477.053 487.139 474.743 486.759 472.903 485.939ZM493.333 515.519C486.303 515.009 480.383 514.789 474.523 514.079C471.443 513.709 469.413 514.499 467.863 517.129C472.283 520.989 476.573 524.729 481.083 528.669C485.193 524.259 488.843 520.339 493.333 515.509V515.519ZM510.233 492.309C516.013 487.369 520.763 483.219 525.623 479.209C527.583 477.589 527.683 475.659 527.363 473.089C521.613 473.459 515.973 473.819 510.233 474.189V492.309Z" fill="white"/>
</svg>
