<svg width="81" height="81" viewBox="0 0 81 81" fill="none" xmlns="http://www.w3.org/2000/svg">
<path d="M40.463 10.2994C40.463 34.4324 40.463 70.6914 40.463 70.6914" stroke="white" stroke-width="1.01158"/>
<line y1="-0.505788" x2="65.5574" y2="-0.505788" transform="matrix(0.881964 0.471316 -0.529242 0.848471 11.1273 25.2804)" stroke="white" stroke-width="1.01158"/>
<line y1="-0.505788" x2="65.5574" y2="-0.505788" transform="matrix(-0.881964 0.471316 -0.529242 -0.848471 68.9467 24.3441)" stroke="white" stroke-width="1.01158"/>
<path d="M50.397 20.4057C50.7333 19.8667 51.5971 18.993 52.5473 18.3377C53.0185 18.0128 53.4802 17.7633 53.878 17.6335C54.2881 17.4998 54.5349 17.5224 54.6704 17.5948C54.8059 17.6673 54.9505 17.8537 55.0304 18.2494C55.1079 18.6331 55.1053 19.1279 55.0369 19.6681C54.8989 20.7574 54.5134 21.8867 54.1771 22.4258C53.5555 23.4223 52.2053 23.7824 51.1595 23.2235C50.1136 22.6646 49.7754 21.4022 50.397 20.4057Z" stroke="white" stroke-width="1.01158"/>
<path d="M17.441 41.9403C16.7527 41.9403 15.4922 41.6809 14.3994 41.245C13.8558 41.0282 13.3877 40.7808 13.0649 40.5248C12.7251 40.2553 12.6447 40.0572 12.6447 39.9493C12.6447 39.8413 12.7251 39.6432 13.0649 39.3737C13.3877 39.1177 13.8558 38.8703 14.3994 38.6535C15.4922 38.2176 16.7527 37.9582 17.441 37.9582C18.7572 37.9582 19.7257 38.9011 19.7257 39.9493C19.7257 40.9974 18.7572 41.9403 17.441 41.9403Z" stroke="white" stroke-width="1.01158"/>
<path d="M27.3749 23.3621C27.0387 22.823 26.6532 21.6937 26.5151 20.6044C26.4467 20.0642 26.4441 19.5694 26.5217 19.1856C26.6016 18.79 26.7462 18.6035 26.8816 18.5311C27.0171 18.4587 27.2639 18.4361 27.674 18.5698C28.0719 18.6996 28.5335 18.949 29.0047 19.274C29.9549 19.9293 30.8188 20.8029 31.155 21.342C31.7766 22.3385 31.4384 23.6009 30.3926 24.1598C29.3468 24.7187 27.9965 24.3586 27.3749 23.3621Z" stroke="white" stroke-width="1.01158"/>
<path d="M30.1434 60.6739C29.8072 61.213 28.9433 62.0867 27.9931 62.742C27.5219 63.0669 27.0603 63.3164 26.6624 63.4461C26.2523 63.5799 26.0055 63.5572 25.87 63.4848C25.7345 63.4124 25.59 63.226 25.5101 62.8303C25.4325 62.4465 25.4351 61.9517 25.5035 61.4116C25.6416 60.3223 26.0271 59.193 26.3633 58.6539C26.9849 57.6574 28.3352 57.2973 29.381 57.8562C30.4268 58.4151 30.765 59.6775 30.1434 60.6739Z" stroke="white" stroke-width="1.01158"/>
<path d="M64.4966 37.9582C65.1849 37.9582 66.4453 38.2176 67.5382 38.6535C68.0818 38.8703 68.5499 39.1177 68.8727 39.3736C69.2125 39.6432 69.2929 39.8413 69.2929 39.9492C69.2929 40.0571 69.2125 40.2553 68.8727 40.5248C68.5499 40.7808 68.0818 41.0282 67.5382 41.245C66.4453 41.6808 65.1849 41.9403 64.4966 41.9403C63.1804 41.9403 62.2119 40.9974 62.2119 39.9492C62.2119 38.901 63.1804 37.9582 64.4966 37.9582Z" stroke="white" stroke-width="1.01158"/>
<path d="M54.9841 58.3486C55.4636 58.7924 56.1535 59.7944 56.5921 60.815C56.8098 61.3217 56.951 61.8003 56.9835 62.1905C57.0172 62.5953 56.9276 62.8029 56.8258 62.8971C56.724 62.9914 56.4997 63.0743 56.0623 63.0431C55.6408 63.013 55.1237 62.8823 54.5763 62.6808C53.4736 62.2749 52.3911 61.6363 51.9116 61.1925C51.0149 60.3625 51.0091 59.0622 51.8458 58.2877C52.6825 57.5133 54.0874 57.5186 54.9841 58.3486Z" stroke="white" stroke-width="1.01158"/>
<path d="M33.7583 9.88198C33.2294 9.03404 32.6433 7.30362 32.4334 5.64727C32.329 4.82364 32.3227 4.05387 32.4458 3.44444C32.5713 2.82315 32.8108 2.46038 33.1076 2.30178C33.4044 2.14319 33.8635 2.13263 34.5076 2.34268C35.1393 2.54871 35.8564 2.93865 36.5748 3.43411C38.0197 4.4305 39.3456 5.76557 39.8745 6.61351C40.8814 8.22769 40.3326 10.2703 38.6417 11.1739C36.9507 12.0775 34.7652 11.4962 33.7583 9.88198Z" stroke="white" stroke-width="1.01158"/>
<path d="M47.0951 71.008C47.624 71.856 48.2101 73.5864 48.42 75.2427C48.5243 76.0664 48.5306 76.8361 48.4075 77.4456C48.282 78.0669 48.0426 78.4296 47.7458 78.5882C47.449 78.7468 46.9899 78.7574 46.3458 78.5473C45.7141 78.3413 44.997 77.9514 44.2786 77.4559C42.8337 76.4595 41.5078 75.1244 40.9789 74.2765C39.972 72.6623 40.5208 70.6197 42.2117 69.7161C43.9027 68.8125 46.0882 69.3939 47.0951 71.008Z" stroke="white" stroke-width="1.01158"/>
<path d="M66.2683 19.7218C66.7972 18.8739 68.1232 17.5388 69.568 16.5424C70.2864 16.047 71.0035 15.657 71.6353 15.451C72.2793 15.241 72.7385 15.2515 73.0352 15.4101C73.332 15.5687 73.5715 15.9315 73.697 16.5528C73.8201 17.1622 73.8138 17.932 73.7094 18.7556C73.4996 20.412 72.9134 22.1424 72.3845 22.9903C71.3776 24.6045 69.1921 25.1859 67.5012 24.2822C65.8102 23.3786 65.2614 21.336 66.2683 19.7218Z" stroke="white" stroke-width="1.01158"/>
<path d="M9.63599 30.5493C8.60028 30.8061 6.63193 30.8814 4.84454 30.6397C3.95412 30.5193 3.14524 30.3248 2.53848 30.0558C1.91233 29.7782 1.61758 29.4752 1.53821 29.201C1.45883 28.9268 1.55038 28.5279 1.9427 27.9978C2.32288 27.484 2.9183 26.9412 3.62439 26.4248C5.04175 25.3883 6.78705 24.5426 7.82276 24.2857C9.83237 23.7873 11.794 24.8518 12.2817 26.5365C12.7694 28.2212 11.6456 30.0509 9.63599 30.5493Z" stroke="white" stroke-width="1.01158"/>
<path d="M72.9366 50.1302C74.0101 50.1302 75.9334 50.5294 77.5927 51.1912C78.4194 51.5209 79.1467 51.9028 79.6578 52.3082C80.186 52.727 80.3839 53.0894 80.3839 53.3697C80.3839 53.65 80.186 54.0123 79.6578 54.4312C79.1467 54.8366 78.4194 55.2184 77.5927 55.5482C75.9334 56.21 74.0101 56.6091 72.9366 56.6091C70.8498 56.6091 69.2566 55.1074 69.2566 53.3697C69.2566 51.632 70.8498 50.1302 72.9366 50.1302Z" stroke="white" stroke-width="1.01158"/>
<path d="M13.0881 62.035C12.3362 62.731 10.6783 63.7046 9.00246 64.3214C8.16856 64.6284 7.36547 64.8336 6.69663 64.8814C6.01202 64.9303 5.57916 64.8081 5.34566 64.592C5.11217 64.3759 4.98019 63.9752 5.03299 63.3415C5.08457 62.7225 5.30628 61.9791 5.63794 61.2073C6.30442 59.6562 7.35622 58.1216 8.10817 57.4256C9.5498 56.0912 11.8234 56.0723 13.1868 57.3343C14.5502 58.5962 14.5298 60.7006 13.0881 62.035Z" stroke="white" stroke-width="1.01158"/>
<path d="M40.9789 6.6135C41.5078 5.76557 42.8338 4.4305 44.2786 3.43411C44.997 2.93864 45.7141 2.54871 46.3459 2.34268C46.9899 2.13263 47.4491 2.14319 47.7458 2.30178C48.0426 2.46038 48.2821 2.82315 48.4076 3.44444C48.5307 4.05387 48.5244 4.82363 48.42 5.64727C48.2102 7.30362 47.624 9.03404 47.0951 9.88197C46.0882 11.4962 43.9027 12.0775 42.2118 11.1739C40.5208 10.2703 39.972 8.22769 40.9789 6.6135Z" stroke="white" stroke-width="1.01158"/>
<path d="M39.8745 74.2765C39.3456 75.1244 38.0196 76.4595 36.5748 77.4559C35.8564 77.9514 35.1393 78.3413 34.5075 78.5473C33.8635 78.7574 33.4043 78.7468 33.1076 78.5882C32.8108 78.4296 32.5713 78.0669 32.4458 77.4456C32.3227 76.8361 32.329 76.0664 32.4334 75.2427C32.6432 73.5864 33.2294 71.856 33.7583 71.008C34.7652 69.3939 36.9507 68.8125 38.6416 69.7161C40.3326 70.6197 40.8814 72.6623 39.8745 74.2765Z" stroke="white" stroke-width="1.01158"/>
<path d="M72.9366 23.9045C74.0101 23.9045 75.9334 24.3037 77.5927 24.9655C78.4194 25.2952 79.1467 25.6771 79.6578 26.0825C80.186 26.5013 80.3839 26.8637 80.3839 27.144C80.3839 27.4243 80.186 27.7866 79.6578 28.2055C79.1467 28.6109 78.4194 28.9927 77.5927 29.3225C75.9334 29.9843 74.0101 30.3834 72.9366 30.3834C70.8498 30.3834 69.2566 28.8816 69.2566 27.144C69.2566 25.4063 70.8498 23.9045 72.9366 23.9045Z" stroke="white" stroke-width="1.01158"/>
<path d="M8.10819 23.2666C7.35624 22.5706 6.30444 21.036 5.63796 19.4849C5.3063 18.7131 5.08459 17.9697 5.03301 17.3506C4.98021 16.717 5.11219 16.3163 5.34568 16.1002C5.57917 15.8841 6.01204 15.7619 6.69665 15.8108C7.36549 15.8585 8.16858 16.0637 9.00248 16.3707C10.6783 16.9876 12.3362 17.9612 13.0881 18.6572C14.5298 19.9915 14.5502 22.0959 13.1868 23.3579C11.8234 24.6199 9.54981 24.601 8.10819 23.2666Z" stroke="white" stroke-width="1.01158"/>
<path d="M72.3845 57.5234C72.9134 58.3713 73.4995 60.1017 73.7094 61.7581C73.8137 62.5817 73.82 63.3515 73.6969 63.9609C73.5714 64.5822 73.332 64.945 73.0352 65.1036C72.7384 65.2622 72.2793 65.2727 71.6352 65.0627C71.0035 64.8567 70.2864 64.4667 69.5679 63.9713C68.1231 62.9749 66.7972 61.6398 66.2682 60.7919C65.2614 59.1777 65.8102 57.1351 67.5011 56.2315C69.1921 55.3278 71.3776 55.9092 72.3845 57.5234Z" stroke="white" stroke-width="1.01158"/>
<path d="M7.82275 56.4065C6.78705 56.1496 5.04174 55.3039 3.62438 54.2673C2.9183 53.751 2.32287 53.2082 1.94269 52.6944C1.55037 52.1643 1.45882 51.7654 1.5382 51.4912C1.61758 51.217 1.91233 50.9139 2.53847 50.6364C3.14523 50.3674 3.95411 50.1729 4.84453 50.0525C6.63192 49.8108 8.60028 49.8861 9.63598 50.1429C11.6456 50.6413 12.7694 52.471 12.2816 54.1557C11.7939 55.8404 9.83236 56.9049 7.82275 56.4065Z" stroke="white" stroke-width="1.01158"/>
<path d="M40.395 70.5755C40.395 70.6198 40.4049 70.6615 40.4049 70.7039" stroke="white" stroke-width="1.01158" stroke-linecap="round"/>
<path d="M40.463 15.7886L48.9453 26.3474L49.0767 26.511L49.2855 26.5335L63.3588 28.0483L57.7578 40.0474L57.658 40.2614L57.7578 40.4753L63.3588 52.4744L49.2855 53.9892L49.0767 54.0117L48.9453 54.1753L40.463 64.7341L31.9808 54.1753L31.8493 54.0117L31.6406 53.9892L17.5672 52.4744L23.1682 40.4753L23.268 40.2614L23.1682 40.0474L17.5672 28.0483L31.6406 26.5335L31.8493 26.511L31.9808 26.3474L40.463 15.7886Z" stroke="white" stroke-width="1.01158"/>
<path d="M40.9688 9.28984L51.3778 23.6814L51.5179 23.8752L51.7566 23.8898L70.377 25.0347L62.1598 40.4921L62.0336 40.7295L62.1598 40.9669L70.377 56.4242L51.7566 57.5691L51.5179 57.5838L51.3778 57.7775L40.9688 72.1691L30.5598 57.7775L30.4197 57.5838L30.181 57.5691L11.5606 56.4242L19.7778 40.9669L19.904 40.7295L19.7778 40.4921L11.5606 25.0347L30.181 23.8898L30.4197 23.8752L30.5598 23.6814L40.9688 9.28984Z" stroke="white" stroke-width="1.01158"/>
<path d="M40.463 25.3394L43.1613 35.2853L43.2928 35.77L43.7785 35.6419L54.3326 32.8585L46.4982 39.8848L46.0784 40.2613L46.4982 40.6379L54.3326 47.6642L43.7785 44.8807L43.2928 44.7527L43.1613 45.2374L40.463 55.1832L37.7647 45.2374L37.6332 44.7527L37.1476 44.8807L26.5934 47.6642L34.4278 40.6379L34.8476 40.2613L34.4278 39.8848L26.5934 32.8585L37.1476 35.6419L37.6332 35.77L37.7647 35.2853L40.463 25.3394Z" stroke="white" stroke-width="1.01158"/>
</svg>
