<svg width="110" height="169" viewBox="0 0 110 169" fill="none" xmlns="http://www.w3.org/2000/svg">
<path d="M101.194 117.629C102.038 118.262 101.827 119.106 101.827 119.739C100.984 121.004 99.5074 122.692 100.562 123.746C102.249 125.434 102.671 127.754 104.78 128.809C106.045 133.66 107.943 138.089 106.678 143.573C106.256 145.894 108.576 148.636 108.787 151.589C108.787 152.221 109.208 152.854 109.208 153.487C110.263 158.76 110.052 158.338 105.412 160.869C101.616 162.768 97.6093 163.189 93.3914 163.822C81.5814 165.51 69.5604 165.088 57.9613 167.197C51.6346 168.463 45.5188 167.83 39.4029 168.041C30.7563 168.463 29.069 163.611 29.4908 156.862C29.9126 150.323 29.9127 143.784 30.1236 137.246C30.3345 130.918 30.9672 124.59 31.1781 118.051C31.389 111.302 30.9671 104.341 31.5998 97.5914C32.2324 91.8964 32.2325 86.2014 32.2325 80.5064C32.2325 76.4988 30.7563 75.2333 26.9602 76.2879C22.1097 77.7644 17.0483 77.5535 11.9869 77.9753C8.19081 78.3972 5.44911 75.4442 1.86393 76.077C0.598573 76.2879 -0.455942 72.2803 1.02031 71.0148C4.39459 68.2727 5.44916 64.476 6.92541 60.6794C9.24523 54.9844 13.0413 50.1331 16.4156 45.2818C19.3681 41.2742 20.8444 36.6338 23.3751 32.4153C28.2257 24.611 32.0216 16.174 36.6612 8.36969C38.1375 5.83858 39.192 3.51841 41.5119 1.831C44.8861 -0.489187 49.7367 0.143598 51.8457 3.51842C57.9615 12.7992 66.3971 20.1816 74.6219 27.564C79.8942 32.2044 85.3776 36.6338 90.0172 41.907C93.3915 45.7036 97.3983 49.0784 101.194 52.6642C101.827 53.2969 102.671 53.9297 103.303 54.7734C106.888 58.992 106.467 59.2029 102.038 62.7886C97.1874 66.5853 91.9151 67.64 86.221 67.8509C84.7448 67.8509 83.4796 68.0618 82.4251 68.9055C80.9489 69.3274 79.4725 67.6399 77.7853 68.6946C78.418 71.0148 81.5815 71.0147 81.5815 73.3349C81.3706 77.9753 84.3231 79.6627 87.9083 80.9283C88.1192 81.1392 88.1191 81.3501 88.1191 81.772C86.8538 82.1938 85.5885 82.4048 84.534 82.8266C84.1123 83.0375 83.9012 84.0922 84.1121 84.0922C86.221 84.0922 87.4864 84.9359 86.221 87.2561C86.4319 87.2561 86.643 87.467 86.643 87.467C88.7519 86.6233 89.5953 89.3653 91.4933 89.1544C91.4933 89.5762 91.4933 89.7872 91.4933 90.209C90.0171 90.42 88.5409 89.7872 86.8538 90.8418C89.1736 93.3729 91.0716 95.904 90.228 99.4898C90.0171 100.544 90.6498 102.443 92.337 103.076C93.6023 103.497 95.5004 103.286 95.5004 105.607C95.5004 107.505 93.8132 107.294 92.5478 107.927C92.126 108.138 91.7043 108.349 91.2825 108.771C90.8607 109.192 90.8608 109.614 91.0717 110.036C91.2826 110.669 92.126 111.513 92.5478 110.88C94.8676 108.138 96.5549 110.88 98.4529 111.302C99.7183 112.145 99.2963 113.2 99.0854 114.466C98.2419 115.098 97.3983 115.52 98.031 116.786C99.0854 117.84 100.14 117.418 101.194 117.629ZM93.8131 114.887C93.6022 114.676 93.3915 114.044 93.1806 113.833C92.5479 113.622 92.1261 114.044 92.337 114.466C92.337 114.887 92.7589 115.309 92.9697 115.52C93.6024 116.153 93.6022 115.52 93.8131 114.887Z" fill="white" fill-opacity="0.7"/>
<path d="M98.8745 111.513C96.9765 110.88 95.2895 108.349 92.9696 111.091C92.5479 111.513 91.7041 110.88 91.4932 110.247C91.2824 109.825 91.2823 109.192 91.7041 108.981C92.1259 108.77 92.5479 108.349 92.9696 108.138C94.0241 107.505 95.711 107.716 95.9219 105.818C95.9219 103.497 94.2348 103.919 92.7585 103.286C91.0714 102.654 90.4387 100.755 90.6496 99.7007C91.4932 96.1149 89.5952 93.5838 87.2754 91.0527C88.9625 89.9981 90.4389 90.6308 91.9152 90.4199C94.6568 97.1696 98.2418 103.919 98.8745 111.513Z" fill="#C4C4C4" fill-opacity="0.7"/>
<path d="M88.119 81.1392C84.5339 79.8736 81.5814 77.9753 81.7923 73.5458C81.7923 71.2256 78.6288 71.2257 77.9961 68.9055C79.6832 67.8508 81.1596 69.5382 82.6359 69.1164C83.0577 72.7021 85.7992 75.2332 87.0646 78.3971C87.4864 79.2408 87.9082 80.0845 88.119 81.1392Z" fill="#C4C4C4" fill-opacity="0.7"/>
<path d="M91.7042 89.3653C89.8062 89.5763 88.9627 86.8342 86.8538 87.6779C86.6429 87.6779 86.6428 87.6779 86.4319 87.467C87.4863 85.1468 86.4319 84.514 84.3229 84.3031C84.112 84.3031 84.3231 83.2485 84.7449 83.0375C86.0102 82.6157 87.2755 82.1938 88.33 81.9829C90.228 84.0922 91.0715 86.6233 91.7042 89.3653Z" fill="#C4C4C4" fill-opacity="0.7"/>
<path d="M104.569 128.809C102.46 127.754 102.038 125.223 100.351 123.746C99.2967 122.692 100.773 121.004 101.617 119.739C104.569 122.059 103.304 125.856 104.569 128.809Z" fill="#C4C4C4" fill-opacity="0.7"/>
<path d="M101.194 117.629C100.351 117.629 99.0856 118.051 98.6638 116.996C98.0312 115.942 99.0856 115.309 99.7183 114.676C100.984 115.098 100.984 116.364 101.194 117.629Z" fill="#C4C4C4" fill-opacity="0.7"/>
<path d="M93.8131 114.888C93.6022 115.52 93.6024 116.153 92.9697 115.731C92.5479 115.52 92.3369 115.099 92.3369 114.677C92.3369 114.255 92.7588 113.833 93.1805 114.044C93.6023 114.255 93.6022 114.677 93.8131 114.888Z" fill="#C4C4C4" fill-opacity="0.7"/>
</svg>
